#N canvas 37 73 1047 850 10;
#X obj -122 109 openpanel;
#X msg -122 130 read -resize \$1 array1;
#X obj -122 150 soundfiler;
#X obj -123 90 bng 15 250 50 0 empty empty empty 17 7 0 10 -262144
-1 -1;
#N canvas 0 22 450 300 (subpatch) 0;
#X array array1 374850 float 2;
#X coords 0 1 374850 -1 200 140 1;
#X restore 29 70 graph;
#X msg -122 181 bang;
#X obj -122 204 tabplay~ array1;
#X msg -81 181 stop;
#X obj 130 292 rfft~;
#X floatatom -107 388 15 0 0 0 - - -;
#X floatatom 38 581 15 0 0 0 - - -;
#X floatatom 215 521 10 0 0 0 - - -;
#X text 188 375 Get spectral peaks from magnitudes and estimate frequency.
Argumnent or right inlet sets threshold as percentage of the maximum
peak detected in each frame;
#X obj -107 408 average 50;
#X obj -107 427 int;
#X floatatom -108 447 5 0 0 0 - - -;
#X obj 36 620 average 50;
#X obj 36 644 int;
#X floatatom 36 670 5 0 0 0 - - -;
#X obj 215 542 average 50;
#X obj 215 563 int;
#X floatatom 216 585 5 0 0 0 - - -;
#X obj 649 227 energy;
#X obj 651 255 hsl 100 20 0 0.1 0 0 empty empty 0___________0.1 -2
-8 0 10 -262144 -1 -1 0 1;
#X msg 687 204 lt 27;
#X msg 687 185 st 6;
#X text 661 277 energy levels;
#X obj 629 294 int;
#X floatatom 629 315 5 0 0 0 - - -;
#X obj 294 158 noise~;
#X text 615 337 191 = 440 Osc;
#X obj 394 158 phasor~ 440;
#X obj 552 566 gravmagspec;
#X floatatom 553 588 5 0 0 0 - - -;
#X obj 553 607 average;
#X obj 554 629 int;
#X floatatom 556 653 5 0 0 0 - - -;
#X obj 644 532 vsl 20 128 20 20000 0 0 empty empty empty 0 -9 0 10
-262144 -1 -1 0 1;
#X obj 339 158 osc~ 200;
#X text -129 67 Load Sample;
#X obj 472 159 adc~;
#X text 680 291 Useful to draw attack and decay;
#X text 672 650 20hz;
#X text 669 524 20 \, 000hz;
#X text 285 11 Analysis Tool;
#X text -135 470 0 = White Noise -3 = 440 Sine;
#X text -23 693 0 = White Noise 2 = 440 Sine Wave;
#X text 177 611 -4 = 440 Sine Wave -8 = White Noise;
#X text 211 473 Spectral Flatness;
#X text 467 672 Doubles the value with sine waves \, only starts working
from 250 onwards;
#X text 517 521 Spectral Centroid:;
#X text 52 528 Irregularity;
#X text -108 331 Spectral Smoothness;
#X text 628 188 Energy;
#X text 280 122 Tests (Connect to rfft \, energy \, zerocrosrate and
gravmagspec);
#X text 490 30 Formulae here: https://s3-eu-west-1.amazonaws.com/papers/jamiebullock_phd.pdf
;
#X obj -121 243 dac~;
#X obj 817 11 flib;
#X obj 129 322 mspec~;
#X obj 128 371 pspec~;
#X obj -108 365 ss~;
#X obj 38 554 irreg~;
#X obj 214 496 sfm~;
#X obj 119 412 peak~ 40;
#X text 711 11 External library;
#X obj 29 928 bng 15 250 50 0 empty empty bang 17 7 0 10 -262144 -1
-1;
#X floatatom 139 975 5 0 0 0 Power - -;
#X floatatom 186 974 5 0 0 3 event_type - -;
#X floatatom 386 1015 5 0 0 0 BPM - -;
#X floatatom 533 937 5 0 0 3 acceleration_BPM - -;
#X obj 386 995 unpack;
#X floatatom 426 1015 5 0 0 1 ms - -;
#X msg 165 876 list minvel 60;
#X obj 147 918 tes--t~~;
#X obj 309 835 timer;
#X obj 390 877 s \$0-cosc-out;
#X obj 363 816 r \$0-cosc-out;
#X obj 309 858 clapping;
#X obj 309 878 tempoest2;
#X obj 377 922 pack 0 0;
#X obj 378 899 t b f;
#N canvas 899 207 189 260 acceleration 0;
#X obj 48 203 outlet;
#X obj 48 179 avg4pt2;
#X obj 48 17 inlet;
#X obj 46 116 route 0 1;
#X obj 46 69 f;
#X obj 77 69 + 1;
#X obj 110 70 mod 2;
#X obj 47 156 -;
#X obj 47 45 t b f b;
#X obj 80 138 t b f;
#X obj 47 94 pack;
#X connect 1 0 0 0;
#X connect 2 0 8 0;
#X connect 3 0 7 0;
#X connect 3 1 9 0;
#X connect 4 0 5 0;
#X connect 4 0 10 0;
#X connect 5 0 6 0;
#X connect 6 0 4 1;
#X connect 7 0 1 0;
#X connect 8 0 4 0;
#X connect 8 1 10 1;
#X connect 8 2 4 0;
#X connect 9 0 7 0;
#X connect 9 1 7 1;
#X connect 9 1 10 1;
#X connect 10 0 3 0;
#X restore 519 895 pd acceleration;
#X floatatom 519 861 5 0 0 0 BPM - -;
#X obj 519 841 unpack;
#X floatatom 559 861 5 0 0 1 ms - -;
#X text 273 779 Tempo Analysis;
#X connect 0 0 1 0;
#X connect 1 0 2 0;
#X connect 3 0 0 0;
#X connect 5 0 6 0;
#X connect 6 0 22 0;
#X connect 6 0 32 0;
#X connect 6 0 8 0;
#X connect 6 0 56 0;
#X connect 6 0 56 1;
#X connect 6 0 73 0;
#X connect 7 0 6 0;
#X connect 8 0 58 0;
#X connect 8 1 58 1;
#X connect 9 0 13 0;
#X connect 10 0 16 0;
#X connect 11 0 19 0;
#X connect 13 0 14 0;
#X connect 14 0 15 0;
#X connect 16 0 17 0;
#X connect 17 0 18 0;
#X connect 19 0 20 0;
#X connect 20 0 21 0;
#X connect 22 0 23 0;
#X connect 22 0 27 0;
#X connect 24 0 22 1;
#X connect 25 0 22 1;
#X connect 27 0 28 0;
#X connect 32 0 33 0;
#X connect 33 0 34 0;
#X connect 34 0 35 0;
#X connect 35 0 36 0;
#X connect 35 0 37 0;
#X connect 58 0 60 0;
#X connect 58 0 61 0;
#X connect 58 0 63 0;
#X connect 60 0 9 0;
#X connect 61 0 10 0;
#X connect 62 0 11 0;
#X connect 63 1 62 0;
#X connect 70 0 68 0;
#X connect 70 1 71 0;
#X connect 72 0 73 1;
#X connect 73 0 65 0;
#X connect 73 1 66 0;
#X connect 73 2 67 0;
#X connect 73 3 74 0;
#X connect 73 4 77 1;
#X connect 73 5 83 0;
#X connect 74 0 77 0;
#X connect 76 0 74 1;
#X connect 77 0 75 0;
#X connect 77 0 78 0;
#X connect 78 0 79 0;
#X connect 78 0 81 0;
#X connect 78 1 80 0;
#X connect 79 0 70 0;
#X connect 80 0 79 0;
#X connect 80 1 79 1;
#X connect 81 0 69 0;
#X connect 83 0 82 0;
#X connect 83 1 84 0;
#X coords 0 850 1 849 85 60 0;
