#N canvas 311 67 806 465 10;
#X obj 161 194 bng 15 250 50 0 empty empty bang 17 7 0 10 -262144 -1
-1;
#X floatatom 271 241 5 0 0 0 Power - -;
#X floatatom 318 287 5 0 0 3 event_type - -;
#X floatatom 518 281 5 0 0 0 BPM - -;
#X floatatom 665 203 5 0 0 3 acceleration_BPM - -;
#X obj 518 261 unpack;
#X floatatom 558 281 5 0 0 1 ms - -;
#X msg 297 142 list minvel 60;
#X obj 279 184 tes--t~~;
#X obj 275 54 adc~;
#X obj 441 101 timer;
#X obj 522 143 s \$0-cosc-out;
#X obj 495 82 r \$0-cosc-out;
#X obj 441 124 clapping;
#X obj 441 144 tempoest2;
#X obj 509 188 pack 0 0;
#X obj 510 165 t b f;
#N canvas 899 207 189 260 acceleration 0;
#X obj 48 203 outlet;
#X obj 48 179 avg4pt2;
#X obj 48 17 inlet;
#X obj 46 116 route 0 1;
#X obj 46 69 f;
#X obj 77 69 + 1;
#X obj 110 70 mod 2;
#X obj 47 156 -;
#X obj 47 45 t b f b;
#X obj 80 138 t b f;
#X obj 47 94 pack;
#X connect 1 0 0 0;
#X connect 2 0 8 0;
#X connect 3 0 7 0;
#X connect 3 1 9 0;
#X connect 4 0 5 0;
#X connect 4 0 10 0;
#X connect 5 0 6 0;
#X connect 6 0 4 1;
#X connect 7 0 1 0;
#X connect 8 0 4 0;
#X connect 8 1 10 1;
#X connect 8 2 4 0;
#X connect 9 0 7 0;
#X connect 9 1 7 1;
#X connect 9 1 10 1;
#X connect 10 0 3 0;
#X restore 651 161 pd acceleration;
#X floatatom 663 73 5 0 0 0 BPM - -;
#X obj 663 53 unpack;
#X floatatom 703 73 5 0 0 1 ms - -;
#X connect 5 0 3 0;
#X connect 5 1 6 0;
#X connect 7 0 8 1;
#X connect 8 0 0 0;
#X connect 8 1 1 0;
#X connect 8 2 2 0;
#X connect 8 3 10 0;
#X connect 8 4 13 1;
#X connect 8 5 19 0;
#X connect 9 0 8 0;
#X connect 10 0 13 0;
#X connect 12 0 10 1;
#X connect 13 0 11 0;
#X connect 13 0 14 0;
#X connect 14 0 15 0;
#X connect 14 0 17 0;
#X connect 14 1 16 0;
#X connect 15 0 5 0;
#X connect 16 0 15 0;
#X connect 16 1 15 1;
#X connect 17 0 4 0;
#X connect 19 0 18 0;
#X connect 19 1 20 0;
