#N canvas 648 488 962 611 10;
#N canvas 434 338 625 551 convolution 0;
#X obj 119 46 inlet;
#X obj 305 177 inlet;
#N canvas 566 556 745 568 fft-convolution 0;
#X obj 130 198 *~;
#X obj 98 198 *~;
#X obj 225 97 *~;
#X obj 228 33 inlet~;
#X obj 222 134 rfft~;
#X obj 89 108 *~;
#X obj 87 43 inlet~;
#X obj 133 69 tabreceive~ hanning;
#X obj 89 131 rfft~;
#X obj 143 290 rifft~;
#X obj 145 411 outlet~;
#X obj 400 133 block~ 1024 4;
#X obj 189 197 *~;
#X obj 218 197 *~;
#X text 37 2 convoluion of two signals using an fft and a hanning window
;
#X obj 403 79 r window-size;
#X msg 402 105 set \$1 4;
#X obj 149 317 *~;
#X obj 188 245 +~;
#X obj 122 244 +~;
#X obj 229 301 * 3;
#X obj 230 328 / 2;
#X floatatom 299 327 5 0 0 0 - - -;
#X obj 144 341 /~;
#X connect 0 0 19 1;
#X connect 1 0 19 0;
#X connect 2 0 4 0;
#X connect 3 0 2 0;
#X connect 4 0 1 1;
#X connect 4 0 13 1;
#X connect 4 1 0 1;
#X connect 4 1 12 1;
#X connect 5 0 8 0;
#X connect 6 0 5 0;
#X connect 7 0 5 1;
#X connect 7 0 2 1;
#X connect 7 0 17 1;
#X connect 8 0 1 0;
#X connect 8 0 12 0;
#X connect 8 1 0 0;
#X connect 8 1 13 0;
#X connect 9 0 17 0;
#X connect 12 0 18 0;
#X connect 13 0 18 1;
#X connect 15 0 16 0;
#X connect 15 0 20 0;
#X connect 16 0 11 0;
#X connect 17 0 23 0;
#X connect 18 0 9 1;
#X connect 19 0 9 0;
#X connect 20 0 21 0;
#X connect 21 0 22 0;
#X connect 21 0 23 1;
#X connect 23 0 10 0;
#X restore 206 304 pd fft-convolution;
#X obj 349 323 phasor~;
#X obj 328 240 mtof;
#N canvas 488 215 738 395 samp 0;
#X obj 206 144 soundfiler;
#X floatatom 205 166 8 0 0 0 - - -;
#X obj 203 84 t b b;
#X msg 203 62 bang;
#X obj 243 84 del 100;
#X obj 204 193 / 44.1;
#X obj 204 217 outlet;
#X obj 301 85 table sample1;
#X msg 273 145 \; sample1 normalize \;;
#X obj 202 25 loadbang;
#X msg 451 123 read -resize sound2.wav sample1;
#X floatatom 262 200 8 0 0 0 - - -;
#X msg 427 167 read -resize mlab1611.wav sample1;
#X msg 410 232 read -resize s2.wav sample1;
#X msg 339 301 read -resize 2203_1.wav sample1;
#X msg 197 118 read -resize s2.wav sample1;
#X msg 479 57 read -resize sampleskoray/samplepianover3.wav array1
;
#X msg 53 2 read -resize sampleskoray/superwobble.wav sample1;
#X connect 0 0 1 0;
#X connect 1 0 5 0;
#X connect 2 0 4 0;
#X connect 2 1 15 0;
#X connect 3 0 2 0;
#X connect 4 0 8 0;
#X connect 5 0 6 0;
#X connect 5 0 11 0;
#X connect 9 0 3 0;
#X connect 10 0 0 0;
#X connect 12 0 0 0;
#X connect 13 0 0 0;
#X connect 14 0 0 0;
#X connect 15 0 0 0;
#X connect 17 0 0 0;
#X restore 144 111 pd samp;
#X obj 117 110 *;
#X obj 305 221 t b f;
#X obj 206 419 outlet~;
#X obj -49 112 t b f;
#X obj -180 122 symbol;
#X msg -180 101 sample1;
#X symbolatom -180 143 10 0 0 0 - - -;
#X obj -50 160 sampgran hanning 512;
#X obj -49 139 pack s 0 400 200 600 2;
#X obj -180 79 loadbang;
#X msg 156 237 3;
#X msg 241 355 3;
#X obj 120 271 *~ 1.2;
#X obj 206 390 *~ 1.6;
#X connect 0 0 6 0;
#X connect 1 0 7 0;
#X connect 2 0 19 0;
#X connect 3 0 2 1;
#X connect 4 0 3 0;
#X connect 5 0 6 1;
#X connect 6 0 9 0;
#X connect 7 0 14 0;
#X connect 7 1 4 0;
#X connect 9 0 14 0;
#X connect 9 1 14 1;
#X connect 10 0 12 0;
#X connect 10 0 14 0;
#X connect 11 0 10 0;
#X connect 13 0 18 0;
#X connect 14 0 13 0;
#X connect 15 0 11 0;
#X connect 16 0 18 1;
#X connect 17 0 19 1;
#X connect 18 0 2 0;
#X connect 19 0 8 0;
#X restore 332 181 pd convolution;
#X obj 332 237 bp~ 8000 6;
#X obj 468 164 sopiscale 0 127 0 1;
#X obj 468 145 circular_seat;
#X msg 554 145 0.18367;
#X msg 292 145 0.28571;
#X obj 458 258 vline~;
#X obj 401 241 dbtorms;
#X obj 403 261 pack 0 5;
#X msg 400 219 90;
#X obj 374 128 loadbang;
#X obj 400 201 loadbang;
#N canvas 660 315 543 335 window 1;
#N canvas 0 22 450 300 (subpatch) 0;
#X array hanning 32768 float 0;
#X coords 0 1 32767 0 200 120 1;
#X restore 250 93 graph;
#X msg 131 101 0;
#X obj 25 150 osc~;
#X obj 25 102 samplerate~;
#X obj 25 173 *~ -0.5;
#X obj 25 196 +~ 0.5;
#X text 239 79 1;
#X text 232 197 0;
#X text 248 210 0;
#X obj 25 126 / 512;
#X obj 17 79 bng 15 250 50 0 empty empty empty 0 -6 0 8 -262144 -1
-1;
#X obj 17 221 tabwrite~ hanning;
#X text 17 45 Hanning window:;
#X obj 119 11 r window-size;
#X msg 265 7 \; hanning resize \$1;
#X obj 141 39 t b f f;
#X msg 75 19 1024;
#X obj 18 7 loadbang;
#X connect 1 0 2 1;
#X connect 2 0 4 0;
#X connect 3 0 9 0;
#X connect 4 0 5 0;
#X connect 5 0 11 0;
#X connect 9 0 2 0;
#X connect 10 0 3 0;
#X connect 10 0 1 0;
#X connect 10 0 11 0;
#X connect 13 0 15 0;
#X connect 15 0 10 0;
#X connect 15 1 9 1;
#X connect 15 2 14 0;
#X connect 16 0 15 0;
#X connect 17 0 16 0;
#X restore 82 11 pd window;
#X obj 310 209 hip~ 50;
#X obj 232 32 inlet;
#X obj 473 40 inlet;
#X obj 347 439 dac~;
#X obj 425 326 outlet~;
#X obj 492 415 bng 15 250 50 0 empty empty empty 17 7 0 10 -262144
-1 -1;
#X obj 568 442 bng 15 250 50 0 empty empty empty 17 7 0 10 -262144
-1 -1;
#X obj 665 436 bng 15 250 50 0 empty empty empty 17 7 0 10 -262144
-1 -1;
#X obj 493 384 sel 1;
#X obj 565 389 sel 2;
#X obj 631 382 sel 3;
#X floatatom 551 323 5 0 0 0 - - -;
#X obj 549 262 r myodyn;
#X obj 290 343 *~;
#X obj 539 525 line~;
#X obj 369 327 *~;
#X msg 569 474 0.55 800;
#X msg 668 476 1 800;
#X obj 466 366 loadbang;
#X msg 480 475 0.2 400;
#X obj 217 111 sopiscale 0 1 15 652;
#X obj 62 127 s window-size;
#X obj 66 62 loadbang;
#X obj 217 164 circular_seat;
#X floatatom 615 119 5 0 0 0 - - -;
#X obj 468 115 sopiscale 0.635 1 17 580;
#X msg 98 95 32768;
#X msg 66 91 8192;
#X msg 31 93 16384;
#X obj 332 264 *~ 0.7;
#X msg 135 65 2048;
#X connect 0 0 42 0;
#X connect 1 0 42 0;
#X connect 2 0 0 1;
#X connect 3 0 2 0;
#X connect 4 0 3 1;
#X connect 5 0 36 1;
#X connect 7 0 8 0;
#X connect 8 0 6 0;
#X connect 9 0 7 0;
#X connect 10 0 5 0;
#X connect 10 0 4 0;
#X connect 11 0 9 0;
#X connect 13 0 42 0;
#X connect 14 0 33 0;
#X connect 15 0 38 0;
#X connect 18 0 32 0;
#X connect 19 0 29 0;
#X connect 20 0 30 0;
#X connect 21 0 18 0;
#X connect 22 0 19 0;
#X connect 23 0 20 0;
#X connect 24 0 21 0;
#X connect 24 0 22 0;
#X connect 24 0 23 0;
#X connect 25 0 24 0;
#X connect 26 0 16 0;
#X connect 26 0 17 0;
#X connect 27 0 26 1;
#X connect 27 0 28 1;
#X connect 28 0 16 1;
#X connect 28 0 17 0;
#X connect 29 0 27 0;
#X connect 30 0 27 0;
#X connect 31 0 18 0;
#X connect 32 0 27 0;
#X connect 33 0 36 0;
#X connect 35 0 41 0;
#X connect 36 0 0 0;
#X connect 38 0 3 0;
#X connect 38 0 37 0;
#X connect 39 0 34 0;
#X connect 40 0 34 0;
#X connect 41 0 34 0;
#X connect 42 0 26 0;
#X connect 42 0 28 0;
#X connect 43 0 34 0;
