#N canvas 408 34 1559 925 10;
#X declare -lib moocow;
#X declare -lib flib;
#X declare -lib zexy;
#X msg 30 154 devices;
#X msg 52 209 close;
#N canvas 436 396 1280 723 parsebytes 0;
#X obj 129 64 inlet;
#X obj 129 103 select 10 13;
#X obj 129 139 zl group 50;
#X obj 129 210 outlet;
#X obj 392 67 import moocow;
#X obj 129 165 bytes2any;
#X connect 0 0 1 0;
#X connect 1 0 2 0;
#X connect 1 2 2 0;
#X connect 2 0 5 0;
#X connect 5 0 3 0;
#X restore 30 347 pd parsebytes;
#X text 86 156 print available serial devices;
#X text 89 183 open serial port (change the number to your port);
#X text 93 211 close serial port;
#X text 213 252 the data you want to write to the arduino;
#X obj 79 284 prepend print;
#X obj 86 252 receive serial_print;
#X msg 45 80 S\$1K;
#X msg 104 82 D\$1K;
#X floatatom 45 39 5 0 0 0 - - -;
#X msg 163 64 255;
#X msg 186 90 P\$1K;
#X floatatom 206 61 5 0 0 0 - - -;
#X floatatom 93 19 5 0 0 0 - - -;
#X msg 366 4 M\$1K;
#X obj 383 -56 tgl 15 0 empty empty empty 17 7 0 10 -262144 -1 -1 1
1;
#X obj 30 393 unpack f f;
#X text 229 50 motor parameters;
#X text 357 -77 manual mode on/off;
#X obj 441 15 loadbang;
#X obj 440 43 del 2000;
#X msg 462 92 \; pd dsp 1 \;;
#X obj 420 70 t b b;
#X obj 390 97 del 10;
#X obj 393 127 s st;
#X msg 484 419 connect 10.0.0.4 9000;
#X obj 30 412 change;
#X obj 87 412 change;
#X obj 30 442 sel -1;
#X obj 87 445 sel -1;
#X floatatom 596 660 5 0 0 0 - - -;
#X obj 895 5 dumpOSC 9000;
#X floatatom 837 387 5 0 0 0 - - -;
#X obj 837 410 speedlim 1;
#X obj 837 310 int;
#X floatatom 763 315 5 0 0 0 - - -;
#X obj 758 340 speedlim 1;
#X obj 763 238 int;
#X obj 884 105 OSCroute /left /right;
#X msg 420 -24 1;
#X obj 216 338 f;
#X obj 320 337 f;
#X obj 431 215 tgl 15 0 empty empty empty 17 7 0 10 -262144 -1 -1 1
1;
#X obj 23 522 change;
#X obj 81 522 change;
#X msg 763 362 A\$1K;
#X msg 837 434 B\$1K;
#N canvas 612 336 643 507 scale 0;
#X obj -486 -214 unpack;
#X floatatom -594 -155 5 0 0 0 - - -;
#X floatatom -402 -158 5 0 0 0 - - -;
#X obj -542 -139 sel 0 1;
#X obj -454 -141 sel 0 1;
#X msg -539 -90 1;
#X msg -454 -91 1;
#X obj -483 -268 inlet;
#X obj -360 -260 inlet;
#X obj -244 -259 inlet;
#X obj -345 71 outlet;
#X obj -229 73 outlet;
#X floatatom -532 26 5 0 0 0 - - -;
#X floatatom -456 33 5 0 0 0 - - -;
#X floatatom -455 176 5 0 0 0 - - -;
#X obj -454 123 expr 800- (1100 - $i1)*$f2+300;
#X obj -158 167 expr 800 - (800-$i1) * $f2;
#X obj -412 9 expr 800- (1100 - $i1)*$f2+300;
#X obj -206 9 expr 800- (1100 - $i1)*$f2+300;
#X msg -423 -93 1.8;
#X msg -508 -92 1.8;
#X connect 0 0 1 0;
#X connect 0 0 3 0;
#X connect 0 1 2 0;
#X connect 0 1 4 0;
#X connect 3 0 5 0;
#X connect 3 1 20 0;
#X connect 4 0 6 0;
#X connect 4 1 19 0;
#X connect 5 0 12 0;
#X connect 5 0 17 1;
#X connect 6 0 13 0;
#X connect 6 0 15 1;
#X connect 6 0 18 1;
#X connect 7 0 0 0;
#X connect 8 0 17 0;
#X connect 9 0 18 0;
#X connect 15 0 14 0;
#X connect 17 0 10 0;
#X connect 18 0 11 0;
#X connect 19 0 13 0;
#X connect 19 0 15 1;
#X connect 19 0 18 1;
#X connect 20 0 12 0;
#X connect 20 0 17 1;
#X restore 976 184 pd scale;
#X obj 649 71 OSCroute /manual /scale;
#X floatatom 691 219 5 0 0 0 - - -;
#X obj 30 369 route S C;
#X obj 143 401 unpack f f;
#X obj 143 439 sel -1;
#X obj 200 439 sel -1;
#X obj 184 466 +;
#X obj 190 608 s manual;
#X obj 188 582 change;
#X obj 279 -34 r manual;
#X floatatom 1026 282 5 0 0 0 - - -;
#X floatatom 674 633 5 0 0 0 - - -;
#X floatatom 110 610 5 0 0 0 - - -;
#X floatatom 185 632 5 0 0 0 - - -;
#X floatatom 146 593 5 0 0 0 - - -;
#X obj 574 89 r manual;
#X floatatom 870 147 5 0 0 0 - - -;
#X floatatom 1069 189 5 0 0 0 - - -;
#X floatatom 54 657 5 0 0 0 - - -;
#X floatatom 107 658 5 0 0 0 - - -;
#X floatatom 700 321 5 0 0 0 - - -;
#X obj 976 365 vsl 15 128 15 622 0 0 empty empty empty 0 -9 0 10 -262144
-1 -1 0 1;
#X obj 603 182 vsl 15 128 10 660 0 0 empty empty empty 0 -9 0 10 -262144
-1 -1 0 1;
#X obj 816 551 line;
#X msg 771 483 0 100;
#X msg 768 521 700 100;
#X text 221 27 7 194 124;
#X obj 210 301 r noisaLeft;
#X obj 304 277 r noisaRight;
#N canvas 377 331 487 374 inputSelect 0;
#X obj 44 44 inlet;
#X obj 270 161 inlet;
#X obj 102 154 inlet;
#X obj 223 236 switch 2;
#X obj 211 159 sel 0 1;
#X msg 249 195 1;
#X msg 211 196 2;
#X obj 59 235 switch 2;
#X obj 47 158 sel 0 1;
#X msg 85 194 1;
#X msg 47 195 2;
#X obj 237 305 outlet;
#X obj 60 303 outlet;
#X obj 266 103 r noisaRight;
#X obj 90 106 r noisaLeft;
#X floatatom 314 211 5 0 0 0 - - -;
#X floatatom 150 209 5 0 0 0 - - -;
#X connect 0 0 4 0;
#X connect 0 0 8 0;
#X connect 1 0 3 2;
#X connect 2 0 7 2;
#X connect 3 0 11 0;
#X connect 4 0 6 0;
#X connect 4 1 5 0;
#X connect 5 0 3 0;
#X connect 6 0 3 0;
#X connect 7 0 12 0;
#X connect 8 0 10 0;
#X connect 8 1 9 0;
#X connect 9 0 7 0;
#X connect 10 0 7 0;
#X connect 13 0 3 1;
#X connect 13 0 15 0;
#X connect 14 0 7 1;
#X connect 14 0 16 0;
#X restore 724 108 pd inputSelect;
#X msg 312 597 send /agent2 manual \$1;
#X obj 89 498 max 15;
#X obj 837 360 max 15;
#X msg 41 182 open 1;
#X obj 29 314 comport 1 115200;
#X floatatom 15 606 5 0 0 0 - - -;
#X floatatom 68 607 5 0 0 0 - - -;
#X obj 105 564 s noisaLeft;
#X obj 8 564 s noisaRight;
#X floatatom 804 134 5 0 0 0 - - -;
#X floatatom 666 176 5 0 0 0 - - -;
#X floatatom 574 141 5 0 0 0 - - -;
#X obj 160 -16 loadbang;
#X msg 136 14 255;
#X msg 179 19 100;
#X obj 189 496 speedlim 100;
#X obj 190 524 smooth 0.5;
#X obj 89 473 min 622;
#X obj 837 335 min 622;
#X floatatom 966 312 5 0 0 0 - - -;
#X obj 1037 335 vsl 15 128 10 660 0 0 empty empty empty 0 -9 0 10 -262144
-1 -1 0 1;
#X obj 1075 338 vsl 15 128 10 660 0 0 empty empty empty 0 -9 0 10 -262144
-1 -1 0 1;
#X obj 283 1 change;
#X text 233 557 Capacitive sensor treshold;
#X obj 269 116 del 50;
#X obj 763 288 max 15;
#N canvas 294 436 450 471 sig_gate 0;
#X obj 152 66 inlet~;
#X obj 123 368 outlet~;
#X obj 102 243 change;
#X obj 117 288 *~;
#X obj 107 198 expr if ($f1 < -50 \, 0 \, 1);
#X obj 103 139 pvu~;
#X connect 0 0 5 0;
#X connect 0 0 3 0;
#X connect 2 0 3 1;
#X connect 3 0 1 0;
#X connect 4 0 2 0;
#X connect 5 0 4 0;
#X restore 610 452 pd sig_gate;
#X obj 539 -38 import flib;
#X obj 22 475 min 670;
#X obj 22 500 max 15;
#N canvas 18 74 1024 716 myo 0;
#X obj -6425 294 vsl 15 128 -50 50 0 0 empty empty empty 0 -9 0 10
-262144 -1 -1 0 1;
#X obj -6346 29 OSCroute /emg;
#X floatatom -6270 60 5 0 0 0 - - -;
#X obj -6323 83 smooth 0.6;
#X obj -6400 146 unpack 0 0 0 0 0 0 0 0;
#X floatatom -6228 61 5 0 0 0 - - -;
#X obj -6674 479 expr abs($f1);
#X obj -6706 625 peak;
#X floatatom -7066 711 5 0 0 0 - - -;
#X obj -6707 661 sel 0 1;
#X obj -6767 797 vsl 40 128 0 40 0 0 empty empty empty 0 -9 0 10 -262144
-1 -1 0 1;
#X obj -6754 696 smooth 0.6;
#X floatatom -6661 557 5 0 0 0 - - -;
#X obj -6681 586 float;
#X obj -6754 748 line;
#X msg -6748 721 \$1 100;
#X obj -6490 535 del 2000;
#X obj -7025 781 sel 0;
#X obj -7003 817 bng 15 250 50 0 empty empty empty 17 7 0 10 -262144
-1 -1;
#X obj -6963 777 sel 0;
#X obj -6917 813 bng 15 250 50 0 empty empty empty 17 7 0 10 -262144
-1 -1;
#X obj -6882 791 sel 0;
#X obj -6823 811 bng 15 250 50 0 empty empty empty 17 7 0 10 -262144
-1 -1;
#X floatatom -6844 872 5 0 0 0 - - -;
#X msg -6932 858 1;
#X msg -6974 848 2;
#X msg -7035 860 3;
#X obj -6689 525 average 20;
#X obj -6634 747 max;
#X msg -6461 498 4000;
#X msg -6419 507 2000;
#X obj -6954 603 t b b;
#X msg -6932 644 25;
#X obj -6901 602 t b b;
#X msg -6879 643 30;
#X obj -7001 702 expr if ($f1 > $f2 \, 3 \, 0) \; if ($f1 <= $f2 &&
$f1 > 15 \, 2 \, 0) \; if ($f1 <= 15 \, 1 \, 0);
#N canvas 253 138 766 590 smoothing 0;
#X obj 483 -357 expr abs($f1);
#X obj 451 -211 peak;
#X floatatom 56 -153 5 0 0 0 - - -;
#X obj 450 -175 sel 0 1;
#X obj 390 -39 vsl 40 128 0 40 0 0 empty empty empty 0 -9 0 10 -262144
-1 -1 0 1;
#X obj 403 -140 smooth 0.6;
#X floatatom 496 -279 5 0 0 0 - - -;
#X obj 476 -250 float;
#X obj 403 -88 line;
#X msg 409 -115 \$1 100;
#X obj 542 -223 del 2000;
#X obj 132 -55 sel 0;
#X obj 154 -19 bng 15 250 50 0 empty empty empty 17 7 0 10 -262144
-1 -1;
#X obj 218 -59 sel 0;
#X obj 240 -23 bng 15 250 50 0 empty empty empty 17 7 0 10 -262144
-1 -1;
#X obj 270 -53 sel 0;
#X obj 292 -17 bng 15 250 50 0 empty empty empty 17 7 0 10 -262144
-1 -1;
#X floatatom 244 64 5 0 0 0 - - -;
#X msg 225 22 1;
#X msg 183 12 2;
#X msg 122 24 3;
#X obj 468 -311 average 20;
#X obj 523 -89 max;
#X msg 571 -260 4000;
#X msg 613 -251 2000;
#X obj 203 -233 t b b;
#X obj 256 -234 t b b;
#X obj 484 -397 inlet;
#X obj 309 99 outlet;
#X msg 278 -193 60;
#X msg 225 -192 50;
#X obj 38 -118 expr if ($f1 > $f2 \, 3 \, 0) \; if ($f1 <= $f2 && $f1
> 25 \, 2 \, 0) \; if ($f1 <= 25 \, 1 \, 0);
#X connect 0 0 21 0;
#X connect 1 0 2 0;
#X connect 1 0 5 0;
#X connect 1 1 3 0;
#X connect 3 1 10 0;
#X connect 5 0 9 0;
#X connect 6 0 7 1;
#X connect 7 0 1 1;
#X connect 8 0 4 0;
#X connect 8 0 31 0;
#X connect 9 0 8 0;
#X connect 10 0 7 0;
#X connect 11 1 12 0;
#X connect 11 1 20 0;
#X connect 11 1 25 0;
#X connect 13 1 14 0;
#X connect 13 1 19 0;
#X connect 13 1 24 0;
#X connect 13 1 26 0;
#X connect 15 1 16 0;
#X connect 15 1 18 0;
#X connect 15 1 26 0;
#X connect 17 0 28 0;
#X connect 18 0 17 0;
#X connect 19 0 17 0;
#X connect 20 0 17 0;
#X connect 21 0 1 0;
#X connect 21 0 6 0;
#X connect 23 0 10 1;
#X connect 24 0 10 1;
#X connect 25 1 30 0;
#X connect 26 1 29 0;
#X connect 27 0 0 0;
#X connect 29 0 31 1;
#X connect 30 0 31 1;
#X connect 31 0 11 0;
#X connect 31 1 13 0;
#X connect 31 2 15 0;
#X restore -6339 410 pd smoothing;
#N canvas 257 148 766 590 smoothing 0;
#X obj 483 -357 expr abs($f1);
#X obj 451 -211 peak;
#X floatatom 91 -125 5 0 0 0 - - -;
#X obj 450 -175 sel 0 1;
#X obj 390 -39 vsl 40 128 0 40 0 0 empty empty empty 0 -9 0 10 -262144
-1 -1 0 1;
#X obj 403 -140 smooth 0.6;
#X floatatom 496 -279 5 0 0 0 - - -;
#X obj 476 -250 float;
#X obj 403 -88 line;
#X msg 409 -115 \$1 100;
#X obj 542 -223 del 2000;
#X obj 132 -55 sel 0;
#X obj 154 -19 bng 15 250 50 0 empty empty empty 17 7 0 10 -262144
-1 -1;
#X obj 218 -59 sel 0;
#X obj 240 -23 bng 15 250 50 0 empty empty empty 17 7 0 10 -262144
-1 -1;
#X obj 270 -53 sel 0;
#X obj 292 -17 bng 15 250 50 0 empty empty empty 17 7 0 10 -262144
-1 -1;
#X floatatom 244 64 5 0 0 0 - - -;
#X msg 225 22 1;
#X msg 183 12 2;
#X msg 122 24 3;
#X obj 468 -311 average 20;
#X obj 523 -89 max;
#X msg 571 -260 4000;
#X msg 613 -251 2000;
#X obj 203 -233 t b b;
#X obj 256 -234 t b b;
#X obj 484 -397 inlet;
#X obj 309 99 outlet;
#X msg 278 -193 60;
#X msg 225 -192 50;
#X obj 156 -134 expr if ($f1 > $f2 \, 3 \, 0) \; if ($f1 <= $f2 &&
$f1 > 40 \, 2 \, 0) \; if ($f1 <= 40 \, 1 \, 0);
#X connect 0 0 21 0;
#X connect 1 0 2 0;
#X connect 1 0 5 0;
#X connect 1 1 3 0;
#X connect 3 1 10 0;
#X connect 5 0 9 0;
#X connect 6 0 7 1;
#X connect 7 0 1 1;
#X connect 8 0 4 0;
#X connect 8 0 31 0;
#X connect 9 0 8 0;
#X connect 10 0 7 0;
#X connect 11 1 12 0;
#X connect 11 1 20 0;
#X connect 11 1 25 0;
#X connect 13 1 14 0;
#X connect 13 1 19 0;
#X connect 13 1 24 0;
#X connect 13 1 26 0;
#X connect 15 1 16 0;
#X connect 15 1 18 0;
#X connect 15 1 26 0;
#X connect 17 0 28 0;
#X connect 18 0 17 0;
#X connect 19 0 17 0;
#X connect 20 0 17 0;
#X connect 21 0 1 0;
#X connect 21 0 6 0;
#X connect 23 0 10 1;
#X connect 24 0 10 1;
#X connect 25 1 30 0;
#X connect 26 1 29 0;
#X connect 27 0 0 0;
#X connect 29 0 31 1;
#X connect 30 0 31 1;
#X connect 31 0 11 0;
#X connect 31 1 13 0;
#X connect 31 2 15 0;
#X restore -6224 468 pd smoothing;
#X floatatom -6472 734 5 0 0 0 - - -;
#X floatatom -6377 728 5 0 0 0 - - -;
#X floatatom -6421 845 5 0 0 0 - - -;
#X obj -6322 669 median;
#X obj -6333 575 pack 0 0 0;
#X floatatom -6467 840 5 0 0 0 - - -;
#X obj -6344 437 t b i;
#X obj -6431 546 t b i;
#X obj -6380 5 inlet;
#X obj -6872 919 s myodyn;
#X obj -6976 180 nbx 5 50 -1e+37 1e+37 0 0 empty empty empty 0 -8 0
48 -262144 -1 -1 0 256;
#X connect 1 0 2 0;
#X connect 1 0 3 0;
#X connect 1 0 4 0;
#X connect 4 0 5 0;
#X connect 4 0 6 0;
#X connect 4 1 36 0;
#X connect 4 2 37 0;
#X connect 6 0 27 0;
#X connect 7 0 8 0;
#X connect 7 0 11 0;
#X connect 7 1 9 0;
#X connect 9 1 16 0;
#X connect 11 0 15 0;
#X connect 12 0 13 1;
#X connect 13 0 7 1;
#X connect 14 0 10 0;
#X connect 14 0 35 0;
#X connect 15 0 14 0;
#X connect 16 0 13 0;
#X connect 17 1 18 0;
#X connect 17 1 26 0;
#X connect 17 1 31 0;
#X connect 19 1 20 0;
#X connect 19 1 25 0;
#X connect 19 1 30 0;
#X connect 19 1 33 0;
#X connect 21 1 22 0;
#X connect 21 1 33 0;
#X connect 21 1 24 0;
#X connect 23 0 47 0;
#X connect 23 0 48 0;
#X connect 24 0 23 0;
#X connect 24 0 42 0;
#X connect 25 0 23 0;
#X connect 26 0 23 0;
#X connect 27 0 7 0;
#X connect 27 0 12 0;
#X connect 29 0 16 1;
#X connect 30 0 16 1;
#X connect 31 1 32 0;
#X connect 32 0 35 1;
#X connect 33 1 34 0;
#X connect 34 0 35 1;
#X connect 35 0 17 0;
#X connect 35 1 19 0;
#X connect 35 2 21 0;
#X connect 36 0 38 0;
#X connect 36 0 45 0;
#X connect 37 0 39 0;
#X connect 37 0 44 0;
#X connect 41 0 43 0;
#X connect 42 0 41 0;
#X connect 44 0 42 0;
#X connect 44 1 42 2;
#X connect 45 0 42 0;
#X connect 45 1 42 1;
#X connect 46 0 1 0;
#X restore 1211 78 pd myo;
#N canvas 589 108 1139 1092 analysis 0;
#X obj 201 -19 mspec~;
#X obj 204 -62 rfft~;
#X obj -49 26 ss~;
#X floatatom -50 47 15 0 0 0 - - -;
#X text 253 -27 Get magnitude spectrum from fft. Argument of 2 gives
power spectrum.;
#X text 262 21 Get spectral peaks from magnitudes and estimate frequency.
Argumnent or right inlet sets threshold as percentage of the maximum
peak detected in each frame;
#X obj -50 67 average 50;
#X floatatom -46 134 5 0 0 0 - - -;
#X obj 723 -127 energy;
#X obj 725 -99 hsl 100 20 0 0.1 0 0 empty empty 0___________0.1 -2
-8 0 10 -262144 -1 -1 0 1;
#X msg 761 -150 lt 27;
#X msg 761 -169 st 6;
#X text 735 -77 energy levels;
#X floatatom 703 -39 10 0 0 0 - - -;
#X obj 202 42 peak~ 40;
#X text 689 -17 191 = 440 Osc;
#X obj 686 259 gravmagspec;
#X floatatom 687 281 5 0 0 0 - - -;
#X obj 687 300 average;
#X obj 688 322 int;
#X floatatom 690 346 5 0 0 0 - - -;
#X obj 778 225 vsl 20 128 20 20000 0 0 empty empty empty 0 -9 0 10
-262144 -1 -1 0 1;
#X text 754 -63 Useful to draw attack and decay;
#X text 806 343 20hz;
#X text 803 217 20 \, 000hz;
#X text 315 -162 Analysis Tool;
#X text -67 177 0 = White Noise -3 = 440 Sine;
#X text 601 365 Doubles the value with sine waves \, only starts working
from 250 onwards;
#X text 651 214 Spectral Centroid:;
#X text -18 20 Spectral Smoothness;
#X text 702 -166 Energy;
#X obj 0 348 f;
#X obj 113 304 bang;
#X obj 81 259 inlet;
#X obj 114 342 f;
#X obj 209 345 f;
#X text -59 -27 comment;
#X obj 333 -120 inlet~;
#X obj 263 370 f;
#X floatatom 1016 586 5 0 0 0 BPM - -;
#X floatatom 1072 677 5 0 0 3 acceleration_BPM - -;
#X obj 1027 538 unpack;
#X floatatom 1067 558 5 0 0 1 ms - -;
#X obj 947 474 tempoest2;
#X obj 1018 465 pack 0 0;
#X obj 1019 442 t b f;
#N canvas 904 241 189 260 acceleration 0;
#X obj 48 203 outlet;
#X obj 48 179 avg4pt2;
#X obj 48 17 inlet;
#X obj 46 116 route 0 1;
#X obj 46 69 f;
#X obj 77 69 + 1;
#X obj 110 70 mod 2;
#X obj 47 156 -;
#X obj 47 45 t b f b;
#X obj 80 138 t b f;
#X obj 47 94 pack;
#X connect 1 0 0 0;
#X connect 2 0 8 0;
#X connect 3 0 7 0;
#X connect 3 1 9 0;
#X connect 4 0 5 0;
#X connect 4 0 10 0;
#X connect 5 0 6 0;
#X connect 6 0 4 1;
#X connect 7 0 1 0;
#X connect 8 0 4 0;
#X connect 8 1 10 1;
#X connect 8 2 4 0;
#X connect 9 0 7 0;
#X connect 9 1 7 1;
#X connect 9 1 10 1;
#X connect 10 0 3 0;
#X restore 1082 632 pd acceleration;
#X obj 601 641 spigot;
#X obj 601 620 bng 15 250 50 0 empty empty empty 0 -6 0 8 -262144 -1
-1;
#X obj 601 667 bng 15 250 50 0 empty empty empty 0 -6 0 8 -262144 -1
-1;
#X obj 666 668 tgl 15 0 empty empty empty 0 -6 0 8 -262144 -1 -1 1
1;
#X obj 601 481 vsl 15 128 0 127 0 0 empty empty empty 0 -8 0 8 -262144
-1 -1 0 1;
#X msg 557 486 0;
#X msg 623 486 50;
#X obj 699 614 nbx 5 14 -1e+37 1e+37 0 0 empty empty empty 0 -6 0 10
-262144 -1 -1 300 256;
#X text 687 622 threshold - if no activity for x seconds \, reopen
the spigot;
#X obj 666 641 del 200;
#X msg 668 716 1;
#X obj 701 715 -;
#X obj 701 747 tgl 15 0 empty empty empty 0 -6 0 8 -262144 -1 -1 0
1;
#X obj 667 694 bng 15 250 50 0 empty empty empty 0 -6 0 8 -262144 -1
-1;
#X text 672 773 1 if active \, 0 if not;
#X obj 872 695 sel 1;
#X floatatom 1296 615 5 0 0 0 - - -;
#X obj 1241 578 average 10;
#X obj 1031 780 r bang slider;
#X obj 805 429 loadbang;
#X msg 700 536 300;
#X obj 729 476 bng 15 250 50 0 empty empty empty 17 7 0 10 -262144
-1 -1;
#X obj 344 621 sel 1;
#X text 1283 631 ms Average;
#X obj 742 47 rmstodb;
#X floatatom 751 111 5 0 0 0 - - -;
#X obj 166 701 list trim;
#X obj -25 519 list prepend;
#X floatatom -30 371 5 0 0 0 - - -;
#X floatatom 102 372 5 0 0 0 - - -;
#X msg -36 425 smoothness \$1;
#X msg 104 426 centroid \$1;
#X floatatom 118 448 5 0 0 0 - - -;
#X msg 79 500 energy \$1;
#X obj 32 589 list prepend;
#X msg 157 540 tempo \$1;
#X floatatom 176 489 5 0 0 0 - - -;
#X obj 179 739 outlet;
#X obj -28 475 list prepend;
#X obj -29 399 change;
#X obj 101 398 change;
#X obj 95 478 change;
#X obj 167 514 change;
#X obj 250 850 outlet;
#X obj 159 670 list prepend send /agent2;
#X obj 260 813 prepend send /agent2;
#X obj 394 840 outlet;
#X obj 399 809 prepend send /agent2;
#X msg 414 778 attack6 \$1;
#X msg 270 788 attack3 \$1;
#X obj 342 658 bng 15 250 50 0 empty empty empty 17 7 0 10 -262144
-1 -1;
#X obj 281 695 counter 2;
#X obj 362 700 counter 5;
#X obj 288 721 sel 2;
#X obj 377 727 sel 5;
#X msg 403 755 1;
#X msg 284 754 1;
#X connect 0 0 14 0;
#X connect 0 0 2 0;
#X connect 1 0 0 0;
#X connect 1 1 0 1;
#X connect 2 0 3 0;
#X connect 3 0 6 0;
#X connect 6 0 7 0;
#X connect 7 0 31 1;
#X connect 8 0 9 0;
#X connect 8 0 13 0;
#X connect 10 0 8 1;
#X connect 11 0 8 1;
#X connect 13 0 71 0;
#X connect 16 0 17 0;
#X connect 17 0 18 0;
#X connect 18 0 19 0;
#X connect 19 0 20 0;
#X connect 19 0 21 0;
#X connect 20 0 34 1;
#X connect 31 0 75 0;
#X connect 32 0 31 0;
#X connect 32 0 34 0;
#X connect 32 0 35 0;
#X connect 32 0 38 0;
#X connect 33 0 32 0;
#X connect 34 0 76 0;
#X connect 35 0 79 0;
#X connect 37 0 8 0;
#X connect 37 0 16 0;
#X connect 37 0 1 0;
#X connect 38 0 83 0;
#X connect 41 0 39 0;
#X connect 41 1 42 0;
#X connect 41 1 64 0;
#X connect 43 0 44 0;
#X connect 43 0 46 0;
#X connect 43 1 45 0;
#X connect 44 0 41 0;
#X connect 45 0 44 0;
#X connect 45 1 44 1;
#X connect 46 0 40 0;
#X connect 47 0 49 0;
#X connect 48 0 47 0;
#X connect 49 0 50 0;
#X connect 49 0 56 0;
#X connect 50 0 47 1;
#X connect 50 0 58 1;
#X connect 50 0 60 0;
#X connect 51 0 48 0;
#X connect 52 0 51 0;
#X connect 53 0 51 0;
#X connect 54 0 56 1;
#X connect 56 0 50 0;
#X connect 57 0 58 0;
#X connect 58 0 59 0;
#X connect 59 0 62 0;
#X connect 59 0 69 0;
#X connect 60 0 57 0;
#X connect 62 0 43 0;
#X connect 63 0 38 1;
#X connect 64 0 63 0;
#X connect 65 0 48 0;
#X connect 66 0 50 0;
#X connect 66 0 68 0;
#X connect 67 0 54 0;
#X connect 68 0 67 0;
#X connect 69 0 97 0;
#X connect 71 0 72 0;
#X connect 71 0 35 1;
#X connect 73 0 84 0;
#X connect 74 0 81 0;
#X connect 75 0 86 0;
#X connect 76 0 87 0;
#X connect 77 0 85 1;
#X connect 78 0 85 0;
#X connect 79 0 88 0;
#X connect 80 0 74 1;
#X connect 81 0 91 0;
#X connect 82 0 81 1;
#X connect 83 0 89 0;
#X connect 85 0 74 0;
#X connect 86 0 77 0;
#X connect 87 0 78 0;
#X connect 88 0 80 0;
#X connect 89 0 82 0;
#X connect 91 0 73 0;
#X connect 92 0 90 0;
#X connect 94 0 93 0;
#X connect 95 0 94 0;
#X connect 96 0 92 0;
#X connect 97 0 98 0;
#X connect 97 0 99 0;
#X connect 98 0 100 0;
#X connect 99 0 101 0;
#X connect 100 0 103 0;
#X connect 101 0 102 0;
#X connect 102 0 95 0;
#X connect 103 0 96 0;
#X restore 531 479 pd analysis;
#X obj 523 636 sendOSC;
#X obj 518 442 metro 10;
#X obj 93 -90 OSCroute /gestureDone;
#X obj 86 -61 bng 15 250 50 0 empty empty empty 17 7 0 10 -262144 -1
-1;
#X msg 64 -5 40;
#X obj 272 34 sel 0;
#X obj 740 155 granular;
#X msg 210 381 send /agent2 left \$1;
#X msg 345 382 send /agent2 right \$1;
#X obj 763 263 min 670;
#X msg 2 23 10;
#X obj 27 -41 del 500;
#X floatatom 713 396 5 0 0 0 - - -;
#X obj 758 735 spigot;
#X obj 758 714 bng 15 250 50 0 empty empty empty 0 -6 0 8 -262144 -1
-1;
#X obj 758 761 bng 15 250 50 0 empty empty empty 0 -6 0 8 -262144 -1
-1;
#X obj 823 762 tgl 15 0 empty empty empty 0 -6 0 8 -262144 -1 -1 1
1;
#X msg 825 810 1;
#X obj 858 809 -;
#X obj 858 841 tgl 15 0 empty empty empty 0 -6 0 8 -262144 -1 -1 0
1;
#X obj 824 788 bng 15 250 50 0 empty empty empty 0 -6 0 8 -262144 -1
-1;
#X text 829 867 1 if active \, 0 if not;
#X obj 715 837 sel 0;
#X obj 111 -37 del 500;
#X obj 823 735 del 100;
#X obj 840 668 loadbang;
#X msg 843 690 1;
#X obj 977 716 spigot;
#X obj 977 695 bng 15 250 50 0 empty empty empty 0 -6 0 8 -262144 -1
-1;
#X obj 977 742 bng 15 250 50 0 empty empty empty 0 -6 0 8 -262144 -1
-1;
#X obj 1042 743 tgl 15 0 empty empty empty 0 -6 0 8 -262144 -1 -1 1
1;
#X msg 1044 791 1;
#X obj 1077 790 -;
#X obj 1077 822 tgl 15 0 empty empty empty 0 -6 0 8 -262144 -1 -1 0
1;
#X obj 1043 769 bng 15 250 50 0 empty empty empty 0 -6 0 8 -262144
-1 -1;
#X text 1048 859 1 if active \, 0 if not;
#X msg 1062 671 1;
#X msg 749 901 1;
#X msg 717 900 0;
#X obj 1140 713 sel 0;
#X obj 1042 716 del 100;
#X msg 213 13 10;
#X msg 1216 855 1;
#X msg 1164 846 0;
#X obj 191 555 > 8000;
#X obj 607 853 del 80;
#X obj 554 848 del 120;
#X obj 719 869 t b b b b b b;
#X obj 1141 744 t b b b b b b;
#X obj 985 780 del 120;
#X obj 932 775 del 150;
#X obj 1084 55 OSCroute /emg;
#X obj 1090 103 s myodyn;
#X floatatom 1202 149 5 0 0 0 - - -;
#X obj 331 108 spigot;
#X obj 348 56 sel 1;
#X msg 333 80 0;
#X msg 366 80 1;
#X text 719 177 Sound Synthesis Patch;
#X text 565 507 Sound Analysis SubPatch;
#X connect 0 0 84 0;
#X connect 1 0 84 0;
#X connect 2 0 52 0;
#X connect 7 0 84 0;
#X connect 8 0 7 0;
#X connect 9 0 7 0;
#X connect 10 0 7 0;
#X connect 11 0 9 0;
#X connect 12 0 10 0;
#X connect 13 0 7 0;
#X connect 14 0 13 0;
#X connect 15 0 10 0;
#X connect 16 0 7 0;
#X connect 17 0 16 0;
#X connect 18 0 28 0;
#X connect 18 0 68 0;
#X connect 18 1 29 0;
#X connect 18 1 69 0;
#X connect 21 0 22 0;
#X connect 21 0 41 0;
#X connect 22 0 24 0;
#X connect 22 0 27 0;
#X connect 24 0 25 0;
#X connect 24 1 23 0;
#X connect 25 0 26 0;
#X connect 27 0 112 0;
#X connect 28 0 30 0;
#X connect 29 0 31 0;
#X connect 30 1 108 0;
#X connect 31 1 97 0;
#X connect 33 0 40 0;
#X connect 33 0 50 0;
#X connect 33 0 114 0;
#X connect 33 0 163 0;
#X connect 34 0 35 0;
#X connect 34 0 140 0;
#X connect 35 0 48 0;
#X connect 36 0 98 0;
#X connect 37 0 38 0;
#X connect 37 0 126 0;
#X connect 38 0 47 0;
#X connect 38 0 124 0;
#X connect 39 0 121 0;
#X connect 40 0 66 0;
#X connect 40 0 79 1;
#X connect 40 0 36 0;
#X connect 40 1 67 0;
#X connect 40 1 79 2;
#X connect 40 1 39 0;
#X connect 41 0 44 0;
#X connect 41 0 17 0;
#X connect 42 0 119 0;
#X connect 43 0 120 0;
#X connect 44 0 113 0;
#X connect 45 0 85 0;
#X connect 45 0 88 0;
#X connect 46 0 86 0;
#X connect 46 0 87 0;
#X connect 47 0 7 0;
#X connect 48 0 7 0;
#X connect 49 0 99 0;
#X connect 49 0 100 0;
#X connect 49 1 101 0;
#X connect 50 1 51 0;
#X connect 52 0 18 0;
#X connect 52 1 53 0;
#X connect 53 0 54 0;
#X connect 53 1 55 0;
#X connect 54 1 56 1;
#X connect 55 1 56 0;
#X connect 56 0 64 0;
#X connect 56 0 95 0;
#X connect 58 0 57 0;
#X connect 58 0 80 0;
#X connect 58 0 63 0;
#X connect 59 0 102 0;
#X connect 59 0 17 0;
#X connect 59 0 167 0;
#X connect 60 0 39 0;
#X connect 65 0 79 0;
#X connect 65 0 91 0;
#X connect 71 0 35 0;
#X connect 71 0 140 0;
#X connect 72 0 38 0;
#X connect 72 0 126 0;
#X connect 73 0 35 0;
#X connect 73 0 38 0;
#X connect 74 0 73 0;
#X connect 75 0 73 0;
#X connect 77 0 42 1;
#X connect 78 0 43 1;
#X connect 79 0 90 0;
#X connect 79 0 118 0;
#X connect 79 1 89 0;
#X connect 79 1 118 1;
#X connect 80 0 112 0;
#X connect 81 0 46 0;
#X connect 82 0 34 0;
#X connect 83 0 84 0;
#X connect 84 0 2 0;
#X connect 92 0 122 0;
#X connect 92 0 93 0;
#X connect 92 0 94 0;
#X connect 93 0 10 0;
#X connect 94 0 13 0;
#X connect 95 0 96 0;
#X connect 96 0 156 0;
#X connect 97 0 81 0;
#X connect 98 0 82 0;
#X connect 102 0 117 0;
#X connect 102 0 115 0;
#X connect 104 0 122 0;
#X connect 105 0 37 0;
#X connect 106 0 111 1;
#X connect 108 0 109 0;
#X connect 109 0 45 0;
#X connect 111 0 112 0;
#X connect 111 1 112 0;
#X connect 111 2 112 0;
#X connect 112 1 32 0;
#X connect 113 0 43 0;
#X connect 113 0 42 0;
#X connect 113 0 111 0;
#X connect 114 0 115 0;
#X connect 115 0 116 0;
#X connect 115 0 135 0;
#X connect 116 0 10 0;
#X connect 117 0 104 0;
#X connect 118 0 106 0;
#X connect 119 0 112 0;
#X connect 120 0 112 0;
#X connect 121 0 105 0;
#X connect 122 0 9 0;
#X connect 123 0 122 0;
#X connect 123 0 116 0;
#X connect 125 0 127 0;
#X connect 126 0 125 0;
#X connect 127 0 128 0;
#X connect 127 0 136 0;
#X connect 128 0 125 1;
#X connect 128 0 130 1;
#X connect 128 0 132 0;
#X connect 129 0 130 0;
#X connect 130 0 131 0;
#X connect 131 0 134 0;
#X connect 132 0 129 0;
#X connect 134 0 159 0;
#X connect 135 0 93 0;
#X connect 136 0 128 0;
#X connect 137 0 138 0;
#X connect 137 0 148 0;
#X connect 138 0 128 0;
#X connect 139 0 141 0;
#X connect 140 0 139 0;
#X connect 141 0 142 0;
#X connect 141 0 152 0;
#X connect 142 0 139 1;
#X connect 142 0 144 1;
#X connect 142 0 146 0;
#X connect 143 0 144 0;
#X connect 144 0 145 0;
#X connect 145 0 151 0;
#X connect 146 0 143 0;
#X connect 148 0 142 0;
#X connect 149 0 116 0;
#X connect 149 0 166 0;
#X connect 150 0 93 0;
#X connect 150 0 166 0;
#X connect 151 0 160 0;
#X connect 152 0 142 0;
#X connect 153 0 13 0;
#X connect 154 0 166 0;
#X connect 155 0 166 0;
#X connect 156 0 62 0;
#X connect 156 0 58 0;
#X connect 157 0 149 0;
#X connect 158 0 150 0;
#X connect 159 0 150 0;
#X connect 159 1 149 0;
#X connect 159 2 158 0;
#X connect 159 3 157 0;
#X connect 159 4 150 0;
#X connect 159 5 149 0;
#X connect 160 0 155 0;
#X connect 160 1 154 0;
#X connect 160 2 162 0;
#X connect 160 3 161 0;
#X connect 160 4 155 0;
#X connect 160 5 154 0;
#X connect 161 0 154 0;
#X connect 162 0 155 0;
#X connect 163 0 164 0;
#X connect 163 0 165 0;
#X connect 166 0 17 0;
#X connect 167 0 168 0;
#X connect 167 1 169 0;
#X connect 168 0 166 1;
#X connect 169 0 166 1;
