#N canvas 220 227 926 964 10;
#X floatatom 509 56 5 0 0 0 - transpo-set -;
#X floatatom 182 124 3 0 0 0 - speed-set -;
#X floatatom 70 126 7 0 0 0 - location-set -;
#N canvas 678 156 821 693 fft-analysis 0;
#X obj 51 477 *~;
#X obj 18 477 *~;
#X obj 18 499 -~;
#X obj 167 475 *~;
#X obj 136 475 *~;
#X obj 136 497 +~;
#X obj 109 193 *~;
#X obj 78 193 *~;
#X obj 50 193 *~;
#X obj 19 193 *~;
#X obj 19 218 +~;
#X obj 127 379 *~;
#X obj 20 622 *~;
#X obj 238 430 rfft~;
#X obj 108 161 rfft~;
#X obj 19 564 rifft~;
#X obj 21 646 outlet~;
#X obj 97 379 *~;
#X obj 97 401 +~;
#X obj 124 218 -~;
#X obj 18 431 *~;
#X obj 51 432 *~;
#X obj 127 622 r window-size;
#X obj 426 595 r window-size;
#X obj 426 644 block~;
#X obj 19 349 +~ 1e-15;
#X obj 19 598 *~;
#X obj 52 598 tabreceive~ \$0-hann;
#X obj 127 643 expr 2/(3*$f1);
#X obj 591 563 loadbang;
#X msg 591 589 \; pd dsp 1 \; window-size 2048 \; transpo 0 \; rewind
bang;
#X msg 426 619 set \$1 4;
#X obj 97 425 q8_rsqrt~;
#N canvas 743 162 1006 799 read-windows 0;
#X obj 18 693 *~;
#X obj 340 448 r window-size;
#X obj 166 303 f;
#X obj 102 91 r window-size;
#X obj 102 139 /;
#X obj 195 695 *~;
#X obj 166 252 bang~;
#X obj 17 551 line~;
#X obj 102 164 * 1000;
#X obj 288 222 r speed;
#X obj 187 276 r location;
#X obj 208 305 +;
#X obj 288 275 *;
#X obj 188 371 / 1000;
#X obj 166 394 *;
#X text 198 394 reading location (samples);
#X obj 51 597 / 4;
#X obj 288 245 * 0.01;
#X floatatom 340 498 7 0 0 0 - - -;
#X obj 340 474 *;
#X obj 499 365 r transpo;
#X obj 499 387 * 0.01;
#X obj 501 408 + 69;
#X obj 502 429 mtof;
#X obj 502 451 / 440;
#X obj 375 474 t b f;
#X obj 19 719 outlet~;
#X obj 195 720 outlet~;
#X obj 218 664 tabreceive~ \$0-hann;
#X obj 803 386 r location;
#X msg 803 409 0;
#X obj 803 432 s speed;
#X obj 768 508 r speed;
#X msg 768 532 set \$1;
#X obj 768 557 s speed-set;
#X text 411 498 stretched window size (samples);
#X obj 877 507 r transpo;
#X msg 877 533 set \$1;
#X obj 877 558 s transpo-set;
#X obj 808 94 r location;
#X msg 826 278 set \$1;
#X obj 808 140 t b f;
#X obj 826 257 f;
#X obj 754 171 int;
#X obj 754 203 sel 0;
#X msg 813 174 1;
#X msg 813 197 0;
#X obj 754 228 del 300;
#X obj 826 302 s location-set;
#X obj 17 637 tabread4~ \$0-sample;
#X obj 194 637 tabread4~ \$0-sample;
#X obj 188 347 r \$0-insamprate;
#X obj 528 586 r rewind;
#X msg 528 744 \; location \$1;
#X floatatom 111 187 5 0 0 0 - - -;
#X obj 102 115 t f b;
#X obj 142 139 samplerate~;
#X obj 102 208 / 4;
#X obj 243 309 s see-loc;
#X obj 817 116 r see-loc;
#X obj 203 420 / 2;
#X obj 166 420 -;
#X text 239 417 back up 1/2 window;
#X obj 16 597 -~;
#X text 43 6 Read two windows out of the recorded sample \, one 1/4
ahead of the other. The mid point of the front window is specified
by "location". If "speed" is nonzero \, "location" automatically precesses.
;
#X obj 528 720 * -0.5;
#X text 81 601 "back" window 1/4 cycle behind "front" one;
#X text 137 205 computation period (msec) for overlap of 4;
#X text 164 186 msec in a window;
#X obj 528 666 /;
#X obj 528 691 * 1000;
#X obj 528 642 t f b;
#X obj 568 666 samplerate~;
#X obj 528 619 f;
#X msg 845 711 \; rewind bang \; speed \$1;
#X obj 845 684 r auto;
#X obj 730 685 r no-detune;
#X text 326 275 loop to precess the location according;
#X text 325 291 to the "speed" parameter.;
#X text 611 31 if location changes \, update number box;
#X text 610 50 in main window via "location-set" \, but;
#X text 613 69 taking care to limit frequency of updates.;
#X text 756 462 reflect control changes;
#X text 756 479 in main window.;
#X text 754 344 setting location by hand;
#X text 752 362 sets speed to zero.;
#X text 760 653 misc controls;
#X text 496 527 "rewind" control takes us;
#X text 499 545 to a location depending on;
#X text 499 564 stretched window size.;
#X obj 16 469 f;
#X obj 17 496 pack;
#X obj 15 440 b;
#X msg 17 523 0 \, \$1 \$2;
#X msg 730 707 \; transpo 0;
#X connect 0 0 26 0;
#X connect 1 0 19 0;
#X connect 2 0 11 0;
#X connect 2 0 14 0;
#X connect 3 0 55 0;
#X connect 4 0 8 0;
#X connect 5 0 27 0;
#X connect 6 0 2 0;
#X connect 7 0 63 0;
#X connect 7 0 50 0;
#X connect 8 0 54 0;
#X connect 8 0 57 0;
#X connect 9 0 17 0;
#X connect 10 0 2 1;
#X connect 11 0 2 1;
#X connect 11 0 58 0;
#X connect 12 0 11 1;
#X connect 13 0 14 1;
#X connect 14 0 61 0;
#X connect 16 0 63 1;
#X connect 17 0 12 0;
#X connect 18 0 16 0;
#X connect 18 0 60 0;
#X connect 18 0 90 1;
#X connect 19 0 18 0;
#X connect 20 0 21 0;
#X connect 21 0 22 0;
#X connect 22 0 23 0;
#X connect 23 0 24 0;
#X connect 24 0 25 0;
#X connect 25 0 19 0;
#X connect 25 1 19 1;
#X connect 28 0 5 1;
#X connect 28 0 0 1;
#X connect 29 0 30 0;
#X connect 30 0 31 0;
#X connect 32 0 33 0;
#X connect 33 0 34 0;
#X connect 36 0 37 0;
#X connect 37 0 38 0;
#X connect 39 0 41 0;
#X connect 40 0 48 0;
#X connect 41 0 43 0;
#X connect 41 1 42 1;
#X connect 42 0 40 0;
#X connect 43 0 44 0;
#X connect 44 0 45 0;
#X connect 44 0 47 0;
#X connect 45 0 43 1;
#X connect 46 0 43 1;
#X connect 47 0 46 0;
#X connect 47 0 42 0;
#X connect 49 0 0 0;
#X connect 50 0 5 0;
#X connect 51 0 13 0;
#X connect 52 0 73 0;
#X connect 55 0 4 0;
#X connect 55 1 56 0;
#X connect 56 0 4 1;
#X connect 57 0 12 1;
#X connect 57 0 91 1;
#X connect 59 0 41 0;
#X connect 60 0 61 1;
#X connect 61 0 92 0;
#X connect 61 0 49 1;
#X connect 61 0 50 1;
#X connect 63 0 49 0;
#X connect 65 0 53 0;
#X connect 69 0 70 0;
#X connect 70 0 65 0;
#X connect 71 0 69 0;
#X connect 71 1 72 0;
#X connect 72 0 69 1;
#X connect 73 0 71 0;
#X connect 75 0 74 0;
#X connect 76 0 94 0;
#X connect 90 0 91 0;
#X connect 91 0 93 0;
#X connect 92 0 90 0;
#X connect 93 0 7 0;
#X restore 109 133 pd read-windows;
#X obj 137 543 tabsend~ prev-imag;
#X obj 136 567 tabsend~ prev-real;
#X obj 20 8 tabreceive~ prev-real;
#X obj 73 29 tabreceive~ prev-imag;
#X text 272 5 recall previous output amplitude. Its phase will be added
to the phase difference we measure from two windows in the the recorded
sound.;
#X obj 121 69 *~;
#X obj 89 69 *~;
#X obj 89 91 +~;
#X obj 159 94 q8_rsqrt~;
#X obj 159 71 +~ 1e-20;
#X obj 73 119 *~;
#X obj 19 118 *~;
#X obj 181 290 r lock;
#X obj 29 245 lrshift~ 1;
#X obj 24 269 lrshift~ -1;
#X obj 141 245 lrshift~ 1;
#X obj 133 269 lrshift~ -1;
#X obj 35 300 *~;
#X obj 159 312 *~;
#X obj 19 325 +~;
#X obj 125 331 +~;
#X text 247 66 divide by the magnitude to make a unit-magnitude complex
amplitude (phase only). The 1e-20 is to prevent overflows. q8_rsqrt~
is reciprocal square root.;
#X text 247 165 Take FT of the window in back. Multiply its conjugate
by the normalized previous output. The result has the magnitude of
the input sound and phase (previous output phase) minus (back window
phase).;
#X text 249 370 Normalize again \, this time taking care to salt each
channel with 1e-15 so that we get a unit complex number even if everything
was zero heretofore.;
#X text 288 427 Now take the FT of the forward window and multiply
it by the unit complex number from above. The magnitude will be that
of the forward window and the phase will be the previous output phase
plus the phase difference between the two analysis windows -- except
that if "lock" is on \, they will be modified to agree progressively
better with the inter-channel phase relationships of the input.;
#X text 249 242 If "lock" is on \, encourage neighboring channels to
stay in phase by adding the two neighboring complex amplitudes. The
result will tend toward the channel with the strongest amplitude. If
the phase relationships between channels in the output and those in
the input are in parallel \, then neighboring channels of the quotient
will all have the same phase and this will not change any phases. (lrshift
shifts the signal to the left or right depending on its argument.)
;
#X text 387 560 'set' message to block;
#X text 390 577 allows variable size;
#X text 259 126 Read two windows \, one 1/4 length behind the other
\, of the input sound \, with Hann window function (see inside).;
#X connect 0 0 2 1;
#X connect 1 0 2 0;
#X connect 2 0 35 0;
#X connect 2 0 15 0;
#X connect 3 0 5 1;
#X connect 4 0 5 0;
#X connect 5 0 34 0;
#X connect 5 0 15 1;
#X connect 6 0 19 1;
#X connect 7 0 19 0;
#X connect 8 0 10 1;
#X connect 9 0 10 0;
#X connect 10 0 48 0;
#X connect 10 0 47 0;
#X connect 10 0 53 0;
#X connect 11 0 18 1;
#X connect 12 0 16 0;
#X connect 13 0 1 1;
#X connect 13 0 3 1;
#X connect 13 1 0 1;
#X connect 13 1 4 1;
#X connect 14 0 9 1;
#X connect 14 0 7 1;
#X connect 14 1 6 1;
#X connect 14 1 8 1;
#X connect 15 0 26 0;
#X connect 17 0 18 0;
#X connect 18 0 32 0;
#X connect 19 0 49 0;
#X connect 19 0 50 0;
#X connect 19 0 54 0;
#X connect 20 0 1 0;
#X connect 20 0 4 0;
#X connect 21 0 0 0;
#X connect 21 0 3 0;
#X connect 22 0 28 0;
#X connect 23 0 31 0;
#X connect 25 0 17 1;
#X connect 25 0 17 0;
#X connect 25 0 20 0;
#X connect 26 0 12 0;
#X connect 27 0 26 1;
#X connect 28 0 12 1;
#X connect 29 0 30 0;
#X connect 31 0 24 0;
#X connect 32 0 20 1;
#X connect 32 0 21 1;
#X connect 33 0 14 0;
#X connect 33 1 13 0;
#X connect 36 0 40 1;
#X connect 36 0 40 0;
#X connect 36 0 45 0;
#X connect 37 0 39 1;
#X connect 37 0 39 0;
#X connect 37 0 44 0;
#X connect 39 0 41 1;
#X connect 40 0 41 0;
#X connect 41 0 43 0;
#X connect 42 0 44 1;
#X connect 42 0 45 1;
#X connect 43 0 42 0;
#X connect 44 0 8 0;
#X connect 44 0 7 0;
#X connect 45 0 9 0;
#X connect 45 0 6 0;
#X connect 46 0 51 1;
#X connect 46 0 52 1;
#X connect 47 0 51 0;
#X connect 48 0 51 0;
#X connect 49 0 52 0;
#X connect 50 0 52 0;
#X connect 51 0 53 1;
#X connect 52 0 54 1;
#X connect 53 0 25 0;
#X connect 54 0 11 0;
#X connect 54 0 11 1;
#X connect 54 0 21 0;
#X restore 44 245 pd fft-analysis;
#N canvas 260 22 647 699 phase-tables 0;
#N canvas 0 22 450 300 (subpatch) 0;
#X array prev-imag 4096 float 0;
#X coords 0 1000 4096 -1000 400 300 1;
#X restore 169 326 graph;
#N canvas 0 22 450 300 (subpatch) 0;
#X array prev-real 4096 float 0;
#X coords 0 500 4096 -500 400 300 1;
#X restore 170 17 graph;
#X restore 455 245 pd phase-tables;
#X obj 509 79 s transpo;
#X text 179 105 hundredths;
#X text 404 100 normal;
#N canvas 461 155 565 454 hann-window 0;
#N canvas 0 22 450 300 (subpatch) 0;
#X array \$0-hann 4096 float 0;
#X coords 0 1 4095 0 300 100 1;
#X restore 82 311 graph;
#X obj 378 165 osc~;
#X obj 378 190 *~ -0.5;
#X obj 378 214 +~ 0.5;
#X obj 331 247 tabwrite~ \$0-hann;
#X obj 37 88 r window-size;
#X obj 38 173 /;
#X obj 127 142 samplerate~;
#X obj 38 251 s window-sec;
#X obj 177 204 swap;
#X obj 177 228 /;
#X obj 177 252 s window-hz;
#X obj 49 201 * 1000;
#X obj 49 228 s window-msec;
#X obj 38 115 t f b f;
#X msg 173 92 resize \$1;
#X obj 173 116 s \$0-hann;
#X obj 330 105 r window-hz;
#X msg 382 130 0;
#X obj 330 131 t f b;
#X text 15 8 calculate Hann window table (variable window size) and
constants window-hz (fundamental frequency of analysis) \, window-sec
and window-msec (analysis window size in seconds and msec).;
#X connect 1 0 2 0;
#X connect 2 0 3 0;
#X connect 3 0 4 0;
#X connect 5 0 14 0;
#X connect 6 0 8 0;
#X connect 6 0 12 0;
#X connect 7 0 6 1;
#X connect 7 0 9 1;
#X connect 9 0 10 0;
#X connect 9 1 10 1;
#X connect 10 0 11 0;
#X connect 12 0 13 0;
#X connect 14 0 6 0;
#X connect 14 0 9 0;
#X connect 14 1 7 0;
#X connect 14 2 15 0;
#X connect 15 0 16 0;
#X connect 17 0 19 0;
#X connect 18 0 1 1;
#X connect 19 0 1 0;
#X connect 19 1 4 0;
#X connect 19 1 18 0;
#X restore 455 269 pd hann-window;
#N canvas 5 88 694 447 insample 0;
#N canvas 0 22 450 300 (subpatch) 0;
#X array \$0-sample 882000 float 0;
#X coords 0 1 881999 -1 400 150 1;
#X restore 281 135 graph;
#X obj 28 133 r read-sample;
#X obj 28 184 unpack s f;
#X obj 28 294 soundfiler;
#X text 365 360 read a sample;
#X obj 285 359 loadbang;
#X obj 28 210 t s b;
#X obj 84 209 symbol \$0-sample;
#X obj 28 245 pack s s;
#X msg 28 270 read -resize \$1 \$2;
#X obj 83 156 44100;
#X obj 28 157 t a b;
#X obj 38 318 s \$0-samplength;
#X obj 125 184 s \$0-insamprate;
#X obj 28 357 /;
#X obj 28 381 * 1000;
#X obj 28 404 s \$0-samp-msec;
#X obj 66 357 r \$0-insamprate;
#X obj 29 70 hip~ 5;
#X obj 29 46 adc~ 1;
#X obj 29 9 inlet;
#X obj 91 46 samplerate~;
#X obj 29 93 tabwrite~ \$0-sample;
#X obj 91 70 s \$0-insamprate;
#X msg 285 383 \; read-sample ../sound/voice.wav;
#X obj 276 20 inlet;
#X obj 276 42 openpanel;
#X obj 276 67 s read-sample;
#X msg 446 31;
#X connect 1 0 11 0;
#X connect 2 0 6 0;
#X connect 2 1 13 0;
#X connect 3 0 12 0;
#X connect 3 0 14 0;
#X connect 5 0 24 0;
#X connect 6 0 8 0;
#X connect 6 1 7 0;
#X connect 7 0 8 1;
#X connect 8 0 9 0;
#X connect 9 0 3 0;
#X connect 10 0 13 0;
#X connect 11 0 2 0;
#X connect 11 1 10 0;
#X connect 14 0 15 0;
#X connect 15 0 16 0;
#X connect 17 0 14 1;
#X connect 18 0 22 0;
#X connect 19 0 18 0;
#X connect 20 0 21 0;
#X connect 20 0 19 0;
#X connect 21 0 23 0;
#X connect 25 0 26 0;
#X connect 26 0 27 0;
#X restore 456 221 pd insample;
#X floatatom 567 221 5 0 0 0 - #0-samp-msec -;
#X obj 456 180 bng 15 250 50 0 empty empty empty 0 -6 0 8 -262144 -1
-1;
#X text 475 179 <- record;
#X obj 508 128 tgl 15 0 empty empty empty 0 -6 0 8 -262144 -1 -1 0
1;
#X obj 70 148 s location;
#X obj 182 148 s speed;
#X obj 277 127 bng 15 250 50 0 empty empty empty 0 -6 0 8 -262144 -1
-1;
#X obj 277 149 s rewind;
#X msg 362 51 200;
#X msg 360 99 100;
#X msg 360 121 20;
#X text 401 76 contract;
#X text 405 121 expand;
#X obj 508 148 s lock;
#X text 505 34 detune;
#X text 70 71 location;
#X text 67 87 (stops;
#X text 72 102 motion);
#X text 180 89 motion in;
#X text 619 220 length \, msec;
#X floatatom 622 160 5 0 0 0 - window-size -;
#X msg 622 48 512;
#X msg 622 70 1024;
#X msg 622 92 2048;
#X msg 622 114 4096;
#X obj 622 136 s window-size;
#X text 622 15 window size \,;
#X text 622 30 samples;
#X obj 360 148 s auto;
#X obj 566 57 bng 15 250 50 0 no-detune empty empty 0 -6 0 8 -262144
-1 -1;
#X obj 550 201 bng 15 250 50 0 empty empty empty 0 -6 0 8 -262144 -1
-1;
#X text 481 199 file ->;
#X floatatom 291 62 5 0 0 0 - - -;
#X obj 439 445 vsl 15 128 10 8000 0 1 empty empty 0 -9 0 0 1.65798e+07
-262130 -1 -1 71 0;
#X floatatom 352 624 5 0 0 0 - - -;
#N canvas 315 115 986 609 fft 0;
#X obj 18 500 *~;
#X obj 291 455 *~;
#X obj 258 454 *~;
#X obj 356 456 *~;
#X obj 324 455 *~;
#X obj 324 477 +~;
#X obj 258 479 -~;
#X obj 560 383 *~;
#X obj 54 124 *~;
#X obj 22 124 *~;
#X obj 22 145 +~;
#X obj 325 82 *~;
#X obj 293 82 *~;
#X obj 608 312 *~;
#X obj 576 312 *~;
#X obj 93 63 *~;
#X obj 18 522 outlet~;
#X obj 18 475 *~;
#X obj 126 63 inlet~;
#X obj 93 84 rfft~;
#X obj 18 451 rifft~;
#X obj 576 334 rsqrt~;
#X obj 293 103 +~;
#X obj 484 383 *~;
#X obj 56 499 sig~ 0.0002;
#N canvas 367 321 699 396 decision 0;
#X obj 49 101 inlet~;
#X obj 50 341 outlet~;
#X obj 50 183 -~;
#X obj 50 226 clip~ 0 1;
#X obj 50 204 *~ 1e+20;
#X obj 196 98 inlet~;
#X text 137 213 stronger than;
#X text 139 228 old one;
#X obj 274 202 -~;
#X obj 288 177 lrshift~ 1;
#X obj 274 250 clip~ 0 1;
#X obj 274 228 *~ 1e+20;
#X obj 450 202 -~;
#X obj 450 250 clip~ 0 1;
#X obj 450 228 *~ 1e+20;
#X obj 464 177 lrshift~ -1;
#X obj 50 283 *~;
#X obj 50 312 *~;
#X text 135 199 1 if new signal;
#X text 55 73 new;
#X text 203 70 old;
#X text 51 12 Choose whether to replace the "lod" signal with the "new"
one. The "new" one must be stronger than the old one and also must
be stronger than its two neighboring channels;
#X text 267 283 1 if we're louder than neighbor;
#X connect 0 0 2 0;
#X connect 0 0 9 0;
#X connect 0 0 8 0;
#X connect 0 0 12 0;
#X connect 0 0 15 0;
#X connect 2 0 4 0;
#X connect 3 0 16 0;
#X connect 4 0 3 0;
#X connect 5 0 2 1;
#X connect 8 0 11 0;
#X connect 9 0 8 1;
#X connect 10 0 16 1;
#X connect 11 0 10 0;
#X connect 12 0 14 0;
#X connect 13 0 17 1;
#X connect 14 0 13 0;
#X connect 15 0 12 1;
#X connect 16 0 17 0;
#X connect 17 0 1 0;
#X restore 23 172 pd decision;
#X obj 576 356 *~;
#N canvas 276 481 755 363 divide-by-prev 0;
#X obj 283 99 inlet~;
#X obj 385 101 inlet~;
#X obj 284 249 outlet~;
#X obj 386 249 outlet~;
#X obj 107 251 outlet~;
#X obj 208 253 outlet~;
#X obj 250 180 *~;
#X obj 217 180 *~;
#X obj 182 181 *~;
#X obj 149 181 *~;
#X obj 149 203 +~;
#X obj 217 202 -~;
#X obj 92 49 tabreceive~ \$0-last-real;
#X obj 190 72 tabreceive~ \$0-last-imag;
#X connect 0 0 2 0;
#X connect 0 0 9 0;
#X connect 0 0 6 0;
#X connect 1 0 3 0;
#X connect 1 0 8 0;
#X connect 1 0 7 0;
#X connect 6 0 11 1;
#X connect 7 0 11 0;
#X connect 8 0 10 1;
#X connect 9 0 10 0;
#X connect 10 0 4 0;
#X connect 11 0 5 0;
#X connect 12 0 9 1;
#X connect 12 0 7 1;
#X connect 13 0 8 1;
#X connect 13 0 6 1;
#X restore 603 192 pd divide-by-prev;
#N canvas 650 183 602 327 switch 0;
#X obj 19 163 inlet~;
#X obj 107 99 inlet~;
#X obj 169 100 inlet~;
#X obj 273 97 inlet~;
#X obj 333 97 inlet~;
#X obj 367 185 -~;
#X obj 338 231 +~;
#X obj 372 229 *~;
#X obj 250 182 -~;
#X obj 220 228 +~;
#X obj 254 228 *~;
#X obj 219 278 outlet~;
#X obj 338 274 outlet~;
#X text 46 28 switch between two pairs of inputs. If first inlet is
one \, take the left-hand pair \, otherwise the right-hand one.;
#X text 15 140 switch;
#X text 92 76 pass this if one;
#X text 269 77 pass this if zero;
#X connect 0 0 10 1;
#X connect 0 0 7 1;
#X connect 1 0 8 0;
#X connect 2 0 5 0;
#X connect 3 0 9 0;
#X connect 3 0 8 1;
#X connect 4 0 6 0;
#X connect 4 0 5 1;
#X connect 5 0 7 0;
#X connect 6 0 12 0;
#X connect 7 0 6 1;
#X connect 8 0 10 0;
#X connect 9 0 11 0;
#X connect 10 0 9 1;
#X restore 327 275 pd switch;
#N canvas 650 183 602 327 switch 0;
#X obj 19 163 inlet~;
#X obj 107 99 inlet~;
#X obj 169 100 inlet~;
#X obj 273 97 inlet~;
#X obj 333 97 inlet~;
#X obj 367 185 -~;
#X obj 338 231 +~;
#X obj 372 229 *~;
#X obj 250 182 -~;
#X obj 220 228 +~;
#X obj 254 228 *~;
#X obj 219 278 outlet~;
#X obj 338 274 outlet~;
#X text 46 28 switch between two pairs of inputs. If first inlet is
one \, take the left-hand pair \, otherwise the right-hand one.;
#X text 15 140 switch;
#X text 92 76 pass this if one;
#X text 269 77 pass this if zero;
#X connect 0 0 10 1;
#X connect 0 0 7 1;
#X connect 1 0 8 0;
#X connect 2 0 5 0;
#X connect 3 0 9 0;
#X connect 3 0 8 1;
#X connect 4 0 6 0;
#X connect 4 0 5 1;
#X connect 5 0 7 0;
#X connect 6 0 12 0;
#X connect 7 0 6 1;
#X connect 8 0 10 0;
#X connect 9 0 11 0;
#X connect 10 0 9 1;
#X restore 484 266 pd switch;
#X obj 655 270 r revtime;
#X obj 54 476 tabreceive~ \$0-hann;
#X obj 94 35 tabreceive~ \$0-hann;
#X obj 505 112 tabreceive~ \$0-inc-real;
#X obj 587 134 tabreceive~ \$0-inc-imag;
#X obj 752 220 tabsend~ \$0-last-imag;
#X obj 702 243 tabsend~ \$0-last-real;
#X obj 559 426 tabsend~ \$0-inc-imag;
#X obj 484 449 tabsend~ \$0-inc-real;
#X msg 665 293 set \$1;
#X obj 665 317 s revtime-set;
#X obj 800 483 loadbang;
#X msg 800 509 \; pd dsp 1 \; window-size 4096 \; revtime 20;
#X obj 800 411 r window-size;
#X msg 800 433 set \$1 4;
#X obj 800 455 block~;
#X obj 655 341 expr 1 - 0.2/max(0.2 \, $f1);
#X text 20 206 choose whether to;
#X text 18 224 punch in new (amplitude \,;
#X text 16 243 increment) pair;
#X obj 367 26 tabreceive~ \$0-amp-real;
#X obj 443 50 tabreceive~ \$0-amp-imag;
#X obj 325 537 tabsend~ \$0-amp-imag;
#X obj 258 560 tabsend~ \$0-amp-real;
#X text 361 6 previous output amplitude \, encoding both magnitude
and phase;
#X text 453 87 previous phase increment (unit-magnitude complex number)
;
#X obj 506 134 +~ 1e-15;
#X obj 366 50 +~ 1e-15;
#X text 363 482 propagate amplitudes by multiplying in the;
#X text 361 499 increments \, which advance the phase and drop;
#X text 365 514 magnitude according to revtime.;
#X text 608 370 normalize increments between 0 and;
#X text 606 388 1 according to revtime.;
#X text 78 453 IFFT and output;
#X connect 0 0 16 0;
#X connect 1 0 6 1;
#X connect 2 0 6 0;
#X connect 3 0 5 1;
#X connect 4 0 5 0;
#X connect 5 0 52 0;
#X connect 6 0 53 0;
#X connect 7 0 1 0;
#X connect 7 0 3 0;
#X connect 7 0 37 0;
#X connect 8 0 10 1;
#X connect 9 0 10 0;
#X connect 10 0 25 0;
#X connect 11 0 22 1;
#X connect 12 0 22 0;
#X connect 13 0 21 0;
#X connect 14 0 21 0;
#X connect 15 0 19 0;
#X connect 17 0 0 0;
#X connect 18 0 15 1;
#X connect 19 0 9 0;
#X connect 19 0 9 1;
#X connect 19 0 27 0;
#X connect 19 0 28 1;
#X connect 19 1 8 0;
#X connect 19 1 8 1;
#X connect 19 1 27 1;
#X connect 19 1 28 2;
#X connect 20 0 17 0;
#X connect 21 0 26 0;
#X connect 22 0 25 1;
#X connect 23 0 2 0;
#X connect 23 0 4 0;
#X connect 23 0 38 0;
#X connect 24 0 0 1;
#X connect 25 0 28 0;
#X connect 25 0 29 0;
#X connect 26 0 23 1;
#X connect 26 0 7 1;
#X connect 27 0 29 1;
#X connect 27 1 29 2;
#X connect 27 2 36 0;
#X connect 27 3 35 0;
#X connect 28 0 20 0;
#X connect 28 0 3 1;
#X connect 28 0 2 1;
#X connect 28 1 20 1;
#X connect 28 1 1 1;
#X connect 28 1 4 1;
#X connect 29 0 14 0;
#X connect 29 0 14 1;
#X connect 29 0 23 0;
#X connect 29 1 13 0;
#X connect 29 1 13 1;
#X connect 29 1 7 0;
#X connect 30 0 39 0;
#X connect 30 0 46 0;
#X connect 31 0 17 1;
#X connect 32 0 15 0;
#X connect 33 0 56 0;
#X connect 34 0 29 4;
#X connect 39 0 40 0;
#X connect 41 0 42 0;
#X connect 43 0 44 0;
#X connect 44 0 45 0;
#X connect 46 0 26 1;
#X connect 50 0 57 0;
#X connect 51 0 11 0;
#X connect 51 0 11 1;
#X connect 51 0 28 4;
#X connect 56 0 29 3;
#X connect 57 0 12 0;
#X connect 57 0 12 1;
#X connect 57 0 28 3;
#X restore 76 388 pd fft;
#X floatatom 511 739 0 0 1000 0 - revtime-set -;
#X obj 511 763 s revtime;
#N canvas 52 71 774 520 tables 0;
#N canvas 0 22 450 300 (subpatch) 0;
#X array \$0-last-real 2048 float 0;
#X coords 0 500 2048 -500 200 150 1;
#X restore 103 15 graph;
#N canvas 0 22 450 300 (subpatch) 0;
#X array \$0-last-imag 2048 float 0;
#X coords 0 500 2048 500 200 150 1;
#X restore 497 6 graph;
#N canvas 0 22 450 300 (subpatch) 0;
#X array \$0-amp-real 2048 float 0;
#X coords 0 500 2048 -500 200 150 1;
#X restore 105 185 graph;
#N canvas 0 22 450 300 (subpatch) 0;
#X array \$0-amp-imag 2048 float 0;
#X coords 0 500 2048 -500 200 150 1;
#X restore 501 178 graph;
#N canvas 0 22 450 300 (subpatch) 0;
#X array \$0-inc-real 2048 float 0;
#X coords 0 1 2048 -1 200 150 1;
#X restore 105 357 graph;
#N canvas 0 22 450 300 (subpatch) 0;
#X array \$0-inc-imag 2048 float 0;
#X coords 0 1 2048 -1 200 150 1;
#X restore 503 342 graph;
#X restore -58 764 pd tables;
#N canvas 21 579 709 444 eq 0;
#X obj 26 25 inlet~;
#X obj 26 78 outlet~;
#X obj 611 189 loadbang;
#N canvas 0 22 774 606 rgb 0;
#X obj 296 207 * 256;
#X obj 344 180 * 256;
#X obj 346 201 * 256;
#X obj 312 270 +;
#X obj 298 228 t b f;
#X obj 312 293 +;
#X obj 346 223 t b f;
#X obj 252 186 int;
#X msg 263 68 0;
#X obj 252 163 * -1;
#X obj 296 162 * -1;
#X obj 343 158 * -1;
#X obj 103 123 vsl 10 40 1 255 0 0 ertteetyeyterttretretrrtrtrtrtrt
hhghghghghghghgggggh empty 0 -8 0 10 -4160 -262144 -1 0 0;
#X obj 115 123 vsl 10 40 1 255 0 0 ertteetyeyterttretretrrtrtrtrtrt
hhghghghghghghgggggh empty 0 -8 0 10 -4034 -262144 -1 0 0;
#X obj 127 123 vsl 10 40 1 255 0 0 ertteetyeyterttretretrrtrtrtrtrt
hhghghghghghghgggggh empty 0 -8 0 10 -258113 -262144 -1 0 0;
#X obj 252 144 int;
#X obj 293 142 int;
#X obj 342 138 int;
#N canvas 0 22 474 324 list-enumerate 0;
#X obj 107 63 t a b;
#N canvas 473 338 454 304 count 0;
#X obj 131 154 f 0;
#X obj 156 153 + 1;
#X msg 147 133 0;
#X obj 131 183 outlet;
#X obj 131 59 inlet;
#X obj 131 96 b;
#X obj 178 61 inlet;
#X obj 178 98 b;
#X connect 0 0 1 0;
#X connect 0 0 3 0;
#X connect 1 0 0 1;
#X connect 2 0 0 1;
#X connect 4 0 5 0;
#X connect 5 0 0 0;
#X connect 6 0 7 0;
#X connect 7 0 2 0;
#X restore 186 155 pd count;
#X obj 107 113 t a b;
#X obj 107 33 inlet;
#X obj 107 181 list prepend;
#X obj 126 264 outlet;
#X obj 184 264 outlet;
#N canvas 0 22 537 411 drip 0;
#X obj 64 206 list split 1;
#X obj 64 123 until;
#X obj 64 181 list append;
#X obj 194 206 bang;
#X text 146 90 First store list \, then start the loop;
#X text 163 118 "until" bangs its output until told to stop by a "bang"
to its right inlet.;
#X text 182 160 Store the remaining list.;
#X text 239 205 third outlet of "split" tells us to stop.;
#X obj 64 243 outlet;
#X obj 64 57 inlet;
#X text 237 44 From list-help.pd;
#X obj 143 243 outlet;
#X obj 64 86 t b a;
#X connect 0 0 8 0;
#X connect 0 1 2 1;
#X connect 0 2 3 0;
#X connect 0 2 11 0;
#X connect 1 0 2 0;
#X connect 2 0 0 0;
#X connect 3 0 1 1;
#X connect 9 0 12 0;
#X connect 12 0 1 0;
#X connect 12 1 2 1;
#X restore 110 88 pd drip;
#X obj 68 155 list prepend color;
#X msg 69 135 \$1 0 28;
#X connect 0 0 7 0;
#X connect 0 1 1 1;
#X connect 1 0 4 1;
#X connect 2 0 9 0;
#X connect 2 1 1 0;
#X connect 3 0 0 0;
#X connect 4 0 5 0;
#X connect 7 0 2 0;
#X connect 7 1 6 0;
#X connect 8 0 4 0;
#X connect 9 0 8 0;
#X restore 294 389 pd list-enumerate;
#X obj 299 419 s \$0-controls;
#X msg 306 356 \$1 \$1 \$1 \$1 \$1 \$1 \$1 \$1 \$1 \$1 \$1 \$1 \$1
\$1 \$1 \$1;
#X connect 0 0 4 0;
#X connect 1 0 2 0;
#X connect 2 0 6 0;
#X connect 3 0 5 0;
#X connect 4 0 3 0;
#X connect 4 1 3 1;
#X connect 5 0 20 0;
#X connect 6 0 3 0;
#X connect 6 1 5 1;
#X connect 7 0 3 0;
#X connect 8 0 12 0;
#X connect 8 0 13 0;
#X connect 8 0 14 0;
#X connect 9 0 7 0;
#X connect 10 0 0 0;
#X connect 11 0 1 0;
#X connect 12 0 15 0;
#X connect 13 0 16 0;
#X connect 14 0 17 0;
#X connect 15 0 9 0;
#X connect 16 0 10 0;
#X connect 17 0 11 0;
#X connect 18 0 19 0;
#X connect 20 0 18 0;
#X coords 0 -1 1 1 40 70 1 100 100;
#X restore 316 248 pd rgb;
#X obj 668 25 inlet modulation-add;
#X obj 796 25 inlet modulation-multiply;
#X obj 490 27 r \$0-values;
#X obj 669 45 list prepend add;
#X obj 797 46 list prepend mul;
#X obj 379 32 inlet controls;
#X obj 378 66 s \$0-controls;
#N canvas 47 74 1068 587 modulate.oOo..oOo..oOo.. 0;
#X obj 101 271 +;
#X obj 101 250 t b f;
#X obj 82 82 route 0 1 2 3 4 5 6 7;
#X obj 244 216 route 0 1 2 3 4 5 6 7;
#X obj 138 271 +;
#X obj 138 250 t b f;
#X obj 175 271 +;
#X obj 175 250 t b f;
#X obj 212 271 +;
#X obj 212 250 t b f;
#X obj 248 271 +;
#X obj 248 250 t b f;
#X obj 286 271 +;
#X obj 286 250 t b f;
#X obj 323 271 +;
#X obj 323 250 t b f;
#X obj 360 271 +;
#X obj 360 250 t b f;
#X obj 61 8 inlet;
#X obj 99 490 outlet;
#X obj 155 486 outlet;
#X obj 208 489 outlet;
#X obj 264 489 outlet;
#X obj 318 486 outlet;
#X obj 370 486 outlet;
#X obj 425 485 outlet;
#X obj 492 484 outlet;
#X obj 78 409 clip 0 1;
#X obj 132 411 clip 0 1;
#X obj 186 412 clip 0 1;
#X obj 240 414 clip 0 1;
#X obj 294 416 clip 0 1;
#X obj 348 418 clip 0 1;
#X obj 402 419 clip 0 1;
#X obj 456 421 clip 0 1;
#X obj 418 177 route add mul;
#X obj 117 332 t b f;
#X obj 156 335 t b f;
#X obj 193 335 t b f;
#X obj 230 335 t b f;
#X obj 266 335 t b f;
#X obj 304 335 t b f;
#X obj 341 335 t b f;
#X obj 378 335 t b f;
#X obj 118 356 * 1;
#X obj 156 356 * 1;
#X obj 193 356 * 1;
#X obj 231 355 * 1;
#X obj 266 356 * 1;
#X obj 304 356 * 1;
#X obj 341 356 * 1;
#X obj 378 356 * 1;
#X obj 397 275 route 0 1 2 3 4 5 6 7;
#X obj 550 262 +;
#X obj 550 241 t b f;
#X obj 587 262 +;
#X obj 587 241 t b f;
#X obj 624 262 +;
#X obj 624 241 t b f;
#X obj 661 262 +;
#X obj 661 241 t b f;
#X obj 697 262 +;
#X obj 697 241 t b f;
#X obj 735 262 +;
#X obj 735 241 t b f;
#X obj 772 262 +;
#X obj 772 241 t b f;
#X obj 809 262 +;
#X obj 809 241 t b f;
#X obj 548 481 outlet;
#X obj 604 477 outlet;
#X obj 657 480 outlet;
#X obj 713 480 outlet;
#X obj 767 477 outlet;
#X obj 819 477 outlet;
#X obj 874 476 outlet;
#X obj 941 475 outlet;
#X obj 527 400 clip 0 1;
#X obj 581 402 clip 0 1;
#X obj 635 403 clip 0 1;
#X obj 689 405 clip 0 1;
#X obj 743 407 clip 0 1;
#X obj 797 409 clip 0 1;
#X obj 851 410 clip 0 1;
#X obj 905 412 clip 0 1;
#X obj 867 168 route add mul;
#X obj 566 323 t b f;
#X obj 605 326 t b f;
#X obj 642 326 t b f;
#X obj 679 326 t b f;
#X obj 715 326 t b f;
#X obj 753 326 t b f;
#X obj 790 326 t b f;
#X obj 827 326 t b f;
#X obj 567 347 * 1;
#X obj 605 347 * 1;
#X obj 642 347 * 1;
#X obj 680 346 * 1;
#X obj 715 347 * 1;
#X obj 753 347 * 1;
#X obj 790 347 * 1;
#X obj 827 347 * 1;
#X obj 693 206 route 8 9 10 11 12 13 14 5;
#X obj 846 266 route 8 9 10 11 12 13 14 15;
#X msg 79 110 \$1 20;
#X msg 92 130 \$1 20;
#X msg 120 111 \$1 20;
#X msg 133 131 \$1 20;
#X msg 161 110 \$1 20;
#X msg 174 130 \$1 20;
#X msg 202 111 \$1 20;
#X msg 215 131 \$1 20;
#X obj 92 171 line 0 1;
#X obj 109 194 line 0 1;
#X obj 149 166 line 0 1;
#X obj 166 189 line 0 1;
#X obj 207 163 line 0 1;
#X obj 224 186 line 0 1;
#X obj 264 158 line 0 1;
#X obj 281 181 line 0 1;
#X msg 501 51 \$1 20;
#X msg 514 71 \$1 20;
#X msg 542 52 \$1 20;
#X msg 555 72 \$1 20;
#X msg 583 51 \$1 20;
#X msg 596 71 \$1 20;
#X msg 624 52 \$1 20;
#X msg 637 72 \$1 20;
#X obj 512 111 line 0 1;
#X obj 571 107 line 0 1;
#X obj 588 130 line 0 1;
#X obj 629 104 line 0 1;
#X obj 646 127 line 0 1;
#X obj 686 99 line 0 1;
#X obj 703 122 line 0 1;
#X obj 504 22 route 8 9 10 11 12 13 14 15;
#X obj 530 132 line 0 1;
#X obj 845 94 list trim;
#X obj 849 72 inlet;
#X connect 0 0 44 0;
#X connect 1 0 0 0;
#X connect 1 1 0 1;
#X connect 2 0 104 0;
#X connect 2 1 105 0;
#X connect 2 2 106 0;
#X connect 2 3 107 0;
#X connect 2 4 108 0;
#X connect 2 5 109 0;
#X connect 2 6 110 0;
#X connect 2 7 111 0;
#X connect 3 0 0 0;
#X connect 3 1 4 0;
#X connect 3 2 6 0;
#X connect 3 3 8 0;
#X connect 3 4 10 0;
#X connect 3 5 12 0;
#X connect 3 6 14 0;
#X connect 3 7 16 0;
#X connect 4 0 45 0;
#X connect 5 0 4 0;
#X connect 5 1 4 1;
#X connect 6 0 46 0;
#X connect 7 0 6 0;
#X connect 7 1 6 1;
#X connect 8 0 47 0;
#X connect 9 0 8 0;
#X connect 9 1 8 1;
#X connect 10 0 48 0;
#X connect 11 0 10 0;
#X connect 11 1 10 1;
#X connect 12 0 49 0;
#X connect 13 0 12 0;
#X connect 13 1 12 1;
#X connect 14 0 50 0;
#X connect 15 0 14 0;
#X connect 15 1 14 1;
#X connect 16 0 51 0;
#X connect 17 0 16 0;
#X connect 17 1 16 1;
#X connect 18 0 2 0;
#X connect 18 0 135 0;
#X connect 27 0 19 0;
#X connect 28 0 20 0;
#X connect 29 0 21 0;
#X connect 30 0 22 0;
#X connect 31 0 23 0;
#X connect 32 0 24 0;
#X connect 33 0 25 0;
#X connect 34 0 26 0;
#X connect 35 0 3 0;
#X connect 35 1 52 0;
#X connect 36 0 44 0;
#X connect 36 1 44 1;
#X connect 37 0 45 0;
#X connect 37 1 45 1;
#X connect 38 0 46 0;
#X connect 38 1 46 1;
#X connect 39 0 47 0;
#X connect 39 1 47 1;
#X connect 40 0 48 0;
#X connect 40 1 48 1;
#X connect 41 0 49 0;
#X connect 41 1 49 1;
#X connect 42 0 50 0;
#X connect 42 1 50 1;
#X connect 43 0 51 0;
#X connect 43 1 51 1;
#X connect 44 0 27 0;
#X connect 45 0 28 0;
#X connect 46 0 29 0;
#X connect 47 0 30 0;
#X connect 48 0 31 0;
#X connect 49 0 32 0;
#X connect 50 0 33 0;
#X connect 51 0 34 0;
#X connect 52 0 36 0;
#X connect 52 1 37 0;
#X connect 52 2 38 0;
#X connect 52 3 39 0;
#X connect 52 4 40 0;
#X connect 52 5 41 0;
#X connect 52 6 42 0;
#X connect 52 7 43 0;
#X connect 53 0 94 0;
#X connect 54 0 53 0;
#X connect 54 1 53 1;
#X connect 55 0 95 0;
#X connect 56 0 55 0;
#X connect 56 1 55 1;
#X connect 57 0 96 0;
#X connect 58 0 57 0;
#X connect 58 1 57 1;
#X connect 59 0 97 0;
#X connect 60 0 59 0;
#X connect 60 1 59 1;
#X connect 61 0 98 0;
#X connect 62 0 61 0;
#X connect 62 1 61 1;
#X connect 63 0 99 0;
#X connect 64 0 63 0;
#X connect 64 1 63 1;
#X connect 65 0 100 0;
#X connect 66 0 65 0;
#X connect 66 1 65 1;
#X connect 67 0 101 0;
#X connect 68 0 67 0;
#X connect 68 1 67 1;
#X connect 77 0 69 0;
#X connect 78 0 70 0;
#X connect 79 0 71 0;
#X connect 80 0 72 0;
#X connect 81 0 73 0;
#X connect 82 0 74 0;
#X connect 83 0 75 0;
#X connect 84 0 76 0;
#X connect 85 0 102 0;
#X connect 85 1 103 0;
#X connect 86 0 94 0;
#X connect 86 1 94 1;
#X connect 87 0 95 0;
#X connect 87 1 95 1;
#X connect 88 0 96 0;
#X connect 88 1 96 1;
#X connect 89 0 97 0;
#X connect 89 1 97 1;
#X connect 90 0 98 0;
#X connect 90 1 98 1;
#X connect 91 0 99 0;
#X connect 91 1 99 1;
#X connect 92 0 100 0;
#X connect 92 1 100 1;
#X connect 93 0 101 0;
#X connect 93 1 101 1;
#X connect 94 0 77 0;
#X connect 95 0 78 0;
#X connect 96 0 79 0;
#X connect 97 0 80 0;
#X connect 98 0 81 0;
#X connect 99 0 82 0;
#X connect 100 0 83 0;
#X connect 101 0 84 0;
#X connect 102 0 53 0;
#X connect 102 1 55 0;
#X connect 102 2 57 0;
#X connect 102 3 59 0;
#X connect 102 4 61 0;
#X connect 102 5 63 0;
#X connect 102 6 65 0;
#X connect 102 7 67 0;
#X connect 103 0 86 0;
#X connect 103 1 87 0;
#X connect 103 2 88 0;
#X connect 103 3 89 0;
#X connect 103 4 90 0;
#X connect 103 5 91 0;
#X connect 103 6 92 0;
#X connect 103 7 93 0;
#X connect 104 0 112 0;
#X connect 105 0 113 0;
#X connect 106 0 114 0;
#X connect 107 0 115 0;
#X connect 108 0 116 0;
#X connect 109 0 117 0;
#X connect 110 0 118 0;
#X connect 111 0 119 0;
#X connect 112 0 1 0;
#X connect 113 0 5 0;
#X connect 114 0 7 0;
#X connect 115 0 9 0;
#X connect 116 0 11 0;
#X connect 117 0 13 0;
#X connect 118 0 15 0;
#X connect 119 0 17 0;
#X connect 120 0 128 0;
#X connect 121 0 136 0;
#X connect 122 0 129 0;
#X connect 123 0 130 0;
#X connect 124 0 131 0;
#X connect 125 0 132 0;
#X connect 126 0 133 0;
#X connect 127 0 134 0;
#X connect 128 0 54 0;
#X connect 129 0 58 0;
#X connect 130 0 60 0;
#X connect 131 0 62 0;
#X connect 132 0 64 0;
#X connect 133 0 66 0;
#X connect 134 0 68 0;
#X connect 135 0 120 0;
#X connect 135 1 121 0;
#X connect 135 2 122 0;
#X connect 135 3 123 0;
#X connect 135 4 124 0;
#X connect 135 5 125 0;
#X connect 135 6 126 0;
#X connect 135 7 127 0;
#X connect 136 0 56 0;
#X connect 137 0 35 0;
#X connect 137 0 85 0;
#X connect 138 0 137 0;
#X restore 492 87 pd modulate.oOo..oOo..oOo..;
#N canvas 294 40 539 663 workings 0;
#X obj 80 36 inlet~ signal;
#X obj 225 580 outlet~;
#X obj 306 454 r \$0-gain;
#N canvas 0 22 462 312 rh_scalelog 0;
#X obj 20 155 exp;
#X obj 20 107 *;
#X obj 20 130 +;
#X obj 98 87 log;
#X obj 194 84 log;
#X obj 123 123 t b f;
#X obj 123 145 -;
#X obj 20 183 outlet;
#X obj 20 19 inlet;
#X obj 98 23 inlet;
#X obj 194 24 inlet;
#X connect 0 0 7 0;
#X connect 1 0 2 0;
#X connect 2 0 0 0;
#X connect 3 0 2 1;
#X connect 3 0 5 0;
#X connect 4 0 6 0;
#X connect 5 0 6 0;
#X connect 5 1 6 1;
#X connect 6 0 1 1;
#X connect 8 0 1 0;
#X connect 9 0 3 0;
#X connect 10 0 4 0;
#X restore 305 542 pd rh_scalelog;
#X msg 352 518 0.1;
#X msg 398 518 10;
#X obj 225 553 *~;
#N canvas 0 22 825 716 using 0;
#X obj 66 25 inlet~;
#X obj 66 80 biquad~ 1.86972 -0.872325 0.000650245 0.00130049 0.000650245
;
#X text 185 59 lo x3;
#X obj 66 100 biquad~ 1.86972 -0.872325 0.000650245 0.00130049 0.000650245
;
#X obj 66 120 biquad~ 1.86972 -0.872325 0.000650245 0.00130049 0.000650245
;
#X obj 194 172 biquad~ 1.36591 -0.385279 0.307361 0 -0.307361;
#X text 329 152 mid x3;
#X obj 194 192 biquad~ 1.36591 -0.385279 0.307361 0 -0.307361;
#X obj 194 212 biquad~ 1.36591 -0.385279 0.307361 0 -0.307361;
#X obj 336 263 biquad~ 1.63386 -0.729864 0.840931 -1.68186 0.840931
;
#X text 476 241 hi x2;
#X obj 336 283 biquad~ 1.63386 -0.729864 0.840931 -1.68186 0.840931
;
#N canvas 0 22 454 304 scalelog 0;
#X obj 20 155 exp;
#X obj 20 107 *;
#X obj 20 130 +;
#X obj 98 87 log;
#X obj 194 84 log;
#X obj 123 123 t b f;
#X obj 123 145 -;
#X obj 20 183 outlet;
#X obj 20 19 inlet;
#X obj 100 51 inlet;
#X obj 205 47 inlet;
#X connect 0 0 7 0;
#X connect 1 0 2 0;
#X connect 2 0 0 0;
#X connect 3 0 2 1;
#X connect 3 0 5 0;
#X connect 4 0 6 0;
#X connect 5 0 6 0;
#X connect 5 1 6 1;
#X connect 6 0 1 1;
#X connect 8 0 1 0;
#X connect 9 0 3 0;
#X connect 10 0 4 0;
#X restore 409 404 pd scalelog;
#X obj 334 369 *~ 1;
#X obj 192 369 *~ 1;
#X obj 67 369 *~ 1;
#X obj 402 320 r \$0-high;
#X msg 433 369 0.2;
#N canvas 0 22 454 304 scalelog 0;
#X obj 20 155 exp;
#X obj 20 107 *;
#X obj 20 130 +;
#X obj 98 87 log;
#X obj 194 84 log;
#X obj 123 123 t b f;
#X obj 123 145 -;
#X obj 20 183 outlet;
#X obj 20 19 inlet;
#X obj 100 51 inlet;
#X obj 205 47 inlet;
#X connect 0 0 7 0;
#X connect 1 0 2 0;
#X connect 2 0 0 0;
#X connect 3 0 2 1;
#X connect 3 0 5 0;
#X connect 4 0 6 0;
#X connect 5 0 6 0;
#X connect 5 1 6 1;
#X connect 6 0 1 1;
#X connect 8 0 1 0;
#X connect 9 0 3 0;
#X connect 10 0 4 0;
#X restore 419 516 pd scalelog;
#X msg 443 481 0.2;
#X obj 412 432 r \$0-mid;
#N canvas 0 22 454 304 scalelog 0;
#X obj 20 155 exp;
#X obj 20 107 *;
#X obj 20 130 +;
#X obj 98 87 log;
#X obj 194 84 log;
#X obj 123 123 t b f;
#X obj 123 145 -;
#X obj 20 183 outlet;
#X obj 20 19 inlet;
#X obj 100 51 inlet;
#X obj 205 47 inlet;
#X connect 0 0 7 0;
#X connect 1 0 2 0;
#X connect 2 0 0 0;
#X connect 3 0 2 1;
#X connect 3 0 5 0;
#X connect 4 0 6 0;
#X connect 5 0 6 0;
#X connect 5 1 6 1;
#X connect 6 0 1 1;
#X connect 8 0 1 0;
#X connect 9 0 3 0;
#X connect 10 0 4 0;
#X restore 429 626 pd scalelog;
#X msg 453 591 0.2;
#X obj 422 542 r \$0-low;
#X obj 119 472 outlet~;
#X obj 355 346 - 0.2;
#X obj 215 344 - 0.2;
#X obj 88 344 - 0.2;
#X msg 486 591 7.5;
#X msg 476 480 7.5;
#X msg 466 369 7.5;
#X obj 433 345 r \$0-loadbang;
#X obj 443 458 r \$0-loadbang;
#X obj 453 567 r \$0-loadbang;
#X connect 0 0 1 0;
#X connect 0 0 5 0;
#X connect 0 0 9 0;
#X connect 1 0 3 0;
#X connect 3 0 4 0;
#X connect 4 0 15 0;
#X connect 5 0 7 0;
#X connect 7 0 8 0;
#X connect 8 0 14 0;
#X connect 9 0 11 0;
#X connect 11 0 13 0;
#X connect 12 0 25 0;
#X connect 13 0 24 0;
#X connect 14 0 24 0;
#X connect 15 0 24 0;
#X connect 16 0 12 0;
#X connect 17 0 12 1;
#X connect 18 0 26 0;
#X connect 19 0 18 1;
#X connect 20 0 18 0;
#X connect 21 0 27 0;
#X connect 22 0 21 1;
#X connect 23 0 21 0;
#X connect 25 0 13 1;
#X connect 26 0 14 1;
#X connect 27 0 15 1;
#X connect 28 0 21 2;
#X connect 29 0 18 2;
#X connect 30 0 12 2;
#X connect 31 0 17 0;
#X connect 31 0 30 0;
#X connect 32 0 19 0;
#X connect 32 0 29 0;
#X connect 33 0 22 0;
#X connect 33 0 28 0;
#X restore 89 174 pd using raw biquad~ objects;
#X obj 352 490 r \$0-loadbang;
#X connect 0 0 7 0;
#X connect 2 0 3 0;
#X connect 3 0 6 1;
#X connect 4 0 3 1;
#X connect 5 0 3 2;
#X connect 6 0 1 0;
#X connect 7 0 6 0;
#X connect 8 0 4 0;
#X connect 8 0 5 0;
#X restore 26 51 pd workings;
#X msg 411 254 low mid high gain;
#X msg 613 251 0.499 0.499 0.499 0.499;
#X obj 458 161 s \$0-low;
#X obj 516 164 s \$0-mid;
#X obj 577 164 s \$0-high;
#X obj 644 161 s \$0-gain;
#X obj 136 146 hsl 60 10 0 1 0 0 \$0-a \$0-ra low -2 -7 0 10 -2624
-262144 -355 3186 1;
#X obj 135 171 hsl 60 10 0 1 0 0 \$0-c \$0-rc high -2 -7 0 10 -2624
-262144 -355 4248 1;
#X obj 222 148 hsl 60 10 0 1 0 0 \$0-b \$0-rb mid -2 -7 0 10 -2624
-262144 -355 4602 1;
#X obj 222 171 hsl 60 10 0 1 0 0 \$0-d \$0-rd gain -2 -7 0 10 -2624
-262144 -355 2944 1;
#X obj 115 145 cnv 12 15 13 empty empty 0 1 6 0 12 -33289 -262144 0
;
#X obj 115 168 cnv 12 15 13 empty empty 2 1 6 0 12 -33289 -262144 0
;
#X obj 202 145 cnv 12 15 13 empty empty 1 1 6 0 12 -33289 -262144 0
;
#X obj 202 168 cnv 12 15 13 empty empty 3 1 6 0 12 -33289 -262144 0
;
#X obj 125 217 cnv 15 110 20 empty empty empty 20 12 0 14 -24198 -66577
0;
#X text 750 356 derek at umatic.nl;
#X text 745 343 original patch by:;
#N canvas 706 311 833 682 list-functions 0;
#N canvas 0 22 462 312 list-enumerate 0;
#X obj 107 63 t a b;
#N canvas 473 338 454 304 count 0;
#X obj 131 154 f 0;
#X obj 156 153 + 1;
#X msg 147 133 0;
#X obj 131 183 outlet;
#X obj 131 59 inlet;
#X obj 131 96 b;
#X obj 178 61 inlet;
#X obj 178 98 b;
#X connect 0 0 1 0;
#X connect 0 0 3 0;
#X connect 1 0 0 1;
#X connect 2 0 0 1;
#X connect 4 0 5 0;
#X connect 5 0 0 0;
#X connect 6 0 7 0;
#X connect 7 0 2 0;
#X restore 186 155 pd count;
#X obj 107 113 t a b;
#X obj 107 33 inlet;
#X obj 107 181 list prepend;
#X obj 107 209 outlet;
#X obj 165 209 outlet;
#N canvas 0 22 537 411 drip 0;
#X obj 64 206 list split 1;
#X obj 64 123 until;
#X obj 64 181 list append;
#X obj 194 206 bang;
#X text 146 90 First store list \, then start the loop;
#X text 163 118 "until" bangs its output until told to stop by a "bang"
to its right inlet.;
#X text 182 160 Store the remaining list.;
#X text 239 205 third outlet of "split" tells us to stop.;
#X obj 64 243 outlet;
#X obj 64 57 inlet;
#X text 237 44 From list-help.pd;
#X obj 143 243 outlet;
#X obj 64 86 t b a;
#X connect 0 0 8 0;
#X connect 0 1 2 1;
#X connect 0 2 3 0;
#X connect 0 2 11 0;
#X connect 1 0 2 0;
#X connect 2 0 0 0;
#X connect 3 0 1 1;
#X connect 9 0 12 0;
#X connect 12 0 1 0;
#X connect 12 1 2 1;
#X restore 110 88 pd drip;
#X obj 76 154 list prepend label;
#X connect 0 0 7 0;
#X connect 0 1 1 1;
#X connect 1 0 4 1;
#X connect 2 0 8 0;
#X connect 2 1 1 0;
#X connect 3 0 0 0;
#X connect 4 0 5 0;
#X connect 7 0 2 0;
#X connect 7 1 6 0;
#X connect 8 0 4 0;
#X restore 37 184 pd list-enumerate;
#X obj 37 230 s \$0-controls;
#N canvas 0 22 482 332 list-enumerate 0;
#N canvas 473 338 458 308 count 0;
#X obj 131 154 f 0;
#X obj 156 153 + 1;
#X msg 147 133 0;
#X obj 131 183 outlet;
#X obj 131 59 inlet;
#X obj 131 96 b;
#X obj 178 61 inlet;
#X obj 178 98 b;
#X connect 0 0 1 0;
#X connect 0 0 3 0;
#X connect 1 0 0 1;
#X connect 2 0 0 1;
#X connect 4 0 5 0;
#X connect 5 0 0 0;
#X connect 6 0 7 0;
#X connect 7 0 2 0;
#X restore 186 155 pd count;
#X obj 107 113 t a b;
#X obj 107 33 inlet;
#X obj 107 181 list prepend;
#X obj 112 253 outlet;
#N canvas 0 22 541 415 drip 0;
#X obj 64 206 list split 1;
#X obj 64 123 until;
#X obj 64 181 list append;
#X obj 194 206 bang;
#X text 146 90 First store list \, then start the loop;
#X text 163 118 "until" bangs its output until told to stop by a "bang"
to its right inlet.;
#X text 182 160 Store the remaining list.;
#X text 239 205 third outlet of "split" tells us to stop.;
#X obj 64 243 outlet;
#X obj 64 57 inlet;
#X text 237 44 From list-help.pd;
#X obj 143 243 outlet;
#X obj 64 86 t b a;
#X connect 0 0 8 0;
#X connect 0 1 2 1;
#X connect 0 2 3 0;
#X connect 0 2 11 0;
#X connect 1 0 2 0;
#X connect 2 0 0 0;
#X connect 3 0 1 1;
#X connect 9 0 12 0;
#X connect 12 0 1 0;
#X connect 12 1 2 1;
#X restore 110 88 pd drip;
#X obj 107 63 t a b;
#X connect 0 0 3 1;
#X connect 1 0 3 0;
#X connect 1 1 0 0;
#X connect 2 0 6 0;
#X connect 3 0 4 0;
#X connect 5 0 1 0;
#X connect 6 0 5 0;
#X connect 6 1 0 1;
#X restore 149 183 pd list-enumerate;
#X obj 190 231 808_state \$1/controls;
#N canvas 0 22 498 348 list-enumerate 0;
#N canvas 473 338 458 308 count 0;
#X obj 131 154 f 0;
#X obj 156 153 + 1;
#X msg 147 133 0;
#X obj 131 183 outlet;
#X obj 131 59 inlet;
#X obj 131 96 b;
#X obj 178 61 inlet;
#X obj 178 98 b;
#X connect 0 0 1 0;
#X connect 0 0 3 0;
#X connect 1 0 0 1;
#X connect 2 0 0 1;
#X connect 4 0 5 0;
#X connect 5 0 0 0;
#X connect 6 0 7 0;
#X connect 7 0 2 0;
#X restore 186 155 pd count;
#X obj 107 113 t a b;
#X obj 107 33 inlet;
#X obj 107 181 list prepend;
#X obj 112 253 outlet;
#N canvas 0 22 541 415 drip 0;
#X obj 64 206 list split 1;
#X obj 64 123 until;
#X obj 64 181 list append;
#X obj 194 206 bang;
#X text 146 90 First store list \, then start the loop;
#X text 163 118 "until" bangs its output until told to stop by a "bang"
to its right inlet.;
#X text 182 160 Store the remaining list.;
#X text 239 205 third outlet of "split" tells us to stop.;
#X obj 64 243 outlet;
#X obj 64 57 inlet;
#X text 237 44 From list-help.pd;
#X obj 143 243 outlet;
#X obj 64 86 t b a;
#X connect 0 0 8 0;
#X connect 0 1 2 1;
#X connect 0 2 3 0;
#X connect 0 2 11 0;
#X connect 1 0 2 0;
#X connect 2 0 0 0;
#X connect 3 0 1 1;
#X connect 9 0 12 0;
#X connect 12 0 1 0;
#X connect 12 1 2 1;
#X restore 110 88 pd drip;
#X obj 194 215 t a;
#X obj 106 209 list prepend;
#X obj 107 63 t a b b;
#X connect 0 0 3 1;
#X connect 1 0 3 0;
#X connect 1 1 0 0;
#X connect 2 0 8 0;
#X connect 3 0 7 0;
#X connect 5 0 1 0;
#X connect 6 0 7 1;
#X connect 7 0 6 0;
#X connect 7 0 4 0;
#X connect 8 0 5 0;
#X connect 8 1 0 1;
#X connect 8 2 7 1;
#X restore 411 149 pd list-enumerate;
#X obj 104 251 r \$0-controls;
#X obj 272 98 r \$0-values;
#N canvas 283 65 551 703 replacelist 0;
#X obj 164 224 list;
#X obj 327 98 inlet;
#X obj 250 98 inlet;
#X text 331 72 orig;
#X text 256 74 pos;
#X text 77 70 list to insert;
#X obj 85 94 inlet;
#X obj 207 281 list split;
#X obj 85 526 list;
#X obj 85 598 outlet;
#X obj 85 317 list prepend;
#X obj 85 120 t a b a b;
#X obj 85 430 list prepend 0;
#X obj 250 125 t f f;
#X obj 207 524 list prepend;
#X obj 85 469 route 0 1;
#X obj 316 347 f;
#X obj 286 282 t a b;
#X obj 316 377 > 0;
#X obj 122 358 r \$0-init;
#X obj 122 377 0;
#X obj 300 524 r \$0-init;
#X obj 176 317 r \$0-init;
#X obj 118 527 r \$0-init;
#X obj 159 131 s \$0-init;
#X text 47 25 list-replace: Replace the list starting at position POS
with a new list \, overwriting the old elements.;
#N canvas 0 22 458 308 length 0;
#X obj 171 164 + 1;
#X obj 92 127 b;
#X obj 126 204 f;
#X obj 158 138 1;
#X obj 142 166 f 1;
#X obj 216 168 0;
#X obj 136 59 t a b b;
#N canvas 0 22 537 411 drip 0;
#X obj 64 206 list split 1;
#X obj 64 123 until;
#X obj 64 181 list append;
#X obj 194 206 bang;
#X text 146 90 First store list \, then start the loop;
#X text 163 118 "until" bangs its output until told to stop by a "bang"
to its right inlet.;
#X text 182 160 Store the remaining list.;
#X text 239 205 third outlet of "split" tells us to stop.;
#X obj 64 243 outlet;
#X obj 64 57 inlet;
#X text 237 44 From list-help.pd;
#X obj 143 243 outlet;
#X obj 64 86 t b a;
#X connect 0 0 8 0;
#X connect 0 1 2 1;
#X connect 0 2 3 0;
#X connect 0 2 11 0;
#X connect 1 0 2 0;
#X connect 2 0 0 0;
#X connect 3 0 1 1;
#X connect 9 0 12 0;
#X connect 12 0 1 0;
#X connect 12 1 2 1;
#X restore 92 104 pd drip;
#X obj 137 36 inlet;
#X obj 125 238 outlet;
#X connect 0 0 4 1;
#X connect 1 0 4 0;
#X connect 2 0 9 0;
#X connect 3 0 4 1;
#X connect 4 0 0 0;
#X connect 4 0 2 1;
#X connect 5 0 2 1;
#X connect 6 0 7 0;
#X connect 6 1 3 0;
#X connect 6 2 5 0;
#X connect 7 0 1 0;
#X connect 7 1 2 0;
#X connect 8 0 6 0;
#X restore 268 216 pd length;
#X obj 162 254 list split;
#X connect 0 0 27 0;
#X connect 1 0 0 1;
#X connect 2 0 13 0;
#X connect 6 0 11 0;
#X connect 7 1 8 1;
#X connect 7 1 14 1;
#X connect 8 0 9 0;
#X connect 10 0 12 0;
#X connect 11 0 10 0;
#X connect 11 1 0 0;
#X connect 11 2 26 0;
#X connect 11 3 24 0;
#X connect 12 0 15 0;
#X connect 13 0 27 1;
#X connect 13 1 16 1;
#X connect 14 0 9 0;
#X connect 15 0 8 0;
#X connect 15 1 14 0;
#X connect 16 0 18 0;
#X connect 17 0 14 1;
#X connect 17 0 8 1;
#X connect 17 1 16 0;
#X connect 18 0 12 1;
#X connect 19 0 20 0;
#X connect 20 0 12 1;
#X connect 21 0 14 1;
#X connect 22 0 10 1;
#X connect 23 0 8 1;
#X connect 26 0 7 1;
#X connect 27 0 10 1;
#X connect 27 1 7 0;
#X connect 27 2 17 0;
#X restore 289 199 pd replacelist;
#X obj 423 265 t a;
#X obj 272 130 swap;
#X obj 50 109 inlet;
#N canvas 0 22 545 419 drip2 0;
#X obj 64 123 until;
#X obj 64 181 list append;
#X obj 194 206 bang;
#X text 146 90 First store list \, then start the loop;
#X text 163 118 "until" bangs its output until told to stop by a "bang"
to its right inlet.;
#X text 182 160 Store the remaining list.;
#X text 239 205 third outlet of "split" tells us to stop.;
#X obj 64 243 outlet;
#X obj 64 57 inlet;
#X text 237 44 From list-help.pd;
#X obj 143 243 outlet;
#X obj 64 86 t b a;
#X obj 64 206 list split 2;
#X connect 0 0 1 0;
#X connect 1 0 12 0;
#X connect 2 0 0 1;
#X connect 8 0 11 0;
#X connect 11 0 0 0;
#X connect 11 1 1 1;
#X connect 12 0 7 0;
#X connect 12 1 1 1;
#X connect 12 2 2 0;
#X connect 12 2 10 0;
#X restore 190 285 pd drip2;
#X obj 253 24 inlet;
#X obj 144 355 route 0 1 2 3 4 5 6 7 8 9 10 11 12 13 14 15;
#X obj 144 381 s \$0-ra;
#X obj 156 401 s \$0-rb;
#X obj 167 422 s \$0-rc;
#X obj 179 442 s \$0-rd;
#X obj 194 381 s \$0-re;
#X obj 206 401 s \$0-rf;
#X obj 217 422 s \$0-rg;
#X obj 229 442 s \$0-rh;
#X obj 250 383 s \$0-ri;
#X obj 262 403 s \$0-rj;
#X obj 273 424 s \$0-rk;
#X obj 285 444 s \$0-rl;
#X obj 299 383 s \$0-rm;
#X obj 312 403 s \$0-rn;
#X obj 323 424 s \$0-ro;
#X obj 335 444 s \$0-rp;
#X obj 35 505 r \$0-a;
#X msg 35 530 0 \$1;
#X obj 78 505 r \$0-b;
#X msg 77 529 1 \$1;
#X obj 121 505 r \$0-c;
#X obj 164 505 r \$0-d;
#X msg 121 530 2 \$1;
#X msg 163 529 3 \$1;
#X obj 208 503 r \$0-e;
#X obj 251 503 r \$0-f;
#X obj 294 503 r \$0-g;
#X obj 337 503 r \$0-h;
#X msg 208 528 4 \$1;
#X msg 250 526 5 \$1;
#X msg 294 527 6 \$1;
#X msg 336 527 7 \$1;
#X obj 383 503 r \$0-i;
#X obj 426 502 r \$0-j;
#X obj 468 503 r \$0-k;
#X obj 512 503 r \$0-l;
#X obj 556 501 r \$0-m;
#X obj 599 501 r \$0-o;
#X obj 642 501 r \$0-p;
#X obj 685 501 r \$0-q;
#X msg 383 528 8 \$1;
#X msg 425 527 9 \$1;
#X msg 469 528 10 \$1;
#X msg 511 527 11 \$1;
#X msg 556 526 12 \$1;
#X msg 598 524 13 \$1;
#X msg 641 525 14 \$1;
#X msg 684 525 15 \$1;
#X obj 683 559 s \$0-values;
#X obj 413 202 t a a;
#X obj 412 182 list;
#X obj 257 47 t a b a;
#X obj 294 150 * 2;
#X obj 295 170 + 1;
#X obj 191 253 t a a;
#X connect 0 0 1 0;
#X connect 2 0 1 0;
#X connect 3 0 68 0;
#X connect 4 0 64 1;
#X connect 5 0 13 0;
#X connect 6 0 9 0;
#X connect 7 0 8 0;
#X connect 7 0 3 1;
#X connect 8 0 7 2;
#X connect 9 0 7 0;
#X connect 9 1 66 0;
#X connect 10 0 0 0;
#X connect 11 0 13 0;
#X connect 12 0 65 0;
#X connect 13 0 14 0;
#X connect 13 1 15 0;
#X connect 13 2 16 0;
#X connect 13 3 17 0;
#X connect 13 4 18 0;
#X connect 13 5 19 0;
#X connect 13 6 20 0;
#X connect 13 7 21 0;
#X connect 13 8 22 0;
#X connect 13 9 23 0;
#X connect 13 10 24 0;
#X connect 13 11 25 0;
#X connect 13 12 26 0;
#X connect 13 13 27 0;
#X connect 13 14 28 0;
#X connect 13 15 29 0;
#X connect 30 0 31 0;
#X connect 31 0 62 0;
#X connect 32 0 33 0;
#X connect 33 0 62 0;
#X connect 34 0 36 0;
#X connect 35 0 37 0;
#X connect 36 0 62 0;
#X connect 37 0 62 0;
#X connect 38 0 42 0;
#X connect 39 0 43 0;
#X connect 40 0 44 0;
#X connect 41 0 45 0;
#X connect 42 0 62 0;
#X connect 43 0 62 0;
#X connect 44 0 62 0;
#X connect 45 0 62 0;
#X connect 46 0 54 0;
#X connect 47 0 55 0;
#X connect 48 0 56 0;
#X connect 49 0 57 0;
#X connect 50 0 58 0;
#X connect 51 0 59 0;
#X connect 52 0 60 0;
#X connect 53 0 61 0;
#X connect 54 0 62 0;
#X connect 55 0 62 0;
#X connect 56 0 62 0;
#X connect 57 0 62 0;
#X connect 58 0 62 0;
#X connect 59 0 62 0;
#X connect 60 0 62 0;
#X connect 61 0 62 0;
#X connect 63 0 7 2;
#X connect 63 1 3 1;
#X connect 64 0 63 0;
#X connect 65 0 2 0;
#X connect 65 1 64 0;
#X connect 65 2 4 0;
#X connect 66 0 67 0;
#X connect 67 0 7 1;
#X connect 68 0 11 0;
#X connect 68 1 7 2;
#X restore 492 317 pd list-functions;
#X obj 614 222 t b b;
#X obj 638 280 s \$0-loadbang;
#X msg 234 104 0.72;
#X msg 296 92 0.78;
#X obj 200 29 loadbang;
#X msg 178 108 0.54;
#X connect 0 0 12 0;
#X connect 2 0 31 0;
#X connect 4 0 7 0;
#X connect 5 0 8 0;
#X connect 6 0 11 0;
#X connect 7 0 11 1;
#X connect 8 0 11 1;
#X connect 9 0 10 0;
#X connect 11 0 15 0;
#X connect 11 1 16 0;
#X connect 11 2 17 0;
#X connect 11 3 18 0;
#X connect 12 0 1 0;
#X connect 13 0 30 0;
#X connect 14 0 30 1;
#X connect 31 0 14 0;
#X connect 31 1 32 0;
#X connect 33 0 20 0;
#X connect 34 0 21 0;
#X connect 35 0 36 0;
#X connect 35 0 33 0;
#X connect 35 0 34 0;
#X connect 36 0 19 0;
#X coords 0 444 1 443 85 60 0;
#X restore 71 319 pd eq;
#X obj 470 399 vsl 15 128 0 20 0 0 empty empty empty 0 -9 0 10 -204786
-1 -1 19 1;
#X text 27 680 low2 + (value - low1) * (high2 - low2) / (high1 - low1)
;
#X obj 434 669 vsl 15 128 1 20 0 0 empty empty empty 0 -9 0 10 -262144
-1 -1 1331 1;
#X obj 124 504 hip~ 200;
#X text 421 371 Phase Voc;
#X text 487 372 Pitch Shifter;
#X floatatom 537 576 5 0 0 0 - - -;
#X obj -10 632 dac~;
#N canvas 595 90 699 621 shift 0;
#X obj 101 162 pitchshifter~;
#X msg 264 150 transpose \$1;
#X floatatom 264 131 5 0 0 0 - - -;
#X floatatom 303 181 5 0 0 0 - - -;
#X msg 303 201 window \$1;
#X floatatom 235 230 5 0 0 0 - - -;
#X msg 235 249 delay \$1;
#X obj 100 314 outlet~;
#X obj 94 73 inlet~;
#X obj 263 69 inlet;
#X connect 0 0 7 0;
#X connect 1 0 0 1;
#X connect 2 0 1 0;
#X connect 3 0 4 0;
#X connect 4 0 0 1;
#X connect 5 0 6 0;
#X connect 6 0 0 1;
#X connect 8 0 0 0;
#X connect 9 0 2 0;
#X restore 131 417 pd shift;
#X obj 446 324 loadbang;
#X floatatom 305 518 5 0 0 0 - - -;
#X text 185 609 max 687 low 15;
#X floatatom 363 515 5 0 0 0 - - -;
#X text 176 631 max 668 low 12;
#X text 150 718 max 10000 low 10;
#X floatatom 158 545 5 0 0 0 - - -;
#X floatatom 247 516 5 0 0 0 - - -;
#X obj 206 374 moses 0;
#X obj 326 376 moses 0;
#X floatatom 420 818 5 0 0 0 - - -;
#X obj 83 753 expr 8000+($f1-10)*(10-8000)/(8000-10);
#X text 525 308 finalguitarsample.wav = Guitar;
#X text 526 294 testsamplesopi3norm.wav = Piano;
#X text 527 321 flutest.wav = Flute;
#X msg 449 352 0;
#X obj 205 323 inlet;
#X obj 322 316 inlet;
#N canvas 317 247 450 352 inputSelect 0;
#X obj 81 84 inlet;
#X obj 157 143 inlet;
#X obj 309 135 inlet;
#X obj 110 218 switch 2;
#X obj 98 141 sel 0 1;
#X msg 136 177 1;
#X msg 98 178 2;
#X obj 266 216 switch 2;
#X obj 254 139 sel 0 1;
#X msg 292 175 1;
#X msg 254 176 2;
#X obj 153 85 r noisaLeft;
#X obj 297 87 r noisaRight;
#X obj 124 287 outlet;
#X obj 267 284 outlet;
#X connect 0 0 4 0;
#X connect 0 0 8 0;
#X connect 1 0 3 2;
#X connect 2 0 7 2;
#X connect 3 0 13 0;
#X connect 4 0 6 0;
#X connect 4 1 5 0;
#X connect 5 0 3 0;
#X connect 6 0 3 0;
#X connect 7 0 14 0;
#X connect 8 0 10 0;
#X connect 8 1 9 0;
#X connect 9 0 7 0;
#X connect 10 0 7 0;
#X connect 11 0 3 1;
#X connect 12 0 7 1;
#X restore 680 392 pd inputSelect;
#X obj 196 572 expr 0+($f1-15)*(20-0)/(684-15);
#X obj 56 556 *~;
#X obj 107 575 *~;
#X obj 31 376 vsl 15 128 0.001 1 1 0 empty empty empty 0 -9 0 10 -262144
-1 -1 12044 1;
#X obj 563 496 expr 10+($f1-14)*(10000-10)/(683-14);
#X msg 30 326 0.7;
#X obj 435 633 expr 1+($f1-10000)*(3-1)/(10-10000);
#X obj -29 599 lop~ 5000;
#X obj -29 574 hip~ 500;
#X obj 110 607 hip~ 500;
#X obj 113 632 lop~ 5000;
#X connect 0 0 5 0;
#X connect 1 0 15 0;
#X connect 2 0 14 0;
#X connect 3 0 49 0;
#X connect 11 0 9 0;
#X connect 13 0 23 0;
#X connect 16 0 17 0;
#X connect 18 0 38 0;
#X connect 19 0 38 0;
#X connect 20 0 38 0;
#X connect 31 0 35 0;
#X connect 32 0 35 0;
#X connect 33 0 35 0;
#X connect 34 0 35 0;
#X connect 40 0 9 1;
#X connect 42 0 38 0;
#X connect 43 0 44 0;
#X connect 43 0 70 0;
#X connect 43 0 84 0;
#X connect 45 0 58 0;
#X connect 45 0 79 0;
#X connect 46 0 47 0;
#X connect 49 0 45 0;
#X connect 50 0 56 0;
#X connect 50 0 58 1;
#X connect 52 0 47 0;
#X connect 53 0 80 0;
#X connect 58 0 53 0;
#X connect 59 0 74 0;
#X connect 67 0 65 0;
#X connect 67 1 66 0;
#X connect 67 1 78 0;
#X connect 68 1 82 0;
#X connect 69 0 38 0;
#X connect 70 0 69 0;
#X connect 74 0 43 0;
#X connect 75 0 67 0;
#X connect 76 0 68 0;
#X connect 78 0 50 0;
#X connect 79 0 86 0;
#X connect 80 0 87 0;
#X connect 81 0 79 1;
#X connect 81 0 80 1;
#X connect 82 0 43 0;
#X connect 83 0 81 0;
#X connect 84 0 52 0;
#X connect 85 0 57 0;
#X connect 86 0 85 0;
#X connect 87 0 88 0;
#X connect 88 0 57 1;
