#N canvas 352 180 1348 925 10;
#X declare -lib moocow;
#X declare -lib flib;
#X msg 30 154 devices;
#X msg 52 209 close;
#N canvas 436 396 1280 723 parsebytes 0;
#X obj 129 64 inlet;
#X obj 129 103 select 10 13;
#X obj 129 139 zl group 50;
#X obj 129 210 outlet;
#X obj 392 67 import moocow;
#X obj 129 165 bytes2any;
#X connect 0 0 1 0;
#X connect 1 0 2 0;
#X connect 1 2 2 0;
#X connect 2 0 5 0;
#X connect 5 0 3 0;
#X restore 30 347 pd parsebytes;
#X text 86 156 print available serial devices;
#X text 89 183 open serial port (change the number to your port);
#X text 93 211 close serial port;
#X text 213 252 the data you want to write to the arduino;
#X obj 79 284 prepend print;
#X obj 86 252 receive serial_print;
#X msg 39 112 S\$1K;
#X msg 98 114 D\$1K;
#X floatatom 39 71 5 0 0 0 - - -;
#X msg 132 44 255;
#X msg 180 122 P\$1K;
#X floatatom 200 93 5 0 0 0 - - -;
#X msg 63 89 150;
#X msg 161 70 60;
#X msg 118 75 40;
#X floatatom 87 51 5 0 0 0 - - -;
#X msg 366 4 M\$1K;
#X obj 383 -56 tgl 15 0 empty empty empty 17 7 0 10 -262144 -1 -1 0
1;
#X obj 30 393 unpack f f;
#X text 58 -70 motor parameters;
#X text 401 -81 manual mode on/off;
#X obj 441 15 loadbang;
#X obj 440 43 del 2000;
#X msg 462 92 \; pd dsp 1 \;;
#X obj 420 70 t b b;
#X obj 390 97 del 10;
#X obj 393 127 s st;
#X obj 334 615 sendOSC;
#X msg 484 419 connect 10.0.0.4 9000;
#X obj 30 412 change;
#X obj 87 412 change;
#X obj 24 443 sel -1;
#X obj 87 445 sel -1;
#X floatatom 407 639 5 0 0 0 - - -;
#X obj 895 5 dumpOSC 9000;
#X floatatom 837 387 5 0 0 0 - - -;
#X obj 837 310 int;
#X floatatom 763 315 5 0 0 0 - - -;
#X obj 758 340 speedlim 1;
#X obj 763 238 int;
#X obj 884 105 OSCroute /left /right;
#X msg 420 -24 1;
#X obj 216 338 f;
#X obj 320 337 f;
#X obj 431 215 tgl 15 0 empty empty empty 17 7 0 10 -262144 -1 -1 1
1;
#X obj 23 522 change;
#X obj 81 522 change;
#X msg 763 362 A\$1K;
#X msg 837 434 B\$1K;
#X obj 649 71 OSCroute /manual /scale;
#X floatatom 691 219 5 0 0 0 - - -;
#X obj 30 369 route S C;
#X obj 143 401 unpack f f;
#X obj 143 439 sel -1;
#X obj 200 439 sel -1;
#X obj 184 466 +;
#X obj 196 590 s manual;
#X obj 194 564 change;
#X obj 268 -68 r manual;
#X floatatom 1026 282 5 0 0 0 - - -;
#X msg 279 553 send /agent1 manual \$1;
#X floatatom 110 610 5 0 0 0 - - -;
#X floatatom 185 632 5 0 0 0 - - -;
#X floatatom 457 521 5 0 0 0 - - -;
#X obj 574 89 r manual;
#X floatatom 856 180 5 0 0 0 - - -;
#X floatatom 1040 195 5 0 0 0 - - -;
#X floatatom 195 672 5 0 0 0 - - -;
#X floatatom 248 673 5 0 0 0 - - -;
#X floatatom 15 598 5 0 0 0 - - -;
#X floatatom 107 658 5 0 0 0 - - -;
#X floatatom 709 331 5 0 0 0 - - -;
#X obj 931 283 vsl 15 128 150 840 0 0 empty empty empty 0 -9 0 10 -262144
-1 -1 0 1;
#X obj 592 132 vsl 15 128 800 154 0 0 empty empty empty 0 -9 0 10 -262144
-1 -1 0 1;
#X obj 742 431 line;
#X msg 753 463 0 100;
#X msg 700 509 700 100;
#X text 226 -30 7 194 124;
#X obj 210 301 r noisaLeft;
#X obj 304 277 r noisaRight;
#X msg 41 182 open 0;
#N canvas 352 296 487 374 inputSelect 0;
#X obj 85 76 inlet;
#X obj 161 135 inlet;
#X obj 328 126 inlet;
#X obj 114 210 switch 2;
#X obj 102 133 sel 0 1;
#X msg 140 169 1;
#X msg 102 170 2;
#X obj 285 207 switch 2;
#X obj 273 130 sel 0 1;
#X msg 311 166 1;
#X msg 273 167 2;
#X obj 128 279 outlet;
#X obj 286 275 outlet;
#X obj 302 45 r noisaRight;
#X obj 166 68 r noisaLeft;
#X connect 0 0 4 0;
#X connect 0 0 8 0;
#X connect 1 0 3 2;
#X connect 2 0 7 2;
#X connect 3 0 11 0;
#X connect 4 0 6 0;
#X connect 4 1 5 0;
#X connect 5 0 3 0;
#X connect 6 0 3 0;
#X connect 7 0 12 0;
#X connect 8 0 10 0;
#X connect 8 1 9 0;
#X connect 9 0 7 0;
#X connect 10 0 7 0;
#X connect 13 0 7 1;
#X connect 14 0 3 1;
#X restore 724 146 pd inputSelect;
#X text 499 596 Left 150 - 789 Right 143 - 873;
#X obj 29 314 comport 0 115200;
#X obj 96 576 s noisaRight;
#X obj 14 555 s noisaLeft;
#X obj 184 537 > 8000;
#X msg 24 45 10;
#X obj 168 23 loadbang;
#X msg 54 39 86;
#X msg 200 70 100;
#X obj 238 487 speedlim 10;
#X obj 212 514 smooth 0.8;
#X floatatom 1080 239 5 0 0 0 - - -;
#X obj 288 -2 change;
#X obj 276 76 del 100;
#X msg 10 25 50;
#X msg 7 96 86;
#X obj 300 36 sel 0;
#X obj 837 334 min 840;
#X floatatom 692 392 5 0 0 0 - - -;
#X obj 763 264 min 840;
#X obj 763 288 max 154;
#X obj 837 360 max 150;
#N canvas 231 117 1219 884 analysis 0;
#X obj 181 -39 mspec~;
#X obj 184 -82 rfft~;
#X obj -69 6 ss~;
#X floatatom -70 27 15 0 0 0 - - -;
#X text 233 -47 Get magnitude spectrum from fft. Argument of 2 gives
power spectrum.;
#X text 242 1 Get spectral peaks from magnitudes and estimate frequency.
Argumnent or right inlet sets threshold as percentage of the maximum
peak detected in each frame;
#X obj -70 47 average 50;
#X floatatom -66 114 5 0 0 0 - - -;
#X obj 703 -147 energy;
#X obj 705 -119 hsl 100 20 0 0.1 0 0 empty empty 0___________0.1 -2
-8 0 10 -262144 -1 -1 9900 1;
#X msg 741 -170 lt 27;
#X msg 741 -189 st 6;
#X text 715 -97 energy levels;
#X floatatom 683 -59 10 0 0 0 - - -;
#X obj 182 22 peak~ 40;
#X text 669 -37 191 = 440 Osc;
#X obj 666 239 gravmagspec;
#X floatatom 667 261 5 0 0 0 - - -;
#X obj 667 280 average;
#X obj 668 302 int;
#X floatatom 670 326 5 0 0 0 - - -;
#X obj 758 205 vsl 20 128 20 20000 0 0 empty empty empty 0 -9 0 10
-262144 -1 -1 3902 1;
#X text 734 -83 Useful to draw attack and decay;
#X text 786 323 20hz;
#X text 783 197 20 \, 000hz;
#X text 295 -182 Analysis Tool;
#X text -87 157 0 = White Noise -3 = 440 Sine;
#X text 581 345 Doubles the value with sine waves \, only starts working
from 250 onwards;
#X text 631 194 Spectral Centroid:;
#X text -38 0 Spectral Smoothness;
#X text 682 -186 Energy;
#X obj -20 328 f;
#X obj 93 284 bang;
#X obj 61 239 inlet;
#X obj 94 322 f;
#X obj 189 325 f;
#X text -79 -47 comment;
#X obj 313 -140 inlet~;
#X obj 243 350 f;
#X floatatom 996 566 5 0 0 0 BPM - -;
#X floatatom 1052 657 5 0 0 3 acceleration_BPM - -;
#X obj 1007 518 unpack;
#X floatatom 1047 538 5 0 0 1 ms - -;
#X obj 927 454 tempoest2;
#X obj 998 445 pack 0 0;
#X obj 999 422 t b f;
#N canvas 904 241 189 260 acceleration 0;
#X obj 48 203 outlet;
#X obj 48 179 avg4pt2;
#X obj 48 17 inlet;
#X obj 46 116 route 0 1;
#X obj 46 69 f;
#X obj 77 69 + 1;
#X obj 110 70 mod 2;
#X obj 47 156 -;
#X obj 47 45 t b f b;
#X obj 80 138 t b f;
#X obj 47 94 pack;
#X connect 1 0 0 0;
#X connect 2 0 8 0;
#X connect 3 0 7 0;
#X connect 3 1 9 0;
#X connect 4 0 5 0;
#X connect 4 0 10 0;
#X connect 5 0 6 0;
#X connect 6 0 4 1;
#X connect 7 0 1 0;
#X connect 8 0 4 0;
#X connect 8 1 10 1;
#X connect 8 2 4 0;
#X connect 9 0 7 0;
#X connect 9 1 7 1;
#X connect 9 1 10 1;
#X connect 10 0 3 0;
#X restore 1062 612 pd acceleration;
#X obj 581 621 spigot;
#X obj 581 600 bng 15 250 50 0 empty empty empty 0 -6 0 8 -262144 -1
-1;
#X obj 581 647 bng 15 250 50 0 empty empty empty 0 -6 0 8 -262144 -1
-1;
#X obj 646 648 tgl 15 0 empty empty empty 0 -6 0 8 -262144 -1 -1 1
1;
#X obj 581 461 vsl 15 128 0 127 0 0 empty empty empty 0 -8 0 8 -262144
-1 -1 0 1;
#X msg 537 466 0;
#X msg 603 466 50;
#X obj 679 594 nbx 5 14 -1e+37 1e+37 0 0 empty empty empty 0 -6 0 10
-262144 -1 -1 300 256;
#X text 667 602 threshold - if no activity for x seconds \, reopen
the spigot;
#X obj 646 621 del 200;
#X msg 648 696 1;
#X obj 681 695 -;
#X obj 681 727 tgl 15 0 empty empty empty 0 -6 0 8 -262144 -1 -1 0
1;
#X obj 647 674 bng 15 250 50 0 empty empty empty 0 -6 0 8 -262144 -1
-1;
#X text 652 753 1 if active \, 0 if not;
#X obj 852 675 sel 1;
#X floatatom 1276 595 5 0 0 0 - - -;
#X obj 1221 558 average 10;
#X obj 1011 760 r bang slider;
#X obj 519 530 loadbang;
#X msg 680 516 300;
#X obj 709 456 bng 15 250 50 0 empty empty empty 17 7 0 10 -262144
-1 -1;
#X obj 413 473 sel 1;
#X text 1263 611 ms Average;
#X obj 722 27 rmstodb;
#X floatatom 731 91 5 0 0 0 - - -;
#X obj 146 681 list trim;
#X obj -45 499 list prepend;
#X floatatom -50 351 5 0 0 0 - - -;
#X floatatom 82 352 5 0 0 0 - - -;
#X msg -56 405 smoothness \$1;
#X msg 84 406 centroid \$1;
#X floatatom 98 428 5 0 0 0 - - -;
#X msg 59 480 energy \$1;
#X obj 12 569 list prepend;
#X msg 137 520 tempo \$1;
#X floatatom 156 469 5 0 0 0 - - -;
#X obj 159 719 outlet;
#X obj -48 455 list prepend;
#X obj -49 379 change;
#X obj 81 378 change;
#X obj 75 458 change;
#X obj 147 494 change;
#X obj 306 721 outlet;
#X obj 140 650 list prepend send /agent1;
#X obj 311 690 prepend send /agent1;
#X obj 403 508 bng 15 250 50 0 empty empty empty 17 7 0 10 -262144
-1 -1;
#X obj 374 550 counter 2;
#X obj 438 549 counter 5;
#X obj 375 582 sel 2;
#X obj 444 581 sel 5;
#X msg 373 616 1;
#X msg 442 616 1;
#X obj 460 721 outlet;
#X obj 465 690 prepend send /agent1;
#X msg 480 659 attack6 \$1;
#X msg 326 659 attack3 \$1;
#X connect 0 0 14 0;
#X connect 0 0 2 0;
#X connect 1 0 0 0;
#X connect 1 1 0 1;
#X connect 2 0 3 0;
#X connect 3 0 6 0;
#X connect 6 0 7 0;
#X connect 7 0 31 1;
#X connect 8 0 9 0;
#X connect 8 0 13 0;
#X connect 10 0 8 1;
#X connect 11 0 8 1;
#X connect 13 0 71 0;
#X connect 16 0 17 0;
#X connect 17 0 18 0;
#X connect 18 0 19 0;
#X connect 19 0 20 0;
#X connect 19 0 21 0;
#X connect 20 0 34 1;
#X connect 31 0 75 0;
#X connect 32 0 31 0;
#X connect 32 0 34 0;
#X connect 32 0 35 0;
#X connect 32 0 38 0;
#X connect 33 0 32 0;
#X connect 34 0 76 0;
#X connect 35 0 79 0;
#X connect 37 0 8 0;
#X connect 37 0 16 0;
#X connect 37 0 1 0;
#X connect 38 0 83 0;
#X connect 41 0 39 0;
#X connect 41 1 42 0;
#X connect 41 1 64 0;
#X connect 43 0 44 0;
#X connect 43 0 46 0;
#X connect 43 1 45 0;
#X connect 44 0 41 0;
#X connect 45 0 44 0;
#X connect 45 1 44 1;
#X connect 46 0 40 0;
#X connect 47 0 49 0;
#X connect 48 0 47 0;
#X connect 49 0 50 0;
#X connect 49 0 56 0;
#X connect 50 0 47 1;
#X connect 50 0 58 1;
#X connect 50 0 60 0;
#X connect 51 0 48 0;
#X connect 52 0 51 0;
#X connect 53 0 51 0;
#X connect 54 0 56 1;
#X connect 56 0 50 0;
#X connect 57 0 58 0;
#X connect 58 0 59 0;
#X connect 59 0 62 0;
#X connect 59 0 69 0;
#X connect 60 0 57 0;
#X connect 62 0 43 0;
#X connect 63 0 38 1;
#X connect 64 0 63 0;
#X connect 65 0 48 0;
#X connect 66 0 50 0;
#X connect 66 0 68 0;
#X connect 67 0 54 0;
#X connect 68 0 67 0;
#X connect 69 0 93 0;
#X connect 71 0 72 0;
#X connect 71 0 35 1;
#X connect 73 0 84 0;
#X connect 74 0 81 0;
#X connect 75 0 86 0;
#X connect 76 0 87 0;
#X connect 77 0 85 1;
#X connect 78 0 85 0;
#X connect 79 0 88 0;
#X connect 80 0 74 1;
#X connect 81 0 91 0;
#X connect 82 0 81 1;
#X connect 83 0 89 0;
#X connect 85 0 74 0;
#X connect 86 0 77 0;
#X connect 87 0 78 0;
#X connect 88 0 80 0;
#X connect 89 0 82 0;
#X connect 91 0 73 0;
#X connect 92 0 90 0;
#X connect 93 0 94 0;
#X connect 93 0 95 0;
#X connect 94 0 96 0;
#X connect 95 0 97 0;
#X connect 96 0 98 0;
#X connect 97 0 99 0;
#X connect 98 0 103 0;
#X connect 99 0 102 0;
#X connect 101 0 100 0;
#X connect 102 0 101 0;
#X connect 103 0 92 0;
#X restore 559 510 pd analysis;
#X obj 544 -59 import flib;
#N canvas 77 131 450 386 sig_gate 0;
#X obj 148 68 inlet~;
#X obj 150 312 outlet~;
#X obj 93 104 pvu~;
#X obj 95 146 expr if ($f1 < -50 \, 0 \, 1);
#X obj 148 252 *~;
#X obj 183 200 change;
#X connect 0 0 2 0;
#X connect 0 0 4 0;
#X connect 2 0 3 0;
#X connect 3 0 5 0;
#X connect 4 0 1 0;
#X connect 5 0 4 1;
#X restore 654 444 pd sig_gate;
#X obj 22 475 min 680;
#X obj 22 500 max 20;
#X obj 89 498 max 10;
#X obj 89 473 min 670;
#X obj 1009 250 print;
#N canvas 119 108 1597 872 myo 0;
#X obj -6346 29 OSCroute /emg;
#X floatatom -6270 60 5 0 0 0 - - -;
#X obj -6323 83 smooth 0.6;
#X obj -6355 128 unpack 0 0 0 0 0 0 0 0;
#X floatatom -6228 61 5 0 0 0 - - -;
#X obj -6431 152 expr abs($f1);
#X obj -6463 298 peak;
#X floatatom -6823 384 5 0 0 0 - - -;
#X obj -6464 334 sel 0 1;
#X obj -6576 119 vsl 40 128 0 40 0 0 empty empty empty 0 -9 0 10 -262144
-1 -1 0 1;
#X obj -6511 369 smooth 0.6;
#X floatatom -6418 230 5 0 0 0 - - -;
#X obj -6438 259 float;
#X obj -6511 421 line;
#X msg -6505 394 \$1 100;
#X obj -6416 300 del 2000;
#X obj -6782 454 sel 0;
#X obj -6760 490 bng 15 250 50 0 empty empty empty 17 7 0 10 -262144
-1 -1;
#X obj -6696 450 sel 0;
#X obj -6674 486 bng 15 250 50 0 empty empty empty 17 7 0 10 -262144
-1 -1;
#X obj -6644 456 sel 0;
#X obj -6622 492 bng 15 250 50 0 empty empty empty 17 7 0 10 -262144
-1 -1;
#X floatatom -6596 547 5 0 0 0 - - -;
#X msg -6689 531 1;
#X msg -6731 521 2;
#X msg -6792 533 3;
#X obj -6446 198 average 20;
#X obj -6391 420 max;
#X msg -6368 250 4000;
#X msg -6326 259 2000;
#X obj -6711 276 t b b;
#X msg -6689 317 25;
#X obj -6658 275 t b b;
#X msg -6636 316 30;
#X obj -6758 375 expr if ($f1 > $f2 \, 3 \, 0) \; if ($f1 <= $f2 &&
$f1 > 15 \, 2 \, 0) \; if ($f1 <= 15 \, 1 \, 0);
#X obj -6616 615 s myodyn;
#X obj -6380 5 inlet;
#X connect 0 0 1 0;
#X connect 0 0 2 0;
#X connect 0 0 3 0;
#X connect 3 0 4 0;
#X connect 3 0 5 0;
#X connect 5 0 26 0;
#X connect 6 0 7 0;
#X connect 6 0 10 0;
#X connect 6 1 8 0;
#X connect 8 1 15 0;
#X connect 10 0 14 0;
#X connect 11 0 12 1;
#X connect 12 0 6 1;
#X connect 13 0 9 0;
#X connect 13 0 34 0;
#X connect 14 0 13 0;
#X connect 15 0 12 0;
#X connect 16 1 17 0;
#X connect 16 1 25 0;
#X connect 16 1 30 0;
#X connect 18 1 19 0;
#X connect 18 1 24 0;
#X connect 18 1 29 0;
#X connect 18 1 32 0;
#X connect 20 1 21 0;
#X connect 20 1 23 0;
#X connect 20 1 32 0;
#X connect 22 0 35 0;
#X connect 23 0 22 0;
#X connect 24 0 22 0;
#X connect 25 0 22 0;
#X connect 26 0 6 0;
#X connect 26 0 11 0;
#X connect 28 0 15 1;
#X connect 29 0 15 1;
#X connect 30 1 31 0;
#X connect 31 0 34 1;
#X connect 32 1 33 0;
#X connect 33 0 34 1;
#X connect 34 0 16 0;
#X connect 34 1 18 0;
#X connect 34 2 20 0;
#X connect 36 0 0 0;
#X restore 1196 32 pd myo;
#X obj 570 451 metro 10;
#X obj 67 -52 OSCroute /gestureDone;
#X obj 90 -28 bng 15 250 50 0 empty empty empty 17 7 0 10 -262144 -1
-1;
#X msg 210 381 send /agent1 left \$1;
#X msg 345 382 send /agent1 right \$1;
#X obj 837 410 speedlim 1;
#X obj 327 -51 sel 0;
#X obj 58 -5 del 500;
#X obj 119 -7 del 700;
#X obj 591 631 spigot;
#X obj 591 610 bng 15 250 50 0 empty empty empty 0 -6 0 8 -262144 -1
-1;
#X obj 591 657 bng 15 250 50 0 empty empty empty 0 -6 0 8 -262144 -1
-1;
#X obj 656 658 tgl 15 0 empty empty empty 0 -6 0 8 -262144 -1 -1 1
1;
#X msg 658 706 1;
#X obj 691 705 -;
#X obj 691 737 tgl 15 0 empty empty empty 0 -6 0 8 -262144 -1 -1 0
1;
#X obj 657 684 bng 15 250 50 0 empty empty empty 0 -6 0 8 -262144 -1
-1;
#X obj 656 631 del 100;
#X obj 715 583 loadbang;
#X msg 716 610 1;
#X obj 692 761 sel 0;
#X msg 721 825 1;
#X msg 692 818 0;
#X obj 853 630 spigot;
#X obj 853 609 bng 15 250 50 0 empty empty empty 0 -6 0 8 -262144 -1
-1;
#X obj 853 656 bng 15 250 50 0 empty empty empty 0 -6 0 8 -262144 -1
-1;
#X obj 918 657 tgl 15 0 empty empty empty 0 -6 0 8 -262144 -1 -1 1
1;
#X msg 920 705 1;
#X obj 953 704 -;
#X obj 953 736 tgl 15 0 empty empty empty 0 -6 0 8 -262144 -1 -1 0
1;
#X obj 919 683 bng 15 250 50 0 empty empty empty 0 -6 0 8 -262144 -1
-1;
#X obj 954 760 sel 0;
#X msg 992 813 1;
#X msg 954 817 0;
#X msg 233 49 10;
#X obj 918 630 del 200;
#X obj 692 790 t b b b b b b;
#X obj 780 766 del 130;
#X obj 799 788 del 80;
#X obj 971 537 del 130;
#X obj 990 559 del 80;
#X obj 953 789 t b b b b b b;
#X obj 1044 65 OSCroute /emg;
#X obj 1062 130 s myodyn;
#X floatatom 1133 103 5 0 0 0 - - -;
#X obj 733 185 SOPI1arduino;
#X connect 0 0 86 0;
#X connect 1 0 86 0;
#X connect 2 0 54 0;
#X connect 7 0 86 0;
#X connect 8 0 7 0;
#X connect 9 0 7 0;
#X connect 10 0 7 0;
#X connect 11 0 9 0;
#X connect 12 0 10 0;
#X connect 13 0 7 0;
#X connect 14 0 13 0;
#X connect 15 0 9 0;
#X connect 16 0 10 0;
#X connect 17 0 10 0;
#X connect 18 0 10 0;
#X connect 19 0 7 0;
#X connect 20 0 19 0;
#X connect 20 0 122 0;
#X connect 21 0 32 0;
#X connect 21 0 72 0;
#X connect 21 1 33 0;
#X connect 21 1 73 0;
#X connect 24 0 25 0;
#X connect 24 0 44 0;
#X connect 25 0 27 0;
#X connect 25 0 31 0;
#X connect 27 0 28 0;
#X connect 27 1 26 0;
#X connect 28 0 29 0;
#X connect 30 1 36 0;
#X connect 31 0 30 0;
#X connect 32 0 34 0;
#X connect 33 0 35 0;
#X connect 34 1 110 0;
#X connect 35 1 113 0;
#X connect 37 0 43 0;
#X connect 37 0 52 0;
#X connect 37 0 117 0;
#X connect 37 0 158 0;
#X connect 38 0 121 0;
#X connect 38 0 140 0;
#X connect 39 0 102 0;
#X connect 40 0 41 0;
#X connect 40 0 126 0;
#X connect 41 0 50 0;
#X connect 42 0 104 0;
#X connect 43 0 68 0;
#X connect 43 0 84 2;
#X connect 43 0 39 0;
#X connect 43 0 96 0;
#X connect 43 1 69 0;
#X connect 43 1 84 1;
#X connect 43 1 42 0;
#X connect 44 0 47 0;
#X connect 44 0 20 0;
#X connect 45 0 119 0;
#X connect 46 0 120 0;
#X connect 47 0 116 0;
#X connect 48 0 88 0;
#X connect 49 0 87 0;
#X connect 50 0 7 0;
#X connect 51 0 7 0;
#X connect 52 1 53 0;
#X connect 54 0 21 0;
#X connect 54 1 55 0;
#X connect 55 0 56 0;
#X connect 55 1 57 0;
#X connect 56 1 58 1;
#X connect 57 1 58 0;
#X connect 58 0 66 0;
#X connect 58 0 94 0;
#X connect 58 0 95 0;
#X connect 58 0 89 0;
#X connect 60 0 59 0;
#X connect 60 0 63 0;
#X connect 60 0 65 0;
#X connect 61 0 97 0;
#X connect 61 0 20 0;
#X connect 62 0 42 0;
#X connect 63 0 30 0;
#X connect 67 0 84 0;
#X connect 74 0 50 0;
#X connect 75 0 39 0;
#X connect 75 0 140 0;
#X connect 76 0 42 0;
#X connect 76 0 126 0;
#X connect 77 0 41 0;
#X connect 77 0 121 0;
#X connect 78 0 77 0;
#X connect 79 0 77 0;
#X connect 81 0 45 1;
#X connect 82 0 46 1;
#X connect 83 0 86 0;
#X connect 84 0 161 1;
#X connect 84 1 161 0;
#X connect 86 0 2 0;
#X connect 89 0 60 0;
#X connect 89 0 64 0;
#X connect 90 0 9 0;
#X connect 91 0 12 0;
#X connect 91 0 93 0;
#X connect 91 0 90 0;
#X connect 92 0 9 0;
#X connect 93 0 13 0;
#X connect 97 0 101 0;
#X connect 97 0 118 0;
#X connect 99 0 9 0;
#X connect 101 0 98 0;
#X connect 102 0 106 0;
#X connect 104 0 105 0;
#X connect 105 0 40 0;
#X connect 106 0 38 0;
#X connect 107 0 30 0;
#X connect 107 1 30 0;
#X connect 107 2 30 0;
#X connect 109 0 107 1;
#X connect 110 0 111 0;
#X connect 111 0 48 0;
#X connect 112 0 49 0;
#X connect 113 0 112 0;
#X connect 116 0 46 0;
#X connect 116 0 45 0;
#X connect 116 0 107 0;
#X connect 117 0 118 0;
#X connect 118 0 123 0;
#X connect 118 0 124 0;
#X connect 119 0 30 0;
#X connect 120 0 30 0;
#X connect 121 0 51 0;
#X connect 122 0 118 0;
#X connect 123 0 17 0;
#X connect 124 0 91 0;
#X connect 125 0 127 0;
#X connect 126 0 125 0;
#X connect 127 0 128 0;
#X connect 127 0 133 0;
#X connect 128 0 125 1;
#X connect 128 0 130 1;
#X connect 128 0 132 0;
#X connect 129 0 130 0;
#X connect 130 0 131 0;
#X connect 131 0 136 0;
#X connect 132 0 129 0;
#X connect 133 0 128 0;
#X connect 134 0 135 0;
#X connect 135 0 128 0;
#X connect 135 0 142 0;
#X connect 136 0 152 0;
#X connect 137 0 20 0;
#X connect 138 0 20 0;
#X connect 139 0 141 0;
#X connect 140 0 139 0;
#X connect 141 0 142 0;
#X connect 141 0 151 0;
#X connect 142 0 139 1;
#X connect 142 0 144 1;
#X connect 142 0 146 0;
#X connect 143 0 144 0;
#X connect 144 0 145 0;
#X connect 145 0 147 0;
#X connect 146 0 143 0;
#X connect 147 0 157 0;
#X connect 148 0 20 0;
#X connect 149 0 20 0;
#X connect 150 0 13 0;
#X connect 151 0 142 0;
#X connect 152 0 138 0;
#X connect 152 1 137 0;
#X connect 152 2 153 0;
#X connect 152 3 154 0;
#X connect 152 4 138 0;
#X connect 152 5 137 0;
#X connect 153 0 138 0;
#X connect 154 0 137 0;
#X connect 155 0 149 0;
#X connect 156 0 148 0;
#X connect 157 0 149 0;
#X connect 157 1 148 0;
#X connect 157 2 155 0;
#X connect 157 3 156 0;
#X connect 157 4 149 0;
#X connect 157 5 148 0;
#X connect 158 0 159 0;
#X connect 158 0 160 0;
#X connect 161 0 109 0;
