#N canvas 323 415 1593 1080 10;
#X declare -lib moocow;
#X declare -lib flib;
#X declare -lib zexy;
#X msg 30 154 devices;
#X msg 52 209 close;
#N canvas 436 396 1280 723 parsebytes 0;
#X obj 129 64 inlet;
#X obj 129 103 select 10 13;
#X obj 129 139 zl group 50;
#X obj 129 210 outlet;
#X obj 392 67 import moocow;
#X obj 129 165 bytes2any;
#X connect 0 0 1 0;
#X connect 1 0 2 0;
#X connect 1 2 2 0;
#X connect 2 0 5 0;
#X connect 5 0 3 0;
#X restore 30 347 pd parsebytes;
#X text 86 156 print available serial devices;
#X text 89 183 open serial port (change the number to your port);
#X text 93 211 close serial port;
#X text 213 252 the data you want to write to the arduino;
#X obj 79 284 prepend print;
#X obj 86 252 receive serial_print;
#X msg 43 114 S\$1K;
#X msg 102 116 D\$1K;
#X floatatom 43 73 5 0 0 0 - - -;
#X msg 127 50 255;
#X msg 184 124 P\$1K;
#X floatatom 204 95 5 0 0 0 - - -;
#X msg 67 91 150;
#X msg 165 72 60;
#X floatatom 91 53 5 0 0 0 - - -;
#X msg 366 4 M\$1K;
#X obj 383 -56 tgl 15 0 empty empty empty 17 7 0 10 -262144 -1 -1 0
1;
#X obj 30 393 unpack f f;
#X text 58 -70 motor parameters;
#X text 401 -81 manual mode on/off;
#X obj 441 15 loadbang;
#X msg 466 114 \; pd dsp 1 \;;
#X obj 420 70 t b b;
#X obj 334 615 sendOSC;
#X msg 362 425 connect 10.0.0.4 9000;
#X obj 30 412 change;
#X obj 87 412 change;
#X obj 30 442 sel -1;
#X obj 87 445 sel -1;
#X floatatom 407 639 5 0 0 0 - - -;
#X obj 895 5 dumpOSC 9000;
#X floatatom 837 387 5 0 0 0 - - -;
#X obj 837 410 speedlim 1;
#X obj 837 310 int;
#X floatatom 763 315 5 0 0 0 - - -;
#X obj 758 340 speedlim 1;
#X obj 763 238 int;
#X obj 884 105 OSCroute /left /right;
#X msg 420 -24 1;
#X obj 216 338 f;
#X obj 320 337 f;
#X obj 384 175 tgl 15 0 empty empty empty 17 7 0 10 -262144 -1 -1 1
1;
#X obj 23 522 change;
#X obj 81 522 change;
#X msg 763 362 A\$1K;
#X msg 837 434 B\$1K;
#X floatatom 691 219 5 0 0 0 - - -;
#X obj 30 369 route S C;
#X obj 143 401 unpack f f;
#X obj 143 439 sel -1;
#X obj 200 439 sel -1;
#X obj 184 466 +;
#X obj 197 545 s manual;
#X obj 195 519 change;
#X obj 268 -68 r manual;
#X floatatom 1006 300 5 0 0 0 - - -;
#X floatatom 333 641 5 0 0 0 - - -;
#X floatatom 110 610 5 0 0 0 - - -;
#X floatatom 185 632 5 0 0 0 - - -;
#X floatatom 29 615 5 0 0 0 - - -;
#X obj 574 89 r manual;
#X floatatom 914 200 5 0 0 0 - - -;
#X floatatom 961 203 5 0 0 0 - - -;
#X floatatom 195 672 5 0 0 0 - - -;
#X floatatom 248 673 5 0 0 0 - - -;
#X floatatom 54 657 5 0 0 0 - - -;
#X floatatom 107 658 5 0 0 0 - - -;
#X floatatom 720 479 5 0 0 0 - - -;
#X floatatom 810 1061 5 0 0 0 - - -;
#X obj 976 365 vsl 15 128 10 660 0 0 empty empty empty 0 -9 0 10 -262144
-1 -1 0 1;
#X obj 603 189 vsl 15 128 10 660 0 0 empty empty empty 0 -9 0 10 -262144
-1 -1 0 1;
#X obj 210 301 r noisaLeft;
#X obj 304 277 r noisaRight;
#X obj 732 189 SOPI1arduino;
#X msg 41 182 open 0;
#N canvas 367 317 487 374 inputSelect 0;
#X obj 85 76 inlet;
#X obj 161 135 inlet;
#X obj 328 126 inlet;
#X obj 114 210 switch 2;
#X obj 102 133 sel 0 1;
#X msg 140 169 1;
#X msg 102 170 2;
#X obj 285 207 switch 2;
#X obj 273 130 sel 0 1;
#X msg 311 166 1;
#X msg 273 167 2;
#X obj 128 279 outlet;
#X obj 286 275 outlet;
#X obj 157 77 r noisaRight;
#X obj 316 78 r noisaLeft;
#X connect 0 0 4 0;
#X connect 0 0 8 0;
#X connect 1 0 3 2;
#X connect 2 0 7 2;
#X connect 3 0 11 0;
#X connect 4 0 6 0;
#X connect 4 1 5 0;
#X connect 5 0 3 0;
#X connect 6 0 3 0;
#X connect 7 0 12 0;
#X connect 8 0 10 0;
#X connect 8 1 9 0;
#X connect 9 0 7 0;
#X connect 10 0 7 0;
#X connect 13 0 3 1;
#X connect 14 0 7 1;
#X restore 708 151 pd inputSelect;
#X text 710 681 Left 150 - 789 Right 143 - 873;
#X obj 29 314 comport 0 115200;
#X obj 185 492 > 8000;
#X obj 151 19 loadbang;
#X msg 195 75 100;
#X msg 279 553 send /agent3 manual \$1;
#N canvas 93 183 450 391 sig_gate 0;
#X obj 118 72 inlet~;
#X obj 119 319 outlet~;
#X obj 89 188 change;
#X obj 105 234 *~;
#X obj 81 147 expr if ($f1 < -50 \, 0 \, 1);
#X obj 72 118 pvu~;
#X connect 0 0 3 0;
#X connect 0 0 5 0;
#X connect 2 0 3 1;
#X connect 3 0 1 0;
#X connect 4 0 2 0;
#X connect 5 0 4 0;
#X restore 613 429 pd sig_gate;
#X obj 623 -31 import flib;
#X obj 492 293 metro 10;
#X obj 486 226 tgl 15 0 empty empty empty 17 7 0 10 -262144 -1 -1 0
1;
#N canvas 497 201 1367 829 analysis 0;
#X obj 201 -19 mspec~;
#X obj 204 -62 rfft~;
#X obj -49 26 ss~;
#X floatatom -50 47 15 0 0 0 - - -;
#X text 253 -27 Get magnitude spectrum from fft. Argument of 2 gives
power spectrum.;
#X text 262 21 Get spectral peaks from magnitudes and estimate frequency.
Argumnent or right inlet sets threshold as percentage of the maximum
peak detected in each frame;
#X obj -50 67 average 50;
#X floatatom -46 134 5 0 0 0 - - -;
#X obj 723 -127 energy;
#X obj 725 -99 hsl 100 20 0 0.1 0 0 empty empty 0___________0.1 -2
-8 0 10 -262144 -1 -1 0 1;
#X msg 761 -150 lt 27;
#X msg 761 -169 st 6;
#X text 735 -77 energy levels;
#X floatatom 703 -39 10 0 0 0 - - -;
#X obj 202 42 peak~ 40;
#X text 689 -17 191 = 440 Osc;
#X obj 686 259 gravmagspec;
#X floatatom 687 281 5 0 0 0 - - -;
#X obj 687 300 average;
#X obj 688 322 int;
#X floatatom 690 346 5 0 0 0 - - -;
#X obj 778 225 vsl 20 128 20 20000 0 0 empty empty empty 0 -9 0 10
-262144 -1 -1 0 1;
#X text 754 -63 Useful to draw attack and decay;
#X text 806 343 20hz;
#X text 803 217 20 \, 000hz;
#X text 315 -162 Analysis Tool;
#X text -67 177 0 = White Noise -3 = 440 Sine;
#X text 601 365 Doubles the value with sine waves \, only starts working
from 250 onwards;
#X text 651 214 Spectral Centroid:;
#X text -18 20 Spectral Smoothness;
#X text 702 -166 Energy;
#X obj 0 348 f;
#X obj 113 304 bang;
#X obj 81 259 inlet;
#X obj 114 342 f;
#X obj 209 345 f;
#X text -59 -27 comment;
#X obj 333 -120 inlet~;
#X obj 263 370 f;
#X floatatom 1016 586 5 0 0 0 BPM - -;
#X floatatom 1072 677 5 0 0 3 acceleration_BPM - -;
#X obj 1027 538 unpack;
#X floatatom 1067 558 5 0 0 1 ms - -;
#X obj 947 474 tempoest2;
#X obj 1018 465 pack 0 0;
#X obj 1019 442 t b f;
#N canvas 904 241 189 260 acceleration 0;
#X obj 48 203 outlet;
#X obj 48 179 avg4pt2;
#X obj 48 17 inlet;
#X obj 46 116 route 0 1;
#X obj 46 69 f;
#X obj 77 69 + 1;
#X obj 110 70 mod 2;
#X obj 47 156 -;
#X obj 47 45 t b f b;
#X obj 80 138 t b f;
#X obj 47 94 pack;
#X connect 1 0 0 0;
#X connect 2 0 8 0;
#X connect 3 0 7 0;
#X connect 3 1 9 0;
#X connect 4 0 5 0;
#X connect 4 0 10 0;
#X connect 5 0 6 0;
#X connect 6 0 4 1;
#X connect 7 0 1 0;
#X connect 8 0 4 0;
#X connect 8 1 10 1;
#X connect 8 2 4 0;
#X connect 9 0 7 0;
#X connect 9 1 7 1;
#X connect 9 1 10 1;
#X connect 10 0 3 0;
#X restore 1082 632 pd acceleration;
#X obj 601 641 spigot;
#X obj 601 620 bng 15 250 50 0 empty empty empty 0 -6 0 8 -262144 -1
-1;
#X obj 601 667 bng 15 250 50 0 empty empty empty 0 -6 0 8 -262144 -1
-1;
#X obj 666 668 tgl 15 0 empty empty empty 0 -6 0 8 -262144 -1 -1 1
1;
#X obj 601 481 vsl 15 128 0 127 0 0 empty empty empty 0 -8 0 8 -262144
-1 -1 0 1;
#X msg 557 486 0;
#X msg 623 486 50;
#X obj 699 614 nbx 5 14 -1e+37 1e+37 0 0 empty empty empty 0 -6 0 10
-262144 -1 -1 300 256;
#X text 687 622 threshold - if no activity for x seconds \, reopen
the spigot;
#X obj 666 641 del 200;
#X msg 668 716 1;
#X obj 701 715 -;
#X obj 701 747 tgl 15 0 empty empty empty 0 -6 0 8 -262144 -1 -1 0
1;
#X obj 667 694 bng 15 250 50 0 empty empty empty 0 -6 0 8 -262144 -1
-1;
#X text 672 773 1 if active \, 0 if not;
#X obj 872 695 sel 1;
#X floatatom 1296 615 5 0 0 0 - - -;
#X obj 1241 578 average 10;
#X obj 1031 780 r bang slider;
#X obj 536 572 loadbang;
#X msg 700 536 300;
#X obj 729 476 bng 15 250 50 0 empty empty empty 17 7 0 10 -262144
-1 -1;
#X obj 452 526 sel 1;
#X text 1283 631 ms Average;
#X obj 742 47 rmstodb;
#X floatatom 751 111 5 0 0 0 - - -;
#X obj 166 701 list trim;
#X obj -25 519 list prepend;
#X floatatom -30 371 5 0 0 0 - - -;
#X floatatom 102 372 5 0 0 0 - - -;
#X msg -36 425 smoothness \$1;
#X msg 104 426 centroid \$1;
#X floatatom 118 448 5 0 0 0 - - -;
#X msg 79 500 energy \$1;
#X obj 159 670 list prepend send /agent3;
#X obj 32 589 list prepend;
#X msg 157 540 tempo \$1;
#X floatatom 176 489 5 0 0 0 - - -;
#X obj 179 739 outlet;
#X obj -28 475 list prepend;
#X obj -29 399 change;
#X obj 101 398 change;
#X obj 95 478 change;
#X obj 167 514 change;
#X obj 338 704 prepend send /agent3;
#X obj 333 735 outlet;
#X msg 353 673 attack3 \$1;
#X obj 470 703 prepend send /agent3;
#X obj 465 734 outlet;
#X msg 485 672 attack6 \$1;
#X obj 436 559 bng 15 250 50 0 empty empty empty 17 7 0 10 -262144
-1 -1;
#X obj 379 588 counter 2;
#X obj 469 588 counter 5;
#X obj 376 611 sel 2;
#X obj 479 614 sel 5;
#X msg 383 645 1;
#X msg 492 646 1;
#X obj 535 751 print;
#X connect 0 0 14 0;
#X connect 0 0 2 0;
#X connect 1 0 0 0;
#X connect 1 1 0 1;
#X connect 2 0 3 0;
#X connect 3 0 6 0;
#X connect 6 0 7 0;
#X connect 7 0 31 1;
#X connect 8 0 9 0;
#X connect 8 0 13 0;
#X connect 10 0 8 1;
#X connect 11 0 8 1;
#X connect 13 0 71 0;
#X connect 16 0 17 0;
#X connect 17 0 18 0;
#X connect 18 0 19 0;
#X connect 19 0 20 0;
#X connect 19 0 21 0;
#X connect 20 0 34 1;
#X connect 31 0 75 0;
#X connect 32 0 31 0;
#X connect 32 0 34 0;
#X connect 32 0 35 0;
#X connect 32 0 38 0;
#X connect 33 0 32 0;
#X connect 34 0 76 0;
#X connect 35 0 79 0;
#X connect 37 0 8 0;
#X connect 37 0 16 0;
#X connect 37 0 1 0;
#X connect 38 0 84 0;
#X connect 41 0 39 0;
#X connect 41 1 42 0;
#X connect 41 1 64 0;
#X connect 43 0 44 0;
#X connect 43 0 46 0;
#X connect 43 1 45 0;
#X connect 44 0 41 0;
#X connect 45 0 44 0;
#X connect 45 1 44 1;
#X connect 46 0 40 0;
#X connect 47 0 49 0;
#X connect 48 0 47 0;
#X connect 49 0 50 0;
#X connect 49 0 56 0;
#X connect 50 0 47 1;
#X connect 50 0 58 1;
#X connect 50 0 60 0;
#X connect 51 0 48 0;
#X connect 52 0 51 0;
#X connect 53 0 51 0;
#X connect 54 0 56 1;
#X connect 56 0 50 0;
#X connect 57 0 58 0;
#X connect 58 0 59 0;
#X connect 59 0 62 0;
#X connect 59 0 69 0;
#X connect 60 0 57 0;
#X connect 62 0 43 0;
#X connect 63 0 38 1;
#X connect 64 0 63 0;
#X connect 65 0 48 0;
#X connect 66 0 50 0;
#X connect 66 0 68 0;
#X connect 67 0 54 0;
#X connect 68 0 67 0;
#X connect 69 0 97 0;
#X connect 71 0 72 0;
#X connect 71 0 35 1;
#X connect 73 0 85 0;
#X connect 74 0 82 0;
#X connect 75 0 87 0;
#X connect 76 0 88 0;
#X connect 77 0 86 1;
#X connect 78 0 86 0;
#X connect 79 0 89 0;
#X connect 80 0 74 1;
#X connect 81 0 73 0;
#X connect 82 0 81 0;
#X connect 83 0 82 1;
#X connect 84 0 90 0;
#X connect 86 0 74 0;
#X connect 87 0 77 0;
#X connect 88 0 78 0;
#X connect 89 0 80 0;
#X connect 90 0 83 0;
#X connect 91 0 92 0;
#X connect 91 0 104 0;
#X connect 93 0 91 0;
#X connect 94 0 95 0;
#X connect 94 0 104 0;
#X connect 96 0 94 0;
#X connect 97 0 98 0;
#X connect 97 0 99 0;
#X connect 98 0 100 0;
#X connect 99 0 101 0;
#X connect 100 0 102 0;
#X connect 101 0 103 0;
#X connect 102 0 93 0;
#X connect 103 0 96 0;
#X restore 530 473 pd analysis;
#X obj 837 360 max 20;
#X obj 79 -55 OSCroute /gestureDone;
#X obj 116 -31 bng 15 250 50 0 empty empty empty 17 7 0 10 -262144
-1 -1;
#X obj 217 23 bng 15 250 50 0 empty empty empty 17 7 0 10 -262144 -1
-1;
#X obj 242 44 bng 15 250 50 0 empty empty empty 17 7 0 10 -262144 -1
-1;
#X obj 1080 277 line;
#X msg 1083 250 \$1 10;
#X obj 762 50 line;
#X msg 765 23 \$1 10;
#X floatatom 639 33 5 0 0 0 - - -;
#X obj 760 76 i;
#X obj 1085 308 i;
#X obj 662 74 print;
#X obj 135 -11 del 500;
#X obj 276 -12 change;
#X obj 281 22 sel 0;
#X obj 519 443 metro 10;
#X msg 210 381 send /agent3 left \$1;
#X msg 345 382 send /agent3 right \$1;
#X obj 524 532 r myodyn;
#X obj 522 560 change;
#X msg 516 589 send /agent3 myodyn \$1;
#X obj 440 43 del 12000;
#X msg 25 -5 10;
#X msg 28 47 10;
#X msg 58 41 10;
#X text 219 61 7 194 124;
#X obj 895 296 min 695;
#X obj 75 1 del 10;
#X floatatom 328 -47 5 0 0 0 - - -;
#X msg 121 77 200;
#X obj 696 522 spigot;
#X obj 696 501 bng 15 250 50 0 empty empty empty 0 -6 0 8 -262144 -1
-1;
#X obj 696 548 bng 15 250 50 0 empty empty empty 0 -6 0 8 -262144 -1
-1;
#X obj 761 549 tgl 15 0 empty empty empty 0 -6 0 8 -262144 -1 -1 1
1;
#X msg 763 597 1;
#X obj 796 596 -;
#X obj 796 628 tgl 15 0 empty empty empty 0 -6 0 8 -262144 -1 -1 0
1;
#X obj 762 575 bng 15 250 50 0 empty empty empty 0 -6 0 8 -262144 -1
-1;
#X obj 795 658 sel 0;
#X msg 891 663 1;
#X msg 845 652 0;
#X obj 433 -52 print;
#X obj 762 522 del 100;
#X obj 985 553 spigot;
#X obj 985 532 bng 15 250 50 0 empty empty empty 0 -6 0 8 -262144 -1
-1;
#X obj 985 579 bng 15 250 50 0 empty empty empty 0 -6 0 8 -262144 -1
-1;
#X obj 1050 580 tgl 15 0 empty empty empty 0 -6 0 8 -262144 -1 -1 1
1;
#X msg 1052 628 1;
#X obj 1085 627 -;
#X obj 1085 659 tgl 15 0 empty empty empty 0 -6 0 8 -262144 -1 -1 0
1;
#X obj 1051 606 bng 15 250 50 0 empty empty empty 0 -6 0 8 -262144
-1 -1;
#X obj 1084 689 sel 0;
#X msg 1175 662 1;
#X msg 1134 665 0;
#X obj 1051 553 del 100;
#X obj 839 521 loadbang;
#X msg 838 548 1;
#X obj 1085 509 t b b b b b b;
#X obj 1070 747 del 60;
#X obj 1021 749 del 80;
#X obj 855 608 t b b b b b b;
#X obj 725 760 del 100;
#X obj 676 762 del 150;
#X obj 18 567 s noisaLeft;
#X obj 106 560 s noisaRight;
#X obj 22 500 max 15;
#X obj 22 475 min 620;
#X obj 89 473 min 680;
#X obj 89 498 max 20;
#X obj 763 263 min 620;
#X obj 763 288 max 15;
#X obj 836 335 min 680;
#N canvas 246 152 1448 970 myo_first 0;
#X obj -6550 372 vsl 15 128 -50 50 0 0 empty empty empty 0 -9 0 10
-262144 -1 -1 0 1;
#X obj -6346 29 OSCroute /emg;
#X floatatom -6270 60 5 0 0 0 - - -;
#X obj -6323 83 smooth 0.6;
#X obj -6573 102 unpack 0 0 0 0 0 0 0 0;
#X obj -6360 256 smooth 0.6;
#X obj -6432 259 smooth 0.6;
#X obj -6366 420 vsl 15 128 -50 50 0 0 empty empty empty 0 -9 0 10
-262144 -1 -1 0 1;
#X obj -6308 430 vsl 15 128 -50 50 0 0 empty empty empty 0 -9 0 10
-262144 -1 -1 0 1;
#X obj -6254 438 vsl 15 128 -50 50 0 0 empty empty empty 0 -9 0 10
-262144 -1 -1 0 1;
#X obj -6196 450 vsl 15 128 -50 50 0 0 empty empty empty 0 -9 0 10
-262144 -1 -1 0 1;
#X obj -6156 451 vsl 15 128 -50 50 0 0 empty empty empty 0 -9 0 10
-262144 -1 -1 0 1;
#X obj -6120 459 vsl 15 128 -50 50 0 0 empty empty empty 0 -9 0 10
-262144 -1 -1 0 1;
#X obj -6200 233 smooth 0.6;
#X obj -6283 246 smooth 0.6;
#X obj -6018 237 smooth 0.6;
#X obj -6117 235 smooth 0.6;
#X obj -5860 232 smooth 0.6;
#X obj -5943 227 smooth 0.6;
#X floatatom -6180 756 5 0 0 0 - - -;
#X obj -6189 688 vsl 40 128 0.2 40 0 0 empty empty empty 0 -9 0 10
-262144 -1 -1 0 1;
#X obj -6434 235 speedlim 150;
#X obj -6354 229 speedlim 150;
#X obj -6270 225 speedlim 150;
#X obj -6200 210 speedlim 150;
#X obj -6120 207 speedlim 150;
#X obj -6022 210 speedlim 150;
#X obj -5940 198 speedlim 150;
#X obj -5859 202 speedlim 150;
#X floatatom -6027 434 8 0 0 0 - - -;
#X floatatom -6027 595 8 0 0 0 - - -;
#X obj -6024 612 hsl 200 20 0 1 0 0 empty empty curved_output 22 11
1 12 -262144 -1 -1 0 1;
#X obj -6024 408 hsl 200 20 0 1 0 0 empty empty raw_input 22 11 1 12
-261681 -1 -1 0 1;
#X obj -6027 524 exponential_curve;
#X obj -5924 468 hsl 50 15 0 1 0 0 \$0-x-slider \$0-x-slider-receive
x 5 9 0 11 -232576 -1 -1 0 0;
#X floatatom -5918 488 7 0 0 0 - - -;
#X floatatom -6080 747 5 0 0 0 - - -;
#X obj -6245 701 vsl 40 128 0 40 0 0 empty empty empty 0 -9 0 10 -262144
-1 -1 0 1;
#X msg -5901 342 reset;
#X obj -6211 647 expr (abs($f1) + abs($f2) + abs($f3) + abs($f4)) /
4;
#X obj -6243 673 line;
#X msg -6231 607 \$1 100;
#X obj -5997 370 autoscale 0 1 0 40;
#X obj -6419 418 vsl 15 128 -50 50 0 0 empty empty empty 0 -9 0 10
-262144 -1 -1 0 1;
#X floatatom -6228 61 5 0 0 0 - - -;
#X obj -6794 335 expr abs($f1);
#X obj -6808 498 peak;
#X floatatom -7066 711 5 0 0 0 - - -;
#X obj -6775 545 sel 0 1;
#X obj -6767 797 vsl 40 128 0 40 0 0 empty empty empty 0 -9 0 10 -262144
-1 -1 0 1;
#X obj -6822 580 smooth 0.6;
#X floatatom -6781 413 5 0 0 0 - - -;
#X obj -6801 442 float;
#X obj -6822 632 line;
#X msg -6816 605 \$1 100;
#X obj -6683 497 del 2000;
#X obj -7025 781 sel 0;
#X obj -7003 817 bng 15 250 50 0 empty empty empty 17 7 0 10 -262144
-1 -1;
#X obj -6939 777 sel 0;
#X obj -6917 813 bng 15 250 50 0 empty empty empty 17 7 0 10 -262144
-1 -1;
#X obj -6887 783 sel 0;
#X obj -6865 819 bng 15 250 50 0 empty empty empty 17 7 0 10 -262144
-1 -1;
#X floatatom -6586 867 5 0 0 0 - - -;
#X msg -6932 858 1;
#X msg -6974 848 2;
#X msg -7035 860 3;
#X obj -6809 381 average 20;
#X obj -6634 747 max;
#X msg -6654 460 4000;
#X msg -6612 469 2000;
#X obj -6954 603 t b b;
#X msg -6932 644 25;
#X obj -6901 602 t b b;
#X msg -6879 643 30;
#X obj -7001 702 expr if ($f1 > $f2 \, 3 \, 0) \; if ($f1 <= $f2 &&
$f1 > 15 \, 2 \, 0) \; if ($f1 <= 15 \, 1 \, 0);
#N canvas 253 138 766 590 smoothing 0;
#X obj 483 -357 expr abs($f1);
#X obj 451 -211 peak;
#X floatatom 56 -153 5 0 0 0 - - -;
#X obj 450 -175 sel 0 1;
#X obj 390 -39 vsl 40 128 0 40 0 0 empty empty empty 0 -9 0 10 -262144
-1 -1 0 1;
#X obj 403 -140 smooth 0.6;
#X floatatom 496 -279 5 0 0 0 - - -;
#X obj 476 -250 float;
#X obj 403 -88 line;
#X msg 409 -115 \$1 100;
#X obj 542 -223 del 2000;
#X obj 132 -55 sel 0;
#X obj 154 -19 bng 15 250 50 0 empty empty empty 17 7 0 10 -262144
-1 -1;
#X obj 218 -59 sel 0;
#X obj 240 -23 bng 15 250 50 0 empty empty empty 17 7 0 10 -262144
-1 -1;
#X obj 270 -53 sel 0;
#X obj 292 -17 bng 15 250 50 0 empty empty empty 17 7 0 10 -262144
-1 -1;
#X floatatom 244 64 5 0 0 0 - - -;
#X msg 225 22 1;
#X msg 183 12 2;
#X msg 122 24 3;
#X obj 468 -311 average 20;
#X obj 523 -89 max;
#X msg 571 -260 4000;
#X msg 613 -251 2000;
#X obj 203 -233 t b b;
#X obj 256 -234 t b b;
#X obj 484 -397 inlet;
#X obj 309 99 outlet;
#X msg 278 -193 60;
#X msg 225 -192 50;
#X obj 38 -118 expr if ($f1 > $f2 \, 3 \, 0) \; if ($f1 <= $f2 && $f1
> 25 \, 2 \, 0) \; if ($f1 <= 25 \, 1 \, 0);
#X connect 0 0 21 0;
#X connect 1 0 2 0;
#X connect 1 0 5 0;
#X connect 1 1 3 0;
#X connect 3 1 10 0;
#X connect 5 0 9 0;
#X connect 6 0 7 1;
#X connect 7 0 1 1;
#X connect 8 0 4 0;
#X connect 8 0 31 0;
#X connect 9 0 8 0;
#X connect 10 0 7 0;
#X connect 11 1 12 0;
#X connect 11 1 20 0;
#X connect 11 1 25 0;
#X connect 13 1 14 0;
#X connect 13 1 19 0;
#X connect 13 1 24 0;
#X connect 13 1 26 0;
#X connect 15 1 16 0;
#X connect 15 1 18 0;
#X connect 15 1 26 0;
#X connect 17 0 28 0;
#X connect 18 0 17 0;
#X connect 19 0 17 0;
#X connect 20 0 17 0;
#X connect 21 0 1 0;
#X connect 21 0 6 0;
#X connect 23 0 10 1;
#X connect 24 0 10 1;
#X connect 25 1 30 0;
#X connect 26 1 29 0;
#X connect 27 0 0 0;
#X connect 29 0 31 1;
#X connect 30 0 31 1;
#X connect 31 0 11 0;
#X connect 31 1 13 0;
#X connect 31 2 15 0;
#X restore -6582 265 pd smoothing;
#N canvas 257 148 766 590 smoothing 0;
#X obj 483 -357 expr abs($f1);
#X obj 451 -211 peak;
#X floatatom 91 -125 5 0 0 0 - - -;
#X obj 450 -175 sel 0 1;
#X obj 390 -39 vsl 40 128 0 40 0 0 empty empty empty 0 -9 0 10 -262144
-1 -1 0 1;
#X obj 403 -140 smooth 0.6;
#X floatatom 496 -279 5 0 0 0 - - -;
#X obj 476 -250 float;
#X obj 403 -88 line;
#X msg 409 -115 \$1 100;
#X obj 542 -223 del 2000;
#X obj 132 -55 sel 0;
#X obj 154 -19 bng 15 250 50 0 empty empty empty 17 7 0 10 -262144
-1 -1;
#X obj 218 -59 sel 0;
#X obj 240 -23 bng 15 250 50 0 empty empty empty 17 7 0 10 -262144
-1 -1;
#X obj 270 -53 sel 0;
#X obj 292 -17 bng 15 250 50 0 empty empty empty 17 7 0 10 -262144
-1 -1;
#X floatatom 244 64 5 0 0 0 - - -;
#X msg 225 22 1;
#X msg 183 12 2;
#X msg 122 24 3;
#X obj 468 -311 average 20;
#X obj 523 -89 max;
#X msg 571 -260 4000;
#X msg 613 -251 2000;
#X obj 203 -233 t b b;
#X obj 256 -234 t b b;
#X obj 484 -397 inlet;
#X obj 309 99 outlet;
#X msg 278 -193 60;
#X msg 225 -192 50;
#X obj 156 -134 expr if ($f1 > $f2 \, 3 \, 0) \; if ($f1 <= $f2 &&
$f1 > 40 \, 2 \, 0) \; if ($f1 <= 40 \, 1 \, 0);
#X connect 0 0 21 0;
#X connect 1 0 2 0;
#X connect 1 0 5 0;
#X connect 1 1 3 0;
#X connect 3 1 10 0;
#X connect 5 0 9 0;
#X connect 6 0 7 1;
#X connect 7 0 1 1;
#X connect 8 0 4 0;
#X connect 8 0 31 0;
#X connect 9 0 8 0;
#X connect 10 0 7 0;
#X connect 11 1 12 0;
#X connect 11 1 20 0;
#X connect 11 1 25 0;
#X connect 13 1 14 0;
#X connect 13 1 19 0;
#X connect 13 1 24 0;
#X connect 13 1 26 0;
#X connect 15 1 16 0;
#X connect 15 1 18 0;
#X connect 15 1 26 0;
#X connect 17 0 28 0;
#X connect 18 0 17 0;
#X connect 19 0 17 0;
#X connect 20 0 17 0;
#X connect 21 0 1 0;
#X connect 21 0 6 0;
#X connect 23 0 10 1;
#X connect 24 0 10 1;
#X connect 25 1 30 0;
#X connect 26 1 29 0;
#X connect 27 0 0 0;
#X connect 29 0 31 1;
#X connect 30 0 31 1;
#X connect 31 0 11 0;
#X connect 31 1 13 0;
#X connect 31 2 15 0;
#X restore -6503 305 pd smoothing;
#X floatatom -6597 812 5 0 0 0 - - -;
#X floatatom -6502 806 5 0 0 0 - - -;
#X obj -6422 731 expr ($i1 + $i2 + $i3) / 3;
#X floatatom -6421 845 5 0 0 0 - - -;
#X obj -6457 680 median;
#X obj -6619 557 pack 0 0 0;
#X floatatom -6467 840 5 0 0 0 - - -;
#X obj -6469 515 t b i;
#X obj -6624 508 t b i;
#X obj -6576 921 s myodyn;
#X obj -6380 5 inlet;
#X connect 1 0 2 0;
#X connect 1 0 3 0;
#X connect 1 0 4 0;
#X connect 4 0 21 0;
#X connect 4 0 44 0;
#X connect 4 0 45 0;
#X connect 4 1 22 0;
#X connect 4 1 75 0;
#X connect 4 2 23 0;
#X connect 4 2 76 0;
#X connect 4 3 24 0;
#X connect 4 4 25 0;
#X connect 4 5 26 0;
#X connect 4 6 27 0;
#X connect 4 7 28 0;
#X connect 5 0 7 0;
#X connect 5 0 39 1;
#X connect 6 0 39 0;
#X connect 6 0 43 0;
#X connect 13 0 9 0;
#X connect 13 0 39 3;
#X connect 14 0 8 0;
#X connect 14 0 39 2;
#X connect 15 0 11 0;
#X connect 16 0 10 0;
#X connect 17 0 0 0;
#X connect 18 0 12 0;
#X connect 21 0 6 0;
#X connect 22 0 5 0;
#X connect 23 0 14 0;
#X connect 24 0 13 0;
#X connect 25 0 16 0;
#X connect 26 0 15 0;
#X connect 27 0 18 0;
#X connect 28 0 17 0;
#X connect 29 0 33 0;
#X connect 30 0 31 0;
#X connect 32 0 29 0;
#X connect 33 0 30 0;
#X connect 34 0 35 0;
#X connect 35 0 33 1;
#X connect 38 0 42 0;
#X connect 39 0 19 0;
#X connect 39 0 20 0;
#X connect 39 0 41 0;
#X connect 40 0 37 0;
#X connect 40 0 42 0;
#X connect 41 0 40 0;
#X connect 42 0 32 0;
#X connect 45 0 66 0;
#X connect 46 0 47 0;
#X connect 46 0 50 0;
#X connect 46 1 48 0;
#X connect 48 1 55 0;
#X connect 50 0 54 0;
#X connect 51 0 52 1;
#X connect 52 0 46 1;
#X connect 53 0 49 0;
#X connect 53 0 74 0;
#X connect 54 0 53 0;
#X connect 55 0 52 0;
#X connect 56 1 57 0;
#X connect 56 1 65 0;
#X connect 56 1 70 0;
#X connect 58 1 59 0;
#X connect 58 1 64 0;
#X connect 58 1 69 0;
#X connect 58 1 72 0;
#X connect 60 1 61 0;
#X connect 60 1 63 0;
#X connect 60 1 72 0;
#X connect 62 0 79 0;
#X connect 62 0 86 0;
#X connect 63 0 62 0;
#X connect 63 0 82 0;
#X connect 64 0 62 0;
#X connect 65 0 62 0;
#X connect 66 0 46 0;
#X connect 66 0 51 0;
#X connect 68 0 55 1;
#X connect 69 0 55 1;
#X connect 70 1 71 0;
#X connect 71 0 74 1;
#X connect 72 1 73 0;
#X connect 73 0 74 1;
#X connect 74 0 56 0;
#X connect 74 1 58 0;
#X connect 74 2 60 0;
#X connect 75 0 77 0;
#X connect 75 0 79 1;
#X connect 75 0 85 0;
#X connect 76 0 78 0;
#X connect 76 0 79 2;
#X connect 76 0 84 0;
#X connect 79 0 80 0;
#X connect 81 0 83 0;
#X connect 82 0 81 0;
#X connect 84 0 82 0;
#X connect 84 1 82 2;
#X connect 85 0 82 0;
#X connect 85 1 82 1;
#X connect 87 0 1 0;
#X restore 1380 97 pd myo_first;
#N canvas 557 217 1448 970 myo_nime 0;
#X obj -6346 29 OSCroute /emg;
#X floatatom -6270 60 5 0 0 0 - - -;
#X obj -6573 102 unpack 0 0 0 0 0 0 0 0;
#X floatatom -6228 61 5 0 0 0 - - -;
#X obj -6794 335 expr abs($f1);
#X obj -6808 498 peak;
#X floatatom -6470 560 5 0 0 0 - - -;
#X obj -6787 529 sel 0 1;
#X obj -6822 580 smooth 0.6;
#X floatatom -6781 413 5 0 0 0 - - -;
#X obj -6801 442 float;
#X obj -6822 632 line;
#X msg -6816 605 \$1 100;
#X obj -6728 502 del 2000;
#X obj -7025 781 sel 0;
#X obj -7003 817 bng 15 250 50 0 empty empty empty 17 7 0 10 -262144
-1 -1;
#X obj -6939 777 sel 0;
#X obj -6917 813 bng 15 250 50 0 empty empty empty 17 7 0 10 -262144
-1 -1;
#X obj -6887 783 sel 0;
#X obj -6865 819 bng 15 250 50 0 empty empty empty 17 7 0 10 -262144
-1 -1;
#X floatatom -6997 889 5 0 0 0 - - -;
#X msg -6932 858 1;
#X msg -6974 848 2;
#X msg -7035 860 3;
#X obj -6809 381 average 20;
#X msg -6724 453 4000;
#X msg -6682 462 2000;
#X obj -6956 591 t b b;
#X msg -6932 644 25;
#X obj -6901 602 t b b;
#X msg -6879 643 30;
#X obj -7001 702 expr if ($f1 > $f2 \, 3 \, 0) \; if ($f1 <= $f2 &&
$f1 > 15 \, 2 \, 0) \; if ($f1 <= 15 \, 1 \, 0);
#X obj -6994 928 s myodyn;
#X obj -6380 5 inlet;
#X connect 0 0 1 0;
#X connect 0 0 2 0;
#X connect 2 0 3 0;
#X connect 2 0 4 0;
#X connect 4 0 24 0;
#X connect 5 0 6 0;
#X connect 5 0 8 0;
#X connect 5 1 7 0;
#X connect 7 1 13 0;
#X connect 8 0 12 0;
#X connect 9 0 10 1;
#X connect 10 0 5 1;
#X connect 11 0 31 0;
#X connect 12 0 11 0;
#X connect 13 0 10 0;
#X connect 14 1 15 0;
#X connect 14 1 23 0;
#X connect 14 1 27 0;
#X connect 16 1 17 0;
#X connect 16 1 22 0;
#X connect 16 1 26 0;
#X connect 16 1 29 0;
#X connect 18 1 19 0;
#X connect 18 1 21 0;
#X connect 18 1 29 0;
#X connect 20 0 32 0;
#X connect 21 0 20 0;
#X connect 22 0 20 0;
#X connect 23 0 20 0;
#X connect 24 0 5 0;
#X connect 24 0 9 0;
#X connect 25 0 13 1;
#X connect 26 0 13 1;
#X connect 27 1 28 0;
#X connect 28 0 31 1;
#X connect 29 1 30 0;
#X connect 30 0 31 1;
#X connect 31 0 14 0;
#X connect 31 1 16 0;
#X connect 31 2 18 0;
#X connect 33 0 0 0;
#X restore 1259 127 pd myo_nime;
#X obj 1051 108 OSCroute /emg;
#X obj 1055 169 s myodyn;
#X floatatom 1133 188 5 0 0 0 - - -;
#X obj 1220 224 vsl 15 128 0 1 0 0 empty empty empty 0 -9 0 10 -262144
-1 -1 3810 1;
#X obj 317 110 spigot;
#X obj 357 56 sel 1;
#X msg 345 78 0;
#X msg 376 80 1;
#X connect 0 0 80 0;
#X connect 1 0 80 0;
#X connect 2 0 50 0;
#X connect 7 0 80 0;
#X connect 8 0 7 0;
#X connect 9 0 7 0;
#X connect 10 0 7 0;
#X connect 11 0 9 0;
#X connect 12 0 10 0;
#X connect 13 0 7 0;
#X connect 14 0 13 0;
#X connect 15 0 9 0;
#X connect 16 0 10 0;
#X connect 17 0 10 0;
#X connect 18 0 7 0;
#X connect 19 0 18 0;
#X connect 20 0 28 0;
#X connect 20 0 68 0;
#X connect 20 1 29 0;
#X connect 20 1 69 0;
#X connect 23 0 41 0;
#X connect 23 0 112 0;
#X connect 25 1 24 0;
#X connect 26 0 59 0;
#X connect 26 1 32 0;
#X connect 27 0 26 0;
#X connect 28 0 30 0;
#X connect 29 0 31 0;
#X connect 30 1 157 0;
#X connect 31 1 158 0;
#X connect 33 0 40 0;
#X connect 33 0 91 0;
#X connect 33 0 165 0;
#X connect 34 0 35 0;
#X connect 34 0 135 0;
#X connect 35 0 48 0;
#X connect 36 0 162 0;
#X connect 37 0 38 0;
#X connect 37 0 122 0;
#X connect 38 0 47 0;
#X connect 39 0 160 0;
#X connect 40 0 64 0;
#X connect 40 0 78 2;
#X connect 40 0 39 0;
#X connect 40 1 65 0;
#X connect 40 1 78 1;
#X connect 40 1 36 0;
#X connect 41 0 44 0;
#X connect 41 0 19 0;
#X connect 42 0 107 0;
#X connect 43 0 108 0;
#X connect 44 0 106 0;
#X connect 45 0 154 0;
#X connect 46 0 155 0;
#X connect 47 0 7 0;
#X connect 48 0 7 0;
#X connect 50 0 20 0;
#X connect 50 1 51 0;
#X connect 51 0 52 0;
#X connect 51 1 53 0;
#X connect 52 1 54 1;
#X connect 53 1 54 0;
#X connect 54 0 62 0;
#X connect 54 0 81 0;
#X connect 56 0 55 0;
#X connect 56 0 84 0;
#X connect 56 0 61 0;
#X connect 57 0 19 0;
#X connect 57 0 104 0;
#X connect 57 0 170 0;
#X connect 58 0 39 0;
#X connect 63 0 78 0;
#X connect 63 0 49 0;
#X connect 70 0 47 0;
#X connect 72 0 35 0;
#X connect 72 0 135 0;
#X connect 73 0 38 0;
#X connect 73 0 122 0;
#X connect 74 0 42 1;
#X connect 75 0 43 1;
#X connect 76 0 85 0;
#X connect 77 0 80 0;
#X connect 78 0 76 0;
#X connect 78 1 76 1;
#X connect 80 0 2 0;
#X connect 81 0 56 0;
#X connect 81 0 60 0;
#X connect 82 0 83 0;
#X connect 82 0 115 0;
#X connect 82 0 12 0;
#X connect 83 0 13 0;
#X connect 84 0 26 0;
#X connect 85 0 89 1;
#X connect 88 0 87 0;
#X connect 89 0 26 0;
#X connect 89 1 26 0;
#X connect 89 2 26 0;
#X connect 90 0 34 0;
#X connect 91 0 92 0;
#X connect 92 0 103 0;
#X connect 92 0 118 0;
#X connect 95 0 101 0;
#X connect 96 0 95 0;
#X connect 97 0 99 0;
#X connect 97 0 100 0;
#X connect 98 0 97 0;
#X connect 100 0 78 2;
#X connect 100 0 102 0;
#X connect 101 0 78 1;
#X connect 103 0 82 0;
#X connect 103 0 93 0;
#X connect 104 0 105 0;
#X connect 104 0 92 0;
#X connect 106 0 43 0;
#X connect 106 0 42 0;
#X connect 106 0 89 0;
#X connect 107 0 26 0;
#X connect 108 0 26 0;
#X connect 109 0 110 0;
#X connect 110 0 111 0;
#X connect 111 0 26 0;
#X connect 112 0 25 0;
#X connect 112 0 27 0;
#X connect 114 0 9 0;
#X connect 115 0 9 0;
#X connect 118 0 120 0;
#X connect 119 0 104 0;
#X connect 120 0 10 0;
#X connect 121 0 123 0;
#X connect 122 0 121 0;
#X connect 123 0 124 0;
#X connect 123 0 133 0;
#X connect 124 0 121 1;
#X connect 124 0 126 1;
#X connect 124 0 128 0;
#X connect 125 0 126 0;
#X connect 126 0 127 0;
#X connect 127 0 129 0;
#X connect 128 0 125 0;
#X connect 129 0 151 0;
#X connect 130 0 169 0;
#X connect 131 0 169 0;
#X connect 133 0 124 0;
#X connect 134 0 136 0;
#X connect 135 0 134 0;
#X connect 136 0 137 0;
#X connect 136 0 145 0;
#X connect 137 0 134 1;
#X connect 137 0 139 1;
#X connect 137 0 141 0;
#X connect 138 0 139 0;
#X connect 139 0 140 0;
#X connect 140 0 142 0;
#X connect 141 0 138 0;
#X connect 142 0 148 0;
#X connect 143 0 169 0;
#X connect 144 0 169 0;
#X connect 145 0 137 0;
#X connect 146 0 147 0;
#X connect 147 0 124 0;
#X connect 147 0 137 0;
#X connect 148 0 144 0;
#X connect 148 1 143 0;
#X connect 148 2 150 0;
#X connect 148 3 149 0;
#X connect 148 4 144 0;
#X connect 148 5 143 0;
#X connect 149 0 143 0;
#X connect 150 0 144 0;
#X connect 151 0 131 0;
#X connect 151 1 130 0;
#X connect 151 2 153 0;
#X connect 151 3 152 0;
#X connect 151 4 131 0;
#X connect 151 5 130 0;
#X connect 152 0 130 0;
#X connect 153 0 131 0;
#X connect 156 0 45 0;
#X connect 157 0 156 0;
#X connect 158 0 159 0;
#X connect 159 0 46 0;
#X connect 160 0 161 0;
#X connect 161 0 37 0;
#X connect 162 0 90 0;
#X connect 165 0 166 0;
#X connect 165 0 167 0;
#X connect 165 0 168 0;
#X connect 169 0 19 0;
#X connect 170 0 171 0;
#X connect 170 1 172 0;
#X connect 171 0 169 1;
#X connect 172 0 169 1;
