#N canvas 723 172 1154 780 10;
#X declare -lib moocow;
#X msg 30 154 devices;
#X msg 52 209 close;
#N canvas 436 396 1280 723 parsebytes 0;
#X obj 129 64 inlet;
#X obj 129 103 select 10 13;
#X obj 129 139 zl group 50;
#X obj 129 210 outlet;
#X obj 392 67 import moocow;
#X obj 129 165 bytes2any;
#X connect 0 0 1 0;
#X connect 1 0 2 0;
#X connect 1 2 2 0;
#X connect 2 0 5 0;
#X connect 5 0 3 0;
#X restore 30 347 pd parsebytes;
#X text 86 156 print available serial devices;
#X text 89 183 open serial port (change the number to your port);
#X text 93 211 close serial port;
#X text 213 252 the data you want to write to the arduino;
#X obj 79 284 prepend print;
#X obj 86 252 receive serial_print;
#X msg 50 23 S\$1K;
#X msg 109 25 D\$1K;
#X floatatom 50 -18 5 0 0 0 - - -;
#X msg 143 -45 255;
#X msg 191 33 P\$1K;
#X floatatom 211 4 5 0 0 0 - - -;
#X msg 74 0 150;
#X msg 172 -19 60;
#X msg 129 -14 40;
#X floatatom 98 -38 5 0 0 0 - - -;
#X msg 366 4 M\$1K;
#X obj 383 -56 tgl 15 0 empty empty empty 17 7 0 10 -262144 -1 -1 1
1;
#X obj 30 393 unpack f f;
#X text 58 -70 motor parameters;
#X text 401 -81 manual mode on/off;
#X obj 441 15 loadbang;
#X obj 440 43 del 2000;
#X msg 462 92 \; pd dsp 1 \;;
#X obj 420 70 t b b;
#X obj 390 97 del 10;
#X obj 393 127 s st;
#X obj 334 615 sendOSC;
#X msg 484 419 connect 10.0.0.4 9000;
#X obj 30 412 change;
#X obj 87 412 change;
#X msg 210 381 send /agent1 1 \$1;
#X msg 345 382 send /agent1 2 \$1;
#X obj 30 442 sel -1;
#X obj 87 445 sel -1;
#X floatatom 407 639 5 0 0 0 - - -;
#X obj 895 5 dumpOSC 9000;
#X floatatom 837 387 5 0 0 0 - - -;
#X obj 837 410 speedlim 1;
#X obj 837 310 int;
#X floatatom 763 315 5 0 0 0 - - -;
#X obj 758 340 speedlim 1;
#X obj 763 238 int;
#X obj 884 105 OSCroute /left /right;
#X msg 420 -24 1;
#X obj 216 338 f;
#X obj 320 337 f;
#X obj 424 292 metro 10;
#X obj 431 215 tgl 15 0 empty empty empty 17 7 0 10 -262144 -1 -1 1
1;
#X obj 23 522 change;
#X obj 81 522 change;
#X msg 763 362 A\$1K;
#X msg 837 434 B\$1K;
#N canvas 249 358 643 507 scale 0;
#X obj -486 -214 unpack;
#X floatatom -594 -155 5 0 0 0 - - -;
#X floatatom -402 -158 5 0 0 0 - - -;
#X obj -542 -139 sel 0 1;
#X obj -454 -141 sel 0 1;
#X msg -539 -90 1;
#X msg -454 -91 1;
#X obj -483 -268 inlet;
#X obj -360 -260 inlet;
#X obj -244 -259 inlet;
#X obj -345 71 outlet;
#X obj -229 73 outlet;
#X floatatom -532 26 5 0 0 0 - - -;
#X floatatom -456 33 5 0 0 0 - - -;
#X floatatom -455 176 5 0 0 0 - - -;
#X obj -454 123 expr 800- (1100 - $i1)*$f2+300;
#X obj -158 167 expr 800 - (800-$i1) * $f2;
#X obj -412 9 expr 800- (1100 - $i1)*$f2+300;
#X obj -206 9 expr 800- (1100 - $i1)*$f2+300;
#X msg -423 -93 1.8;
#X msg -508 -92 1.8;
#X connect 0 0 1 0;
#X connect 0 0 3 0;
#X connect 0 1 2 0;
#X connect 0 1 4 0;
#X connect 3 0 5 0;
#X connect 3 1 20 0;
#X connect 4 0 6 0;
#X connect 4 1 19 0;
#X connect 5 0 12 0;
#X connect 5 0 17 1;
#X connect 6 0 13 0;
#X connect 6 0 15 1;
#X connect 6 0 18 1;
#X connect 7 0 0 0;
#X connect 8 0 17 0;
#X connect 9 0 18 0;
#X connect 15 0 14 0;
#X connect 17 0 10 0;
#X connect 18 0 11 0;
#X connect 19 0 13 0;
#X connect 19 0 15 1;
#X connect 19 0 18 1;
#X connect 20 0 12 0;
#X connect 20 0 17 1;
#X restore 948 191 pd scale;
#X obj 649 71 OSCroute /manual /scale;
#X floatatom 691 219 5 0 0 0 - - -;
#X obj 30 369 route S C;
#X obj 143 401 unpack f f;
#X obj 143 439 sel -1;
#X obj 200 439 sel -1;
#X obj 184 466 +;
#X obj 196 590 s manual;
#X obj 194 564 change;
#X obj 268 -68 r manual;
#X floatatom 1026 282 5 0 0 0 - - -;
#X msg 279 553 send /agent1 manual \$1;
#X floatatom 485 612 5 0 0 0 - - -;
#X floatatom 110 610 5 0 0 0 - - -;
#X floatatom 185 632 5 0 0 0 - - -;
#X floatatom 29 615 5 0 0 0 - - -;
#X obj 574 89 r manual;
#X floatatom 856 180 5 0 0 0 - - -;
#X floatatom 1069 189 5 0 0 0 - - -;
#X floatatom 195 672 5 0 0 0 - - -;
#X floatatom 248 673 5 0 0 0 - - -;
#X floatatom 54 657 5 0 0 0 - - -;
#X floatatom 107 658 5 0 0 0 - - -;
#X floatatom 690 311 5 0 0 0 - - -;
#X floatatom 700 321 5 0 0 0 - - -;
#X obj 976 365 vsl 15 128 188 860 0 0 empty empty empty 0 -9 0 10 -262144
-1 -1 0 1;
#X obj 603 189 vsl 15 128 300 880 0 0 empty empty empty 0 -9 0 10 -262144
-1 -1 0 1;
#X obj 816 551 line;
#X msg 771 483 0 100;
#X msg 768 521 700 100;
#X text 226 -30 7 194 124;
#X obj 210 301 r noisaLeft;
#X obj 304 277 r noisaRight;
#X msg 41 182 open 0;
#N canvas 342 282 487 374 inputSelect 1;
#X obj 31 58 inlet;
#X obj 429 148 inlet;
#X obj 117 168 inlet;
#X obj 382 223 switch 2;
#X obj 370 146 sel 0 1;
#X msg 408 182 1;
#X msg 370 183 2;
#X obj 74 249 switch 2;
#X obj 62 172 sel 0 1;
#X msg 100 208 1;
#X msg 62 209 2;
#X obj 396 292 outlet;
#X obj 75 317 outlet;
#X obj 414 100 r noisaRight;
#X obj 105 120 r noisaLeft;
#X connect 0 0 4 0;
#X connect 0 0 8 0;
#X connect 1 0 3 2;
#X connect 2 0 7 2;
#X connect 3 0 11 0;
#X connect 4 0 6 0;
#X connect 4 1 5 0;
#X connect 5 0 3 0;
#X connect 6 0 3 0;
#X connect 7 0 12 0;
#X connect 8 0 10 0;
#X connect 8 1 9 0;
#X connect 9 0 7 0;
#X connect 10 0 7 0;
#X connect 13 0 3 1;
#X connect 14 0 7 1;
#X restore 724 146 pd inputSelect;
#X text 590 633 Left 150 - 789 Right 143 - 873;
#X obj 22 475 min 789;
#X obj 22 500 max 150;
#X obj 89 473 min 873;
#X obj 89 498 max 143;
#X obj 29 314 comport 0 115200;
#X obj 18 567 s noisaRight;
#X obj 106 560 s noisaLeft;
#X obj 184 537 > 8000;
#X msg 35 -44 10;
#X obj 179 -66 loadbang;
#X msg 65 -50 86;
#X msg 211 -19 100;
#X obj 732 189 granular;
#X obj 183 489 speedlim 100;
#X obj 184 516 smooth 0.5;
#X obj 763 263 min 789;
#X obj 763 288 max 150;
#X obj 837 335 min 873;
#X obj 837 360 max 143;
#X connect 0 0 97 0;
#X connect 1 0 97 0;
#X connect 2 0 59 0;
#X connect 7 0 97 0;
#X connect 8 0 7 0;
#X connect 9 0 7 0;
#X connect 10 0 7 0;
#X connect 11 0 9 0;
#X connect 12 0 10 0;
#X connect 13 0 7 0;
#X connect 14 0 13 0;
#X connect 15 0 9 0;
#X connect 16 0 10 0;
#X connect 17 0 10 0;
#X connect 18 0 10 0;
#X connect 19 0 7 0;
#X connect 20 0 19 0;
#X connect 21 0 32 0;
#X connect 21 0 78 0;
#X connect 21 1 33 0;
#X connect 21 1 79 0;
#X connect 24 0 25 0;
#X connect 24 0 47 0;
#X connect 25 0 27 0;
#X connect 25 0 31 0;
#X connect 27 0 28 0;
#X connect 27 1 26 0;
#X connect 28 0 29 0;
#X connect 30 1 38 0;
#X connect 31 0 30 0;
#X connect 32 0 36 0;
#X connect 33 0 37 0;
#X connect 34 0 30 0;
#X connect 35 0 30 0;
#X connect 36 1 93 0;
#X connect 37 1 95 0;
#X connect 39 0 46 0;
#X connect 39 0 57 0;
#X connect 40 0 41 0;
#X connect 41 0 55 0;
#X connect 42 0 110 0;
#X connect 43 0 44 0;
#X connect 44 0 54 0;
#X connect 45 0 108 0;
#X connect 46 0 56 1;
#X connect 46 0 74 0;
#X connect 46 0 91 1;
#X connect 46 1 56 2;
#X connect 46 1 75 0;
#X connect 46 1 91 2;
#X connect 47 0 51 0;
#X connect 47 0 20 0;
#X connect 48 0 34 0;
#X connect 49 0 35 0;
#X connect 50 0 49 0;
#X connect 50 0 48 0;
#X connect 51 0 50 0;
#X connect 52 0 98 0;
#X connect 53 0 99 0;
#X connect 54 0 7 0;
#X connect 55 0 7 0;
#X connect 56 0 42 0;
#X connect 56 1 45 0;
#X connect 57 1 56 0;
#X connect 57 1 58 0;
#X connect 59 0 21 0;
#X connect 59 1 60 0;
#X connect 60 0 61 0;
#X connect 60 1 62 0;
#X connect 61 1 63 1;
#X connect 62 1 63 0;
#X connect 63 0 72 0;
#X connect 63 0 106 0;
#X connect 65 0 64 0;
#X connect 65 0 68 0;
#X connect 65 0 71 0;
#X connect 66 0 20 0;
#X connect 67 0 45 0;
#X connect 68 0 30 0;
#X connect 73 0 91 0;
#X connect 80 0 54 0;
#X connect 82 0 41 0;
#X connect 83 0 44 0;
#X connect 84 0 41 0;
#X connect 84 0 44 0;
#X connect 85 0 84 0;
#X connect 86 0 84 0;
#X connect 88 0 48 1;
#X connect 89 0 49 1;
#X connect 90 0 97 0;
#X connect 91 0 105 0;
#X connect 91 1 105 1;
#X connect 93 0 94 0;
#X connect 94 0 52 0;
#X connect 95 0 96 0;
#X connect 96 0 53 0;
#X connect 97 0 2 0;
#X connect 100 0 65 0;
#X connect 100 0 70 0;
#X connect 101 0 9 0;
#X connect 102 0 12 0;
#X connect 102 0 104 0;
#X connect 102 0 103 0;
#X connect 103 0 9 0;
#X connect 104 0 13 0;
#X connect 106 0 107 0;
#X connect 107 0 100 0;
#X connect 108 0 109 0;
#X connect 109 0 43 0;
#X connect 110 0 111 0;
#X connect 111 0 40 0;
