#N canvas 0 51 1280 654 10;
#X declare -lib moocow;
#X declare -lib flib;
#X declare -lib zexy;
#X msg 30 154 devices;
#X msg 52 209 close;
#N canvas 436 396 1280 723 parsebytes 0;
#X obj 129 64 inlet;
#X obj 129 103 select 10 13;
#X obj 129 139 zl group 50;
#X obj 129 210 outlet;
#X obj 392 67 import moocow;
#X obj 129 165 bytes2any;
#X connect 0 0 1 0;
#X connect 1 0 2 0;
#X connect 1 2 2 0;
#X connect 2 0 5 0;
#X connect 5 0 3 0;
#X restore 30 347 pd parsebytes;
#X text 86 156 print available serial devices;
#X text 89 183 open serial port (change the number to your port);
#X text 93 211 close serial port;
#X text 213 252 the data you want to write to the arduino;
#X obj 79 284 prepend print;
#X obj 86 252 receive serial_print;
#X msg 50 23 S\$1K;
#X msg 109 25 D\$1K;
#X floatatom 50 -18 5 0 0 0 - - -;
#X msg 143 -45 255;
#X msg 191 33 P\$1K;
#X floatatom 211 4 5 0 0 0 - - -;
#X msg 74 0 150;
#X msg 172 -19 60;
#X msg 129 -14 40;
#X floatatom 98 -38 5 0 0 0 - - -;
#X msg 366 4 M\$1K;
#X obj 383 -56 tgl 15 0 empty empty empty 17 7 0 10 -262144 -1 -1 0
1;
#X obj 30 393 unpack f f;
#X text 58 -70 motor parameters;
#X text 401 -81 manual mode on/off;
#X obj 441 15 loadbang;
#X obj 440 43 del 2000;
#X msg 462 92 \; pd dsp 1 \;;
#X obj 420 70 t b b;
#X obj 390 97 del 10;
#X obj 393 127 s st;
#X obj 334 615 sendOSC;
#X msg 484 419 connect 10.0.0.4 9000;
#X obj 30 412 change;
#X obj 87 412 change;
#X msg 210 381 send /agent1 1 \$1;
#X msg 345 382 send /agent1 2 \$1;
#X obj 24 443 sel -1;
#X obj 87 445 sel -1;
#X floatatom 407 639 5 0 0 0 - - -;
#X obj 895 5 dumpOSC 9000;
#X floatatom 837 387 5 0 0 0 - - -;
#X obj 837 310 int;
#X floatatom 763 315 5 0 0 0 - - -;
#X obj 758 340 speedlim 1;
#X obj 763 238 int;
#X obj 884 105 OSCroute /left /right;
#X msg 420 -24 1;
#X obj 216 338 f;
#X obj 320 337 f;
#X obj 424 292 metro 10;
#X obj 431 215 tgl 15 0 empty empty empty 17 7 0 10 -262144 -1 -1 1
1;
#X obj 23 522 change;
#X obj 81 522 change;
#X msg 763 362 A\$1K;
#X msg 837 434 B\$1K;
#N canvas 672 349 643 507 scale 0;
#X obj -486 -214 unpack;
#X floatatom -594 -155 5 0 0 0 - - -;
#X floatatom -402 -158 5 0 0 0 - - -;
#X obj -542 -139 sel 0 1;
#X obj -454 -141 sel 0 1;
#X msg -539 -90 1;
#X msg -454 -91 1;
#X obj -483 -268 inlet;
#X obj -360 -260 inlet;
#X obj -244 -259 inlet;
#X obj -345 71 outlet;
#X obj -229 73 outlet;
#X floatatom -532 26 5 0 0 0 - - -;
#X floatatom -456 33 5 0 0 0 - - -;
#X floatatom -455 176 5 0 0 0 - - -;
#X obj -454 123 expr 800- (1100 - $i1)*$f2+300;
#X obj -158 167 expr 800 - (800-$i1) * $f2;
#X obj -412 9 expr 800- (1100 - $i1)*$f2+300;
#X obj -206 9 expr 800- (1100 - $i1)*$f2+300;
#X msg -423 -93 1.8;
#X msg -508 -92 1.8;
#X connect 0 0 1 0;
#X connect 0 0 3 0;
#X connect 0 1 2 0;
#X connect 0 1 4 0;
#X connect 3 0 5 0;
#X connect 3 1 20 0;
#X connect 4 0 6 0;
#X connect 4 1 19 0;
#X connect 5 0 12 0;
#X connect 5 0 17 1;
#X connect 6 0 13 0;
#X connect 6 0 15 1;
#X connect 6 0 18 1;
#X connect 7 0 0 0;
#X connect 8 0 17 0;
#X connect 9 0 18 0;
#X connect 15 0 14 0;
#X connect 17 0 10 0;
#X connect 18 0 11 0;
#X connect 19 0 13 0;
#X connect 19 0 15 1;
#X connect 19 0 18 1;
#X connect 20 0 12 0;
#X connect 20 0 17 1;
#X restore 958 198 pd scale;
#X obj 649 71 OSCroute /manual /scale;
#X floatatom 691 219 5 0 0 0 - - -;
#X obj 30 369 route S C;
#X obj 143 401 unpack f f;
#X obj 143 439 sel -1;
#X obj 200 439 sel -1;
#X obj 184 466 +;
#X obj 196 590 s manual;
#X obj 194 564 change;
#X obj 268 -68 r manual;
#X floatatom 1026 282 5 0 0 0 - - -;
#X msg 279 553 send /agent1 manual \$1;
#X floatatom 110 610 5 0 0 0 - - -;
#X floatatom 185 632 5 0 0 0 - - -;
#X floatatom 457 521 5 0 0 0 - - -;
#X obj 574 89 r manual;
#X floatatom 856 180 5 0 0 0 - - -;
#X floatatom 1040 195 5 0 0 0 - - -;
#X floatatom 195 672 5 0 0 0 - - -;
#X floatatom 248 673 5 0 0 0 - - -;
#X floatatom -7 610 5 0 0 0 - - -;
#X floatatom 107 658 5 0 0 0 - - -;
#X floatatom 690 311 5 0 0 0 - - -;
#X floatatom 700 321 5 0 0 0 - - -;
#X obj 931 283 vsl 15 128 150 840 0 0 empty empty empty 0 -9 0 10 -262144
-1 -1 0 1;
#X obj 592 132 vsl 15 128 800 154 0 0 empty empty empty 0 -9 0 10 -262144
-1 -1 0 1;
#X obj 742 431 line;
#X msg 753 463 0 100;
#X msg 700 509 700 100;
#X text 226 -30 7 194 124;
#X obj 210 301 r noisaLeft;
#X obj 304 277 r noisaRight;
#X msg 41 182 open 0;
#N canvas 347 289 487 374 inputSelect 0;
#X obj 85 76 inlet;
#X obj 161 135 inlet;
#X obj 328 126 inlet;
#X obj 114 210 switch 2;
#X obj 102 133 sel 0 1;
#X msg 140 169 1;
#X msg 102 170 2;
#X obj 285 207 switch 2;
#X obj 273 130 sel 0 1;
#X msg 311 166 1;
#X msg 273 167 2;
#X obj 128 279 outlet;
#X obj 286 275 outlet;
#X obj 302 45 r noisaRight;
#X obj 166 68 r noisaLeft;
#X connect 0 0 4 0;
#X connect 0 0 8 0;
#X connect 1 0 3 2;
#X connect 2 0 7 2;
#X connect 3 0 11 0;
#X connect 4 0 6 0;
#X connect 4 1 5 0;
#X connect 5 0 3 0;
#X connect 6 0 3 0;
#X connect 7 0 12 0;
#X connect 8 0 10 0;
#X connect 8 1 9 0;
#X connect 9 0 7 0;
#X connect 10 0 7 0;
#X connect 13 0 7 1;
#X connect 14 0 3 1;
#X restore 724 146 pd inputSelect;
#X text 499 596 Left 150 - 789 Right 143 - 873;
#X obj 29 314 comport 0 115200;
#X obj 96 576 s noisaRight;
#X obj 14 555 s noisaLeft;
#X obj 184 537 > 8000;
#X msg 35 -44 10;
#X obj 179 -66 loadbang;
#X msg 65 -50 86;
#X msg 211 -19 100;
#X obj 732 189 granular;
#X obj 238 487 speedlim 10;
#X obj 212 514 smooth 0.8;
#X floatatom 1080 239 5 0 0 0 - - -;
#X obj 288 -2 change;
#X obj 234 68 del 100;
#X obj 837 410 speedlim 2;
#X msg 21 -64 50;
#X msg 18 7 86;
#X obj 300 36 sel 0;
#X obj 837 334 min 840;
#X floatatom 692 392 5 0 0 0 - - -;
#X obj 763 264 min 840;
#X obj 763 288 max 154;
#X obj 837 360 max 150;
#N canvas 195 51 1029 652 analysis 0;
#X msg -66 392 send /agent1 smoothness \$1;
#X msg -15 421 send /agent1 irregularity \$1;
#X msg 40 450 send /agent1 flatness \$1;
#X msg 86 477 send /agent1 centroid \$1;
#X msg 113 507 send /agent1 energy \$1;
#X obj -98 -295 openpanel;
#X obj -98 -254 soundfiler;
#X obj -99 -314 bng 15 250 50 0 empty empty empty 17 7 0 10 -262144
-1 -1;
#N canvas 0 22 450 300 (subpatch) 0;
#X array arrayanalysis 705600 float 2;
#X coords 0 1 705600 -1 200 140 1 0 0;
#X restore 90 -329 graph;
#X obj 151 -69 mspec~;
#X obj 154 -112 rfft~;
#X obj -99 -24 ss~;
#X obj 60 148 irreg~;
#X obj 452 238 sfm~;
#X floatatom -100 -3 15 0 0 0 - - -;
#X floatatom 62 177 15 0 0 0 - - -;
#X floatatom 452 263 10 0 0 0 - - -;
#X text 197 -71 Get magnitude spectrum from fft. Argument of 2 gives
power spectrum.;
#X text 212 -29 Get spectral peaks from magnitudes and estimate frequency.
Argumnent or right inlet sets threshold as percentage of the maximum
peak detected in each frame;
#X obj -100 17 average 50;
#X floatatom -96 84 5 0 0 0 - - -;
#X obj 60 216 average 50;
#X floatatom 58 263 5 0 0 0 - - -;
#X obj 452 284 average 50;
#X obj 452 305 int;
#X floatatom 453 327 5 0 0 0 - - -;
#X obj 673 -177 energy;
#X obj 675 -149 hsl 100 20 0 0.1 0 0 empty empty 0___________0.1 -2
-8 0 10 -262144 -1 -1 0 1;
#X msg 711 -200 lt 27;
#X msg 711 -219 st 6;
#X text 685 -127 energy levels;
#X floatatom 653 -89 5 0 0 0 - - -;
#X obj 318 -246 noise~;
#X obj 152 -8 peak~ 40;
#X text 639 -67 191 = 440 Osc;
#X obj 418 -246 phasor~ 440;
#X obj 636 209 gravmagspec;
#X floatatom 637 231 5 0 0 0 - - -;
#X obj 637 250 average;
#X obj 638 272 int;
#X floatatom 640 296 5 0 0 0 - - -;
#X obj 728 175 vsl 20 128 20 20000 0 0 empty empty empty 0 -9 0 10
-262144 -1 -1 0 1;
#X obj 363 -246 osc~ 200;
#X text -105 -337 Load Sample;
#X obj 496 -245 adc~;
#X text 704 -113 Useful to draw attack and decay;
#X text 756 293 20hz;
#X text 753 167 20 \, 000hz;
#X text 303 -367 Analysis Tool;
#X text 530 -316 Formulae here: https://s3-eu-west-1.amazonaws.com/papers/jamiebullock_phd.pdf
;
#X text -117 127 0 = White Noise -3 = 440 Sine;
#X text 65 279 0 = White Noise 2 = 440 Sine Wave;
#X text 402 353 -4 = 440 Sine Wave -8 = White Noise;
#X text 448 215 Spectral Flatness;
#X text 551 315 Doubles the value with sine waves \, only starts working
from 250 onwards;
#X text 601 164 Spectral Centroid:;
#X text 76 124 Irregularity;
#X text -68 -30 Spectral Smoothness;
#X text 652 -216 Energy;
#X text 304 -282 Tests (Connect to rfft \, energy \, zerocrosrate and
gravmagspec);
#X obj -69 569 outlet;
#X obj -14 567 outlet;
#X obj 39 567 outlet;
#X obj 89 567 outlet;
#X obj 151 568 outlet;
#X msg -98 -274 read -resize \$1 arrayanalysis;
#X obj -9 360 f;
#X obj 17 313 bang;
#X obj 18 361 f;
#X obj -8 252 inlet;
#X obj 74 362 f;
#X obj 45 362 f;
#X obj 100 363 f;
#X obj 131 366 f;
#X text -109 -77 comment;
#X obj 283 -170 inlet~;
#X msg -98 -223 bang;
#X msg -57 -223 stop;
#X obj -98 -200 tabplay~ arrayanalysis;
#X obj 177 365 f;
#X msg 177 534 send /agent1 tempo \$1;
#X obj 198 568 outlet;
#X floatatom 966 536 5 0 0 0 BPM - -;
#X floatatom 1072 591 5 0 0 3 acceleration_BPM - -;
#X obj 977 488 unpack;
#X floatatom 1017 508 5 0 0 1 ms - -;
#X obj 897 424 tempoest2;
#X obj 968 415 pack 0 0;
#X obj 969 392 t b f;
#N canvas 899 207 189 260 acceleration 0;
#X obj 48 203 outlet;
#X obj 48 179 avg4pt2;
#X obj 48 17 inlet;
#X obj 46 116 route 0 1;
#X obj 46 69 f;
#X obj 77 69 + 1;
#X obj 110 70 mod 2;
#X obj 47 156 -;
#X obj 47 45 t b f b;
#X obj 80 138 t b f;
#X obj 47 94 pack;
#X connect 1 0 0 0;
#X connect 2 0 8 0;
#X connect 3 0 7 0;
#X connect 3 1 9 0;
#X connect 4 0 5 0;
#X connect 4 0 10 0;
#X connect 5 0 6 0;
#X connect 6 0 4 1;
#X connect 7 0 1 0;
#X connect 8 0 4 0;
#X connect 8 1 10 1;
#X connect 8 2 4 0;
#X connect 9 0 7 0;
#X connect 9 1 7 1;
#X connect 9 1 10 1;
#X connect 10 0 3 0;
#X restore 1058 549 pd acceleration;
#X obj 551 591 spigot;
#X obj 551 570 bng 15 250 50 0 empty empty empty 0 -6 0 8 -262144 -1
-1;
#X obj 551 617 bng 15 250 50 0 empty empty empty 0 -6 0 8 -262144 -1
-1;
#X obj 616 618 tgl 15 0 empty empty empty 0 -6 0 8 -262144 -1 -1 1
1;
#X obj 551 431 vsl 15 128 0 127 0 0 empty empty empty 0 -8 0 8 -262144
-1 -1 0 1;
#X msg 507 436 0;
#X msg 573 436 50;
#X obj 649 564 nbx 5 14 -1e+37 1e+37 0 0 empty empty empty 0 -6 0 10
-262144 -1 -1 300 256;
#X text 637 572 threshold - if no activity for x seconds \, reopen
the spigot;
#X obj 616 591 del 200;
#X msg 618 666 1;
#X obj 651 665 -;
#X obj 651 697 tgl 15 0 empty empty empty 0 -6 0 8 -262144 -1 -1 0
1;
#X obj 617 644 bng 15 250 50 0 empty empty empty 0 -6 0 8 -262144 -1
-1;
#X text 622 723 1 if active \, 0 if not;
#X obj 822 645 sel 1;
#X floatatom 1246 565 5 0 0 0 - - -;
#X obj 1191 528 average 10;
#X obj 981 730 r bang slider;
#X obj 530 711 loadbang;
#X msg 650 486 300;
#X obj 679 426 bng 15 250 50 0 empty empty empty 17 7 0 10 -262144
-1 -1;
#X obj 411 627 sel 1;
#X obj 403 666 print;
#X msg 308 650 1;
#X obj 262 387 f;
#X obj 316 578 outlet;
#X msg 321 512 send /agent1 attack \$1;
#X text 1233 581 ms Average;
#X connect 0 0 60 0;
#X connect 1 0 61 0;
#X connect 2 0 62 0;
#X connect 3 0 63 0;
#X connect 4 0 64 0;
#X connect 5 0 65 0;
#X connect 7 0 5 0;
#X connect 9 0 12 0;
#X connect 9 0 33 0;
#X connect 9 0 11 0;
#X connect 10 0 9 0;
#X connect 10 1 9 1;
#X connect 11 0 14 0;
#X connect 12 0 15 0;
#X connect 13 0 16 0;
#X connect 14 0 19 0;
#X connect 15 0 21 0;
#X connect 16 0 23 0;
#X connect 19 0 20 0;
#X connect 20 0 66 1;
#X connect 21 0 22 0;
#X connect 22 0 68 1;
#X connect 23 0 24 0;
#X connect 24 0 25 0;
#X connect 25 0 71 1;
#X connect 26 0 27 0;
#X connect 26 0 31 0;
#X connect 28 0 26 1;
#X connect 29 0 26 1;
#X connect 31 0 73 1;
#X connect 33 1 13 0;
#X connect 36 0 37 0;
#X connect 37 0 38 0;
#X connect 38 0 39 0;
#X connect 39 0 40 0;
#X connect 39 0 41 0;
#X connect 40 0 70 1;
#X connect 65 0 6 0;
#X connect 66 0 0 0;
#X connect 67 0 66 0;
#X connect 67 0 68 0;
#X connect 67 0 70 0;
#X connect 67 0 71 0;
#X connect 67 0 72 0;
#X connect 67 0 73 0;
#X connect 67 0 79 0;
#X connect 67 0 115 0;
#X connect 68 0 1 0;
#X connect 69 0 67 0;
#X connect 70 0 3 0;
#X connect 71 0 2 0;
#X connect 73 0 4 0;
#X connect 75 0 26 0;
#X connect 75 0 36 0;
#X connect 75 0 10 0;
#X connect 76 0 78 0;
#X connect 77 0 78 0;
#X connect 78 0 26 0;
#X connect 78 0 36 0;
#X connect 78 0 10 0;
#X connect 79 0 80 0;
#X connect 80 0 81 0;
#X connect 84 0 82 0;
#X connect 84 1 85 0;
#X connect 84 1 107 0;
#X connect 86 0 87 0;
#X connect 86 0 89 0;
#X connect 86 1 88 0;
#X connect 87 0 84 0;
#X connect 88 0 87 0;
#X connect 88 1 87 1;
#X connect 89 0 83 0;
#X connect 90 0 92 0;
#X connect 91 0 90 0;
#X connect 92 0 93 0;
#X connect 92 0 99 0;
#X connect 93 0 90 1;
#X connect 93 0 101 1;
#X connect 93 0 103 0;
#X connect 94 0 91 0;
#X connect 95 0 94 0;
#X connect 96 0 94 0;
#X connect 97 0 99 1;
#X connect 99 0 93 0;
#X connect 100 0 101 0;
#X connect 101 0 102 0;
#X connect 102 0 105 0;
#X connect 102 0 112 0;
#X connect 103 0 100 0;
#X connect 105 0 86 0;
#X connect 106 0 79 1;
#X connect 107 0 106 0;
#X connect 108 0 91 0;
#X connect 109 0 93 0;
#X connect 109 0 111 0;
#X connect 110 0 97 0;
#X connect 111 0 110 0;
#X connect 112 0 114 0;
#X connect 114 0 113 0;
#X connect 114 0 115 1;
#X connect 115 0 117 0;
#X connect 117 0 116 0;
#X restore 604 486 pd analysis;
#X obj 544 -59 import flib;
#N canvas 72 124 450 386 sig_gate 0;
#X obj 148 68 inlet~;
#X obj 150 312 outlet~;
#X obj 93 104 pvu~;
#X obj 95 146 expr if ($f1 < -50 \, 0 \, 1);
#X obj 148 252 *~;
#X obj 183 200 change;
#X connect 0 0 2 0;
#X connect 0 0 4 0;
#X connect 2 0 3 0;
#X connect 3 0 5 0;
#X connect 4 0 1 0;
#X connect 5 0 4 1;
#X restore 639 354 pd sig_gate;
#X obj 22 475 min 680;
#X obj 22 500 max 20;
#X obj 89 498 max 10;
#X obj 89 473 min 670;
#X obj 1009 250 print;
#X obj 1051 -2 filter;
#N canvas 11 69 1185 623 myo 0;
#X obj -6550 372 vsl 15 128 -50 50 0 0 empty empty empty 0 -9 0 10
-262144 -1 -1 5461 1;
#X obj -6346 29 OSCroute /emg;
#X floatatom -6270 60 5 0 0 0 - - -;
#X obj -6323 83 smooth 0.6;
#X obj -6355 128 unpack 0 0 0 0 0 0 0 0;
#X obj -6360 256 smooth 0.6;
#X obj -6432 259 smooth 0.6;
#X obj -6366 420 vsl 15 128 -50 50 0 0 empty empty empty 0 -9 0 10
-262144 -1 -1 5969 1;
#X obj -6308 430 vsl 15 128 -50 50 0 0 empty empty empty 0 -9 0 10
-262144 -1 -1 5334 1;
#X obj -6254 438 vsl 15 128 -50 50 0 0 empty empty empty 0 -9 0 10
-262144 -1 -1 7239 1;
#X obj -6196 450 vsl 15 128 -50 50 0 0 empty empty empty 0 -9 0 10
-262144 -1 -1 6096 1;
#X obj -6156 451 vsl 15 128 -50 50 0 0 empty empty empty 0 -9 0 10
-262144 -1 -1 5715 1;
#X obj -6120 459 vsl 15 128 -50 50 0 0 empty empty empty 0 -9 0 10
-262144 -1 -1 5588 1;
#X obj -6200 233 smooth 0.6;
#X obj -6283 246 smooth 0.6;
#X obj -6018 237 smooth 0.6;
#X obj -6117 235 smooth 0.6;
#X obj -5860 232 smooth 0.6;
#X obj -5943 227 smooth 0.6;
#X floatatom -6180 756 5 0 0 0 - - -;
#X obj -6189 688 vsl 40 128 0.2 40 0 0 empty empty empty 0 -9 0 10
-262144 -1 -1 1611 1;
#X obj -6434 235 speedlim 150;
#X obj -6354 229 speedlim 150;
#X obj -6270 225 speedlim 150;
#X obj -6200 210 speedlim 150;
#X obj -6120 207 speedlim 150;
#X obj -6022 210 speedlim 150;
#X obj -5940 198 speedlim 150;
#X obj -5859 202 speedlim 150;
#X floatatom -6027 434 8 0 0 0 - - -;
#X floatatom -6027 595 8 0 0 0 - - -;
#X obj -6024 612 hsl 200 20 0 1 0 0 empty empty curved_output 22 11
1 12 -262144 -1 -1 0 1;
#X obj -6024 408 hsl 200 20 0 1 0 0 empty empty raw_input 22 11 1 12
-261681 -1 -1 19900 1;
#X obj -6027 524 exponential_curve;
#X obj -5924 468 hsl 50 15 0 1 0 0 \$0-x-slider \$0-x-slider-receive
x 5 9 0 11 -232576 -1 -1 0 0;
#X floatatom -5918 488 7 0 0 0 - - -;
#X floatatom -6080 747 5 0 0 0 - - -;
#X obj -6245 701 vsl 40 128 0 40 0 0 empty empty empty 0 -9 0 10 -262144
-1 -1 1667 1;
#X msg -5901 342 reset;
#X obj -6211 647 expr (abs($f1) + abs($f2) + abs($f3) + abs($f4)) /
4;
#X obj -6243 673 line;
#X msg -6231 607 \$1 100;
#X obj -5997 370 autoscale 0 1 0 40;
#X obj -6419 418 vsl 15 128 -50 50 0 0 empty empty empty 0 -9 0 10
-262144 -1 -1 5969 1;
#X floatatom -6228 61 5 0 0 0 - - -;
#X obj -6674 479 expr abs($f1);
#X obj -6706 625 peak;
#X floatatom -7066 711 5 0 0 0 - - -;
#X obj -6707 661 sel 0 1;
#X obj -6767 797 vsl 40 128 0 40 0 0 empty empty empty 0 -9 0 10 -262144
-1 -1 952 1;
#X obj -6754 696 smooth 0.6;
#X floatatom -6661 557 5 0 0 0 - - -;
#X obj -6681 586 float;
#X obj -6754 748 line;
#X msg -6748 721 \$1 100;
#X obj -6615 613 del 2000;
#X obj -7025 781 sel 0;
#X obj -7003 817 bng 15 250 50 0 empty empty empty 17 7 0 10 -262144
-1 -1;
#X obj -6939 777 sel 0;
#X obj -6917 813 bng 15 250 50 0 empty empty empty 17 7 0 10 -262144
-1 -1;
#X obj -6887 783 sel 0;
#X obj -6865 819 bng 15 250 50 0 empty empty empty 17 7 0 10 -262144
-1 -1;
#X floatatom -6677 819 5 0 0 0 - - -;
#X msg -6932 858 1;
#X msg -6974 848 2;
#X msg -7035 860 3;
#X obj -6689 525 average 20;
#X obj -6634 747 max;
#X msg -6586 576 4000;
#X msg -6544 585 2000;
#X obj -6954 603 t b b;
#X msg -6932 644 25;
#X obj -6901 602 t b b;
#X msg -6879 643 30;
#X obj -7001 702 expr if ($f1 > $f2 \, 3 \, 0) \; if ($f1 <= $f2 &&
$f1 > 15 \, 2 \, 0) \; if ($f1 <= 15 \, 1 \, 0);
#N canvas 253 138 766 590 smoothing 0;
#X obj 483 -357 expr abs($f1);
#X obj 451 -211 peak;
#X floatatom 56 -153 5 0 0 0 - - -;
#X obj 450 -175 sel 0 1;
#X obj 390 -39 vsl 40 128 0 40 0 0 empty empty empty 0 -9 0 10 -262144
-1 -1 952 1;
#X obj 403 -140 smooth 0.6;
#X floatatom 496 -279 5 0 0 0 - - -;
#X obj 476 -250 float;
#X obj 403 -88 line;
#X msg 409 -115 \$1 100;
#X obj 542 -223 del 2000;
#X obj 132 -55 sel 0;
#X obj 154 -19 bng 15 250 50 0 empty empty empty 17 7 0 10 -262144
-1 -1;
#X obj 218 -59 sel 0;
#X obj 240 -23 bng 15 250 50 0 empty empty empty 17 7 0 10 -262144
-1 -1;
#X obj 270 -53 sel 0;
#X obj 292 -17 bng 15 250 50 0 empty empty empty 17 7 0 10 -262144
-1 -1;
#X floatatom 244 64 5 0 0 0 - - -;
#X msg 225 22 1;
#X msg 183 12 2;
#X msg 122 24 3;
#X obj 468 -311 average 20;
#X obj 523 -89 max;
#X msg 571 -260 4000;
#X msg 613 -251 2000;
#X obj 203 -233 t b b;
#X obj 256 -234 t b b;
#X obj 484 -397 inlet;
#X obj 309 99 outlet;
#X msg 278 -193 60;
#X msg 225 -192 50;
#X obj 38 -118 expr if ($f1 > $f2 \, 3 \, 0) \; if ($f1 <= $f2 && $f1
> 25 \, 2 \, 0) \; if ($f1 <= 25 \, 1 \, 0);
#X connect 0 0 21 0;
#X connect 1 0 2 0;
#X connect 1 0 5 0;
#X connect 1 1 3 0;
#X connect 3 1 10 0;
#X connect 5 0 9 0;
#X connect 6 0 7 1;
#X connect 7 0 1 1;
#X connect 8 0 4 0;
#X connect 8 0 31 0;
#X connect 9 0 8 0;
#X connect 10 0 7 0;
#X connect 11 1 12 0;
#X connect 11 1 20 0;
#X connect 11 1 25 0;
#X connect 13 1 14 0;
#X connect 13 1 19 0;
#X connect 13 1 24 0;
#X connect 13 1 26 0;
#X connect 15 1 16 0;
#X connect 15 1 18 0;
#X connect 15 1 26 0;
#X connect 17 0 28 0;
#X connect 18 0 17 0;
#X connect 19 0 17 0;
#X connect 20 0 17 0;
#X connect 21 0 1 0;
#X connect 21 0 6 0;
#X connect 23 0 10 1;
#X connect 24 0 10 1;
#X connect 25 1 30 0;
#X connect 26 1 29 0;
#X connect 27 0 0 0;
#X connect 29 0 31 1;
#X connect 30 0 31 1;
#X connect 31 0 11 0;
#X connect 31 1 13 0;
#X connect 31 2 15 0;
#X restore -6572 437 pd smoothing;
#N canvas 257 148 766 590 smoothing 0;
#X obj 483 -357 expr abs($f1);
#X obj 451 -211 peak;
#X floatatom 91 -125 5 0 0 0 - - -;
#X obj 450 -175 sel 0 1;
#X obj 390 -39 vsl 40 128 0 40 0 0 empty empty empty 0 -9 0 10 -262144
-1 -1 2540 1;
#X obj 403 -140 smooth 0.6;
#X floatatom 496 -279 5 0 0 0 - - -;
#X obj 476 -250 float;
#X obj 403 -88 line;
#X msg 409 -115 \$1 100;
#X obj 542 -223 del 2000;
#X obj 132 -55 sel 0;
#X obj 154 -19 bng 15 250 50 0 empty empty empty 17 7 0 10 -262144
-1 -1;
#X obj 218 -59 sel 0;
#X obj 240 -23 bng 15 250 50 0 empty empty empty 17 7 0 10 -262144
-1 -1;
#X obj 270 -53 sel 0;
#X obj 292 -17 bng 15 250 50 0 empty empty empty 17 7 0 10 -262144
-1 -1;
#X floatatom 244 64 5 0 0 0 - - -;
#X msg 225 22 1;
#X msg 183 12 2;
#X msg 122 24 3;
#X obj 468 -311 average 20;
#X obj 523 -89 max;
#X msg 571 -260 4000;
#X msg 613 -251 2000;
#X obj 203 -233 t b b;
#X obj 256 -234 t b b;
#X obj 484 -397 inlet;
#X obj 309 99 outlet;
#X msg 278 -193 60;
#X msg 225 -192 50;
#X obj 156 -134 expr if ($f1 > $f2 \, 3 \, 0) \; if ($f1 <= $f2 &&
$f1 > 40 \, 2 \, 0) \; if ($f1 <= 40 \, 1 \, 0);
#X connect 0 0 21 0;
#X connect 1 0 2 0;
#X connect 1 0 5 0;
#X connect 1 1 3 0;
#X connect 3 1 10 0;
#X connect 5 0 9 0;
#X connect 6 0 7 1;
#X connect 7 0 1 1;
#X connect 8 0 4 0;
#X connect 8 0 31 0;
#X connect 9 0 8 0;
#X connect 10 0 7 0;
#X connect 11 1 12 0;
#X connect 11 1 20 0;
#X connect 11 1 25 0;
#X connect 13 1 14 0;
#X connect 13 1 19 0;
#X connect 13 1 24 0;
#X connect 13 1 26 0;
#X connect 15 1 16 0;
#X connect 15 1 18 0;
#X connect 15 1 26 0;
#X connect 17 0 28 0;
#X connect 18 0 17 0;
#X connect 19 0 17 0;
#X connect 20 0 17 0;
#X connect 21 0 1 0;
#X connect 21 0 6 0;
#X connect 23 0 10 1;
#X connect 24 0 10 1;
#X connect 25 1 30 0;
#X connect 26 1 29 0;
#X connect 27 0 0 0;
#X connect 29 0 31 1;
#X connect 30 0 31 1;
#X connect 31 0 11 0;
#X connect 31 1 13 0;
#X connect 31 2 15 0;
#X restore -6534 475 pd smoothing;
#X floatatom -6597 812 5 0 0 0 - - -;
#X floatatom -6502 806 5 0 0 0 - - -;
#X obj -6420 779 expr ($i1 + $i2 + $i3) / 3;
#X floatatom -6421 845 5 0 0 0 - - -;
#X obj -6447 747 median;
#X obj -6551 673 pack 0 0 0;
#X floatatom -6467 840 5 0 0 0 - - -;
#X obj -6469 515 t b i;
#X obj -6556 624 t b i;
#X obj -6476 883 s myodyn;
#X obj -6380 5 inlet;
#X connect 1 0 2 0;
#X connect 1 0 3 0;
#X connect 1 0 4 0;
#X connect 4 0 21 0;
#X connect 4 0 44 0;
#X connect 4 0 45 0;
#X connect 4 1 22 0;
#X connect 4 1 75 0;
#X connect 4 2 23 0;
#X connect 4 2 76 0;
#X connect 4 3 24 0;
#X connect 4 4 25 0;
#X connect 4 5 26 0;
#X connect 4 6 27 0;
#X connect 4 7 28 0;
#X connect 5 0 7 0;
#X connect 5 0 39 1;
#X connect 6 0 39 0;
#X connect 6 0 43 0;
#X connect 13 0 9 0;
#X connect 13 0 39 3;
#X connect 14 0 8 0;
#X connect 14 0 39 2;
#X connect 15 0 11 0;
#X connect 16 0 10 0;
#X connect 17 0 0 0;
#X connect 18 0 12 0;
#X connect 21 0 6 0;
#X connect 22 0 5 0;
#X connect 23 0 14 0;
#X connect 24 0 13 0;
#X connect 25 0 16 0;
#X connect 26 0 15 0;
#X connect 27 0 18 0;
#X connect 28 0 17 0;
#X connect 29 0 33 0;
#X connect 30 0 31 0;
#X connect 32 0 29 0;
#X connect 33 0 30 0;
#X connect 34 0 35 0;
#X connect 35 0 33 1;
#X connect 38 0 42 0;
#X connect 39 0 19 0;
#X connect 39 0 20 0;
#X connect 39 0 41 0;
#X connect 40 0 37 0;
#X connect 40 0 42 0;
#X connect 41 0 40 0;
#X connect 42 0 32 0;
#X connect 45 0 66 0;
#X connect 46 0 47 0;
#X connect 46 0 50 0;
#X connect 46 1 48 0;
#X connect 48 1 55 0;
#X connect 50 0 54 0;
#X connect 51 0 52 1;
#X connect 52 0 46 1;
#X connect 53 0 49 0;
#X connect 53 0 74 0;
#X connect 54 0 53 0;
#X connect 55 0 52 0;
#X connect 56 1 57 0;
#X connect 56 1 65 0;
#X connect 56 1 70 0;
#X connect 58 1 59 0;
#X connect 58 1 64 0;
#X connect 58 1 69 0;
#X connect 58 1 72 0;
#X connect 60 1 61 0;
#X connect 60 1 63 0;
#X connect 60 1 72 0;
#X connect 62 0 79 0;
#X connect 63 0 62 0;
#X connect 63 0 82 0;
#X connect 64 0 62 0;
#X connect 65 0 62 0;
#X connect 66 0 46 0;
#X connect 66 0 51 0;
#X connect 68 0 55 1;
#X connect 69 0 55 1;
#X connect 70 1 71 0;
#X connect 71 0 74 1;
#X connect 72 1 73 0;
#X connect 73 0 74 1;
#X connect 74 0 56 0;
#X connect 74 1 58 0;
#X connect 74 2 60 0;
#X connect 75 0 77 0;
#X connect 75 0 79 1;
#X connect 75 0 85 0;
#X connect 76 0 78 0;
#X connect 76 0 79 2;
#X connect 76 0 84 0;
#X connect 79 0 80 0;
#X connect 81 0 83 0;
#X connect 82 0 81 0;
#X connect 83 0 86 0;
#X connect 84 0 82 0;
#X connect 84 1 82 2;
#X connect 85 0 82 0;
#X connect 85 1 82 1;
#X connect 87 0 1 0;
#X restore 1035 50 pd myo;
#X connect 0 0 91 0;
#X connect 1 0 91 0;
#X connect 2 0 58 0;
#X connect 7 0 91 0;
#X connect 8 0 7 0;
#X connect 9 0 7 0;
#X connect 10 0 7 0;
#X connect 11 0 9 0;
#X connect 12 0 10 0;
#X connect 13 0 7 0;
#X connect 14 0 13 0;
#X connect 15 0 9 0;
#X connect 16 0 10 0;
#X connect 17 0 10 0;
#X connect 18 0 10 0;
#X connect 19 0 7 0;
#X connect 20 0 19 0;
#X connect 21 0 32 0;
#X connect 21 0 76 0;
#X connect 21 1 33 0;
#X connect 21 1 77 0;
#X connect 24 0 25 0;
#X connect 24 0 46 0;
#X connect 25 0 27 0;
#X connect 25 0 31 0;
#X connect 27 0 28 0;
#X connect 27 1 26 0;
#X connect 28 0 29 0;
#X connect 30 1 38 0;
#X connect 31 0 30 0;
#X connect 32 0 36 0;
#X connect 33 0 37 0;
#X connect 34 0 30 0;
#X connect 35 0 30 0;
#X connect 36 1 117 0;
#X connect 37 1 120 0;
#X connect 39 0 45 0;
#X connect 39 0 56 0;
#X connect 39 0 123 0;
#X connect 40 0 105 0;
#X connect 41 0 109 0;
#X connect 42 0 43 0;
#X connect 43 0 53 0;
#X connect 44 0 111 0;
#X connect 45 0 72 0;
#X connect 45 0 89 2;
#X connect 45 0 55 1;
#X connect 45 0 41 0;
#X connect 45 0 102 0;
#X connect 45 1 73 0;
#X connect 45 1 89 1;
#X connect 45 1 55 2;
#X connect 45 1 44 0;
#X connect 46 0 50 0;
#X connect 46 0 20 0;
#X connect 47 0 34 0;
#X connect 48 0 35 0;
#X connect 49 0 48 0;
#X connect 49 0 47 0;
#X connect 49 0 114 0;
#X connect 50 0 49 0;
#X connect 51 0 93 0;
#X connect 52 0 92 0;
#X connect 53 0 7 0;
#X connect 54 0 7 0;
#X connect 56 1 55 0;
#X connect 56 1 57 0;
#X connect 58 0 21 0;
#X connect 58 1 59 0;
#X connect 59 0 60 0;
#X connect 59 1 61 0;
#X connect 60 1 62 1;
#X connect 61 1 62 0;
#X connect 62 0 70 0;
#X connect 62 0 100 0;
#X connect 62 0 101 0;
#X connect 62 0 94 0;
#X connect 64 0 63 0;
#X connect 64 0 67 0;
#X connect 64 0 69 0;
#X connect 65 0 103 0;
#X connect 65 0 20 0;
#X connect 66 0 44 0;
#X connect 67 0 30 0;
#X connect 71 0 89 0;
#X connect 78 0 53 0;
#X connect 80 0 41 0;
#X connect 81 0 44 0;
#X connect 82 0 43 0;
#X connect 82 0 105 0;
#X connect 83 0 82 0;
#X connect 84 0 82 0;
#X connect 86 0 47 1;
#X connect 87 0 48 1;
#X connect 88 0 91 0;
#X connect 89 0 99 0;
#X connect 89 1 99 1;
#X connect 91 0 2 0;
#X connect 94 0 64 0;
#X connect 94 0 68 0;
#X connect 95 0 9 0;
#X connect 96 0 12 0;
#X connect 96 0 98 0;
#X connect 96 0 95 0;
#X connect 97 0 9 0;
#X connect 98 0 13 0;
#X connect 99 0 116 0;
#X connect 103 0 108 0;
#X connect 104 0 95 0;
#X connect 105 0 54 0;
#X connect 106 0 9 0;
#X connect 108 0 104 0;
#X connect 109 0 113 0;
#X connect 111 0 112 0;
#X connect 112 0 42 0;
#X connect 113 0 40 0;
#X connect 114 0 30 0;
#X connect 114 1 30 0;
#X connect 114 2 30 0;
#X connect 114 3 30 0;
#X connect 114 4 30 0;
#X connect 114 5 30 0;
#X connect 114 6 30 0;
#X connect 116 0 114 1;
#X connect 117 0 118 0;
#X connect 118 0 51 0;
#X connect 119 0 52 0;
#X connect 120 0 119 0;
