#N canvas 222 63 537 689 10;
#X obj 293 105 timer;
#X obj 294 68 t b b;
#X obj 300 224 /;
#X obj 297 171 t f f;
#X obj 396 335 f;
#X obj 266 269 int;
#X obj 267 249 + 0.5;
#X obj 217 302 == 1;
#X obj 263 302 == 2;
#X obj 309 302 == 3;
#X obj 309 336 t b f;
#X obj 309 379 spigot;
#X obj 255 336 t b f;
#X obj 255 379 spigot;
#X obj 194 336 t b f;
#X obj 194 379 spigot;
#X obj 293 16 inlet;
#X obj 210 623 outlet;
#X obj 209 442 f;
#X obj 232 404 * 0.5;
#X obj 308 398 * 0.333;
#X obj 212 489 line;
#X obj 364 505 outlet;
#X msg 211 464 \$1 100;
#X text 412 506 ms;
#X text 114 663 modified from the original patch used in RUIS project
;
#X obj 211 570 bpm;
#X connect 0 0 3 0;
#X connect 0 0 4 1;
#X connect 1 0 0 0;
#X connect 1 1 0 1;
#X connect 2 0 6 0;
#X connect 3 0 2 1;
#X connect 3 1 2 0;
#X connect 4 0 11 0;
#X connect 4 0 13 0;
#X connect 4 0 15 0;
#X connect 5 0 7 0;
#X connect 5 0 8 0;
#X connect 5 0 9 0;
#X connect 6 0 5 0;
#X connect 7 0 14 0;
#X connect 8 0 12 0;
#X connect 9 0 10 0;
#X connect 10 0 4 0;
#X connect 10 1 11 1;
#X connect 11 0 20 0;
#X connect 12 0 4 0;
#X connect 12 1 13 1;
#X connect 13 0 19 0;
#X connect 14 0 4 0;
#X connect 14 1 15 1;
#X connect 15 0 18 0;
#X connect 16 0 1 0;
#X connect 18 0 23 0;
#X connect 19 0 18 0;
#X connect 20 0 18 0;
#X connect 21 0 22 0;
#X connect 21 0 26 0;
#X connect 23 0 21 0;
#X connect 26 0 17 0;
