#N canvas 193 56 245 494 10;
#X obj 80 31 inlet;
#X obj 80 105 f;
#X obj 80 57 * 0.25;
#X obj 133 122 +;
#X obj 80 80 t f b f;
#X obj 137 183 +;
#X obj 80 166 f;
#X obj 80 140 t f b;
#X obj 136 240 +;
#X obj 79 223 f;
#X obj 79 197 t f b;
#X obj 136 406 outlet;
#X connect 0 0 2 0;
#X connect 1 0 3 0;
#X connect 1 0 7 0;
#X connect 2 0 4 0;
#X connect 3 0 5 1;
#X connect 4 0 1 1;
#X connect 4 1 1 0;
#X connect 4 2 3 1;
#X connect 5 0 8 1;
#X connect 6 0 5 0;
#X connect 6 0 10 0;
#X connect 7 0 6 1;
#X connect 7 1 6 0;
#X connect 8 0 11 0;
#X connect 9 0 8 0;
#X connect 10 0 9 1;
#X connect 10 1 9 0;
