#N canvas 193 56 492 635 10;
#X obj 80 31 inlet;
#X obj 80 105 f;
#X obj 80 57 * 0.25;
#X obj 133 122 +;
#X obj 80 80 t f b f;
#X obj 137 183 +;
#X obj 80 166 f;
#X obj 80 140 t f b;
#X obj 136 240 +;
#X obj 79 223 f;
#X obj 79 197 t f b;
#X obj 217 393 outlet;
#X obj 136 301 f;
#X obj 211 273 + 1;
#X obj 179 270 int;
#X msg 180 251 bang;
#X obj 244 276 mod 4;
#X obj 180 290 sel 3;
#X floatatom 215 324 5 0 0 0 - - -;
#X connect 0 0 2 0;
#X connect 1 0 3 0;
#X connect 1 0 7 0;
#X connect 2 0 4 0;
#X connect 3 0 5 1;
#X connect 4 0 1 1;
#X connect 4 1 1 0;
#X connect 4 2 3 1;
#X connect 5 0 8 1;
#X connect 6 0 5 0;
#X connect 6 0 10 0;
#X connect 7 0 6 1;
#X connect 7 1 6 0;
#X connect 8 0 12 1;
#X connect 8 0 15 0;
#X connect 9 0 8 0;
#X connect 10 0 9 1;
#X connect 10 1 9 0;
#X connect 12 0 18 0;
#X connect 13 0 16 0;
#X connect 14 0 13 0;
#X connect 14 0 17 0;
#X connect 15 0 14 0;
#X connect 16 0 14 1;
#X connect 17 0 12 0;
#X connect 18 0 11 0;
