#N canvas 291 247 649 393 10;
#X obj 283 -8 inlet;
#X obj 383 -12 inlet;
#X obj 35 305 outlet;
#X text 146 73 OOI acceleration;
#N canvas 206 235 586 358 OOI_acceleration 0;
#X obj 81 63 inlet;
#X obj 188 66 inlet;
#X obj 404 54 inlet;
#X obj 186 299 outlet;
#X text 249 156 OOI acceleration;
#X text 244 300 OOI next;
#X text 72 42 OOI lead;
#X text 294 37 OOI current;
#X text 403 38 Phase Difference;
#X text 176 39 entrainment (K);
#X obj 287 55 r \$0-current;
#X obj 188 124 / 2;
#X obj 188 155 *;
#X obj 216 123 -;
#X obj 386 174 /;
#X msg 386 148 1;
#X obj 386 83 * 4;
#X obj 386 104 + 3;
#X obj 188 212 -;
#X obj 187 270 +;
#X obj 385 127 t b f;
#X obj 187 239 t b f;
#X obj 387 197 *;
#X connect 0 0 13 1;
#X connect 0 0 19 0;
#X connect 1 0 11 0;
#X connect 1 0 16 0;
#X connect 2 0 22 1;
#X connect 10 0 13 0;
#X connect 11 0 12 0;
#X connect 12 0 18 0;
#X connect 13 0 12 1;
#X connect 14 0 22 0;
#X connect 15 0 14 0;
#X connect 16 0 17 0;
#X connect 17 0 20 0;
#X connect 18 0 21 0;
#X connect 19 0 3 0;
#X connect 20 0 15 0;
#X connect 20 1 14 1;
#X connect 21 0 19 0;
#X connect 21 1 19 1;
#X connect 22 0 18 1;
#X restore 136 39 pd OOI_acceleration;
#N canvas 680 147 620 370 OOI_deceleration 0;
#X obj 115 67 inlet;
#X obj 220 65 inlet;
#X obj 472 70 inlet;
#X obj 221 275 outlet;
#X text 288 117 OOI deceleration;
#X text 114 48 OOI lead;
#X text 352 32 OOI current;
#X text 461 46 Phase Difference;
#X text 218 45 entrainment (K);
#X text 269 275 OOI next;
#X obj 353 55 r \$0-current;
#X obj 221 117 / 2;
#X obj 222 149 *;
#X obj 251 118 -;
#X obj 422 81 * 4;
#X obj 426 192 *;
#X obj 423 102 + 3;
#X obj 223 208 -;
#X obj 222 251 +;
#X obj 455 193 -;
#X obj 425 169 /;
#X obj 423 127 t b f;
#X msg 424 149 1;
#X obj 223 228 t b f;
#X connect 0 0 18 0;
#X connect 0 0 19 0;
#X connect 0 0 13 1;
#X connect 1 0 11 0;
#X connect 1 0 14 0;
#X connect 2 0 19 1;
#X connect 10 0 13 0;
#X connect 11 0 12 0;
#X connect 12 0 17 0;
#X connect 13 0 12 1;
#X connect 14 0 16 0;
#X connect 15 0 17 1;
#X connect 16 0 21 0;
#X connect 17 0 23 0;
#X connect 18 0 3 0;
#X connect 19 0 15 1;
#X connect 20 0 15 0;
#X connect 21 0 22 0;
#X connect 21 1 20 1;
#X connect 22 0 20 0;
#X connect 23 0 18 0;
#X connect 23 1 18 1;
#X restore 395 38 pd OOI_deceleration;
#X text 405 76 OOI deceleration;
#X obj 118 70 f;
#X obj 380 72 f;
#N canvas 201 268 528 327 asynchronous 0;
#X obj 75 147 outlet;
#X text 110 70 OOI asynchronous;
#X text 66 17 OOI current;
#X text 122 149 OOI next;
#X obj 75 36 r \$0-current;
#X obj 228 36 inlet;
#X text 200 9 entrainment (K);
#X obj 75 97 /;
#X obj 229 58 * -0.25;
#X obj 228 82 + 1.3;
#X connect 4 0 7 0;
#X connect 5 0 8 0;
#X connect 7 0 0 0;
#X connect 8 0 9 0;
#X connect 9 0 7 1;
#X restore 356 177 pd asynchronous;
#X text 374 161 OOI asynchronous;
#X obj 107 274 s \$0-current;
#N canvas 0 22 450 300 3angular 0;
#X obj 110 55 inlet;
#X obj 110 210 outlet;
#X obj 110 162 +;
#X obj 183 145 * 70;
#X obj 184 100 random 100;
#X obj 183 123 / 100;
#X obj 110 142 * 70;
#X obj 110 101 random 100;
#X obj 110 121 / 100;
#X obj 110 78 t b b;
#X text 98 236 triangular distribution with average of 220;
#X obj 110 184 + 150;
#X connect 0 0 9 0;
#X connect 2 0 11 0;
#X connect 3 0 2 1;
#X connect 4 0 5 0;
#X connect 5 0 3 0;
#X connect 6 0 2 0;
#X connect 7 0 8 0;
#X connect 8 0 6 0;
#X connect 9 0 7 0;
#X connect 9 1 4 0;
#X connect 11 0 1 0;
#X restore 269 176 pd 3angular;
#X obj 94 237 r \$0-OOInext;
#X obj 118 111 s \$0-OOInext;
#X obj 380 114 s \$0-OOInext;
#X obj 269 275 s \$0-OOInext;
#X obj 118 90 spigot;
#X floatatom 169 93 1 0 0 0 - #0-synch -;
#X obj 380 92 spigot;
#X floatatom 430 95 1 0 0 0 - #0-synch -;
#X obj 269 198 spigot;
#X floatatom 318 199 1 0 0 0 - #0-asynch -;
#X msg 167 179 1;
#X msg 144 179 0;
#X msg 75 178 1;
#X obj 103 178 t b b;
#X msg 212 158 0;
#X obj 155 157 t b b b;
#X obj 103 156 sel 1 0;
#X text 268 293 triangular distribution for asynchronous;
#X obj 193 178 s \$0-synch;
#X obj 167 198 s \$0-asynch;
#X obj 75 198 s \$0-synch;
#X obj 145 216 s \$0-asynch;
#N canvas 805 445 245 251 speed_slow 0;
#X obj 64 -68 inlet;
#X obj 97 -46 inlet;
#X obj 64 88 outlet;
#X obj 85 111 outlet;
#X obj 97 -19 / 2;
#X obj 64 1 <= 220;
#X text 103 53 0: Slow Down;
#X text 104 64 1: Speed Up;
#X obj 63 44 sel 1 0;
#X obj 64 25 change;
#X connect 0 0 5 0;
#X connect 1 0 4 0;
#X connect 4 0 5 1;
#X connect 5 0 9 0;
#X connect 8 0 2 0;
#X connect 8 1 3 0;
#X connect 9 0 8 0;
#X restore 282 39 pd speed_slow;
#X obj 269 256 line;
#X obj 269 218 pack 0 0;
#X msg 269 237 \$2 \, \$1 50;
#X obj 94 255 abs;
#X obj 34 274 metro 600;
#X obj 33 51 tgl 15 0 empty empty I1:osc_on/off 0 -7 0 10 -262144 -1
-1 0 1;
#X obj 102 18 tgl 15 0 empty empty I2:sync_on/off 0 -7 0 10 -262144
-1 -1 0 1;
#X msg 200 -12 1;
#X obj 200 -31 loadbang;
#X obj 32 2 loadbang;
#X connect 0 0 4 2;
#X connect 0 0 5 2;
#X connect 0 0 35 0;
#X connect 1 0 4 0;
#X connect 1 0 5 0;
#X connect 1 0 35 1;
#X connect 4 0 7 1;
#X connect 5 0 8 1;
#X connect 7 0 17 0;
#X connect 8 0 19 0;
#X connect 9 0 37 1;
#X connect 12 0 21 0;
#X connect 13 0 39 0;
#X connect 17 0 14 0;
#X connect 18 0 17 1;
#X connect 19 0 15 0;
#X connect 20 0 19 1;
#X connect 21 0 37 0;
#X connect 22 0 21 1;
#X connect 23 0 32 0;
#X connect 24 0 34 0;
#X connect 25 0 33 0;
#X connect 26 0 25 0;
#X connect 26 1 24 0;
#X connect 27 0 31 0;
#X connect 28 0 12 0;
#X connect 28 1 23 0;
#X connect 28 2 27 0;
#X connect 29 0 26 0;
#X connect 29 1 28 0;
#X connect 35 0 7 0;
#X connect 35 1 8 0;
#X connect 36 0 16 0;
#X connect 37 0 38 0;
#X connect 38 0 36 0;
#X connect 39 0 11 0;
#X connect 39 0 40 1;
#X connect 40 0 2 0;
#X connect 41 0 40 0;
#X connect 42 0 29 0;
#X connect 43 0 4 1;
#X connect 43 0 9 0;
#X connect 43 0 5 1;
#X connect 44 0 43 0;
#X connect 45 0 42 0;
#X connect 45 0 41 0;
