#N canvas 160 69 574 502 10;
#X obj 116 14 inlet~;
#X obj 116 158 t b;
#X obj -3 191 outlet;
#X obj 148 158 list split 1;
#X obj 116 137 bonk~;
#X obj 116 380 ooi2bpm;
#X text 111 0 audio in;
#X text -5 207 strength;
#X text 167 245 send bang for;
#X text 167 255 detected claps;
#X text 169 269 if clapping is;
#X text 168 281 selected as input;
#X obj -3 174 list split 1;
#X text 52 220 event type;
#X obj 319 15 inlet;
#X obj 379 410 outlet;
#X obj 116 347 tempoest;
#X obj 115 245 spigot;
#X msg 147 221 1;
#X msg 178 222 0;
#X text 172 348 Tempo estimator 4 avarage output;
#X text 169 383 resulted tempo value in bpm;
#X text 151 403 is converted to milliseconds;
#X obj 318 36 route list;
#X obj 61 204 outlet;
#X obj -50 153 outlet;
#X obj 147 200 sel 0 1 2;
#X obj 262 224 outlet;
#N canvas 10 55 619 315 timestamp 0;
#X obj 360 116 cputime;
#X obj 361 93 t b b;
#X floatatom 360 136 5 0 0 0 - - -;
#X msg 361 70 bang;
#X obj 362 50 inlet;
#X obj 360 154 print event_type_2_timestamp;
#X obj 11 115 cputime;
#X obj 12 92 t b b;
#X floatatom 11 135 5 0 0 0 - - -;
#X msg 12 69 bang;
#X obj 13 49 inlet;
#X obj 141 90 cputime;
#X obj 142 67 t b b;
#X floatatom 141 110 5 0 0 0 - - -;
#X msg 142 44 bang;
#X obj 143 24 inlet;
#X obj 11 153 print event_type_0_timestamp;
#X obj 140 128 print event_type_1_timestamp;
#X connect 0 0 2 0;
#X connect 1 0 0 0;
#X connect 1 1 0 1;
#X connect 2 0 5 0;
#X connect 3 0 1 0;
#X connect 4 0 3 0;
#X connect 6 0 8 0;
#X connect 7 0 6 0;
#X connect 7 1 6 1;
#X connect 8 0 16 0;
#X connect 9 0 7 0;
#X connect 10 0 9 0;
#X connect 11 0 13 0;
#X connect 12 0 11 0;
#X connect 12 1 11 1;
#X connect 13 0 17 0;
#X connect 14 0 12 0;
#X connect 15 0 14 0;
#X restore 393 198 pd timestamp;
#X text 310 231 timestamp for each event type;
#X text 243 111 trained events are;
#X text 242 124 tracked througout the audio input;
#X text 307 255 event 0 is the default;
#X text 308 269 class;
#X obj 327 324 pack 0 0;
#X obj 328 301 t b f;
#X obj 459 391 outlet;
#X connect 0 0 4 0;
#X connect 1 0 17 0;
#X connect 3 0 24 0;
#X connect 3 0 26 0;
#X connect 3 1 12 0;
#X connect 4 0 1 0;
#X connect 4 0 25 0;
#X connect 4 1 3 0;
#X connect 5 0 15 0;
#X connect 5 0 35 0;
#X connect 12 0 2 0;
#X connect 14 0 23 0;
#X connect 16 0 5 0;
#X connect 16 0 34 0;
#X connect 17 0 16 0;
#X connect 18 0 17 1;
#X connect 19 0 17 1;
#X connect 23 0 4 0;
#X connect 26 0 18 0;
#X connect 26 0 27 0;
#X connect 26 1 18 0;
#X connect 26 1 27 0;
#X connect 26 2 18 0;
#X connect 26 2 27 0;
#X connect 26 3 19 0;
#X connect 34 0 36 0;
#X connect 35 0 34 0;
#X connect 35 1 34 1;
